<svg width="32" height="32" viewBox="0 0 32 32" fill="none" xmlns="http://www.w3.org/2000/svg">
<path d="M16 2.66132C18.5955 2.65791 21.0904 3.66511 22.956 5.46954C24.8217 7.27396 25.9115 9.73383 25.9947 12.328L26 12.6613V18.124L27.84 22.332C27.9507 22.5856 27.9965 22.8627 27.9733 23.1384C27.9501 23.4141 27.8586 23.6797 27.7072 23.9112C27.5557 24.1427 27.3489 24.3328 27.1056 24.4645C26.8623 24.5962 26.59 24.6652 26.3133 24.6653L20 24.6693C20.0014 25.7107 19.5966 26.7115 18.8717 27.459C18.1468 28.2066 17.1589 28.6421 16.1181 28.6728C15.0772 28.7035 14.0654 28.3271 13.2976 27.6236C12.5299 26.9201 12.0668 25.9449 12.0067 24.9053L12 24.6653H5.70001C5.42364 24.6653 5.1516 24.5966 4.90838 24.4654C4.66516 24.3341 4.45841 24.1444 4.30672 23.9134C4.15504 23.6824 4.06319 23.4172 4.03944 23.1419C4.01569 22.8665 4.06079 22.5896 4.17068 22.336L6.00001 18.1253V12.6613C6.00001 7.12132 10.4693 2.66132 16 2.66132ZM18 24.6667L14 24.6693C13.9999 25.1831 14.1975 25.6771 14.5519 26.0491C14.9062 26.4211 15.3901 26.6425 15.9032 26.6673C16.4164 26.6922 16.9194 26.5186 17.308 26.1826C17.6967 25.8467 17.9411 25.374 17.9907 24.8627L18 24.6667ZM16 4.66132C11.5733 4.66132 8.00001 8.22666 8.00001 12.6613V18.5413L6.20801 22.6667H25.804L24 18.5427V12.6787L23.9947 12.3787C23.9247 10.3061 23.0514 8.34201 21.5594 6.90177C20.0674 5.46152 18.0737 4.65807 16 4.66132ZM28 11H30.6667C30.92 11.0001 31.1639 11.0963 31.3491 11.2693C31.5342 11.4423 31.6468 11.6791 31.664 11.9318C31.6813 12.1846 31.602 12.4345 31.4421 12.6311C31.2822 12.8276 31.0537 12.9561 30.8027 12.9907L30.6667 13H28C27.7466 12.9999 27.5028 12.9037 27.3176 12.7307C27.1325 12.5577 27.0199 12.3209 27.0026 12.0682C26.9854 11.8154 27.0647 11.5655 27.2246 11.3689C27.3845 11.1724 27.613 11.0439 27.864 11.0093L28 11ZM1.33334 11H4.00001C4.25338 11.0001 4.49727 11.0963 4.6824 11.2693C4.86753 11.4423 4.98011 11.6791 4.99738 11.9318C5.01465 12.1846 4.93532 12.4345 4.77543 12.6311C4.61554 12.8276 4.38701 12.9561 4.13601 12.9907L4.00001 13H1.33334C1.07998 12.9999 0.836089 12.9037 0.650955 12.7307C0.465821 12.5577 0.353245 12.3209 0.335976 12.0682C0.318707 11.8154 0.398031 11.5655 0.557921 11.3689C0.71781 11.1724 0.946344 11.0439 1.19734 11.0093L1.33334 11ZM30.1333 3.39999C30.2772 3.59165 30.3474 3.82858 30.3313 4.06767C30.3151 4.30675 30.2137 4.53209 30.0453 4.70266L29.9333 4.79999L27.2667 6.79999C27.0648 6.95213 26.8128 7.02218 26.5614 6.99604C26.31 6.9699 26.0778 6.84952 25.9115 6.6591C25.7453 6.46869 25.6573 6.22238 25.6653 5.96973C25.6733 5.71707 25.7767 5.47683 25.9547 5.29732L26.0667 5.19999L28.7333 3.19999C28.9455 3.04086 29.2122 2.97253 29.4748 3.01004C29.7373 3.04755 29.9742 3.18782 30.1333 3.39999ZM3.26668 3.19999L5.93334 5.19999C6.0384 5.27878 6.12691 5.3775 6.19382 5.4905C6.26073 5.6035 6.30472 5.72857 6.32329 5.85857C6.34187 5.98857 6.33465 6.12096 6.30206 6.24817C6.26947 6.37539 6.21214 6.49493 6.13334 6.59999C6.05455 6.70505 5.95584 6.79356 5.84284 6.86047C5.72984 6.92737 5.60477 6.97137 5.47477 6.98994C5.34476 7.00851 5.21238 7.0013 5.08516 6.9687C4.95795 6.93611 4.8384 6.87878 4.73334 6.79999L2.06668 4.79999C1.96162 4.7212 1.87311 4.62248 1.8062 4.50948C1.7393 4.39649 1.6953 4.27141 1.67673 4.14141C1.65816 4.01141 1.66537 3.87902 1.69796 3.75181C1.73056 3.6246 1.78788 3.50505 1.86668 3.39999C1.94547 3.29493 2.04418 3.20642 2.15718 3.13952C2.27018 3.07261 2.39525 3.02861 2.52526 3.01004C2.65526 2.99147 2.78764 2.99869 2.91486 3.03128C3.04207 3.06387 3.16162 3.1212 3.26668 3.19999Z" fill="black" fill-opacity="0.87"/>
</svg>
