<svg width="32" height="32" viewBox="0 0 32 32" fill="none" xmlns="http://www.w3.org/2000/svg">
<path d="M16 6C18.0409 6.00035 20.0329 6.62518 21.7084 7.79056C23.3839 8.95595 24.6626 10.6061 25.373 12.5194C26.0834 14.4327 26.1913 16.5176 25.6823 18.494C25.1733 20.4704 24.0717 22.2438 22.5255 23.576C20.9793 24.9081 19.0625 25.7353 17.0326 25.9464C15.0026 26.1575 12.9566 25.7424 11.1694 24.7568C9.3822 23.7713 7.93935 22.2625 7.03459 20.4331C6.12983 18.6037 5.8065 16.5412 6.10801 14.5227C6.19734 13.9173 5.75468 13.3333 5.14268 13.3333C4.90389 13.3293 4.67153 13.4108 4.48763 13.5631C4.30372 13.7155 4.18042 13.9286 4.14001 14.164C3.70713 16.9574 4.27426 19.8139 5.74141 22.23C7.20857 24.6462 9.48157 26.4668 12.1597 27.3711C14.8379 28.2753 17.7494 28.2051 20.3808 27.1728C23.0123 26.1405 25.1949 24.2124 26.5439 21.7283C27.8928 19.2443 28.3216 16.3637 27.7546 13.5945C27.1875 10.8252 25.6611 8.34502 23.4443 6.59107C21.2276 4.83713 18.4628 3.92203 15.6374 4.00709C12.812 4.09214 10.1072 5.17189 8.00001 7.056V5.66667C8.00001 5.40145 7.89465 5.1471 7.70712 4.95956C7.51958 4.77202 7.26523 4.66667 7.00001 4.66667C6.73479 4.66667 6.48044 4.77202 6.2929 4.95956C6.10537 5.1471 6.00001 5.40145 6.00001 5.66667V9.66667C6.00001 10.2187 6.44801 10.6667 7.00001 10.6667H11C11.2652 10.6667 11.5196 10.5613 11.7071 10.3738C11.8947 10.1862 12 9.93188 12 9.66667C12 9.40145 11.8947 9.1471 11.7071 8.95956C11.5196 8.77203 11.2652 8.66667 11 8.66667H9.20001C11.0472 6.94873 13.4774 5.9957 16 6Z" fill="black" fill-opacity="0.87"/>
</svg>
