<svg width="32" height="32" viewBox="0 0 32 32" fill="none" xmlns="http://www.w3.org/2000/svg">
<path d="M17.6893 5.61199C17.4959 5.43699 17.2418 5.34448 16.9812 5.35418C16.7205 5.36388 16.474 5.47503 16.2941 5.66393C16.1143 5.85283 16.0154 6.10452 16.0184 6.36532C16.0215 6.62613 16.1264 6.87541 16.3107 7.05999L24.6453 15H5C4.73478 15 4.48043 15.1054 4.29289 15.2929C4.10536 15.4804 4 15.7348 4 16C4 16.2652 4.10536 16.5196 4.29289 16.7071C4.48043 16.8946 4.73478 17 5 17H24.6453L16.3107 24.9387C16.1185 25.1215 16.0068 25.3732 16.0002 25.6383C15.9935 25.9035 16.0925 26.1605 16.2753 26.3527C16.4582 26.5449 16.7098 26.6565 16.975 26.6632C17.2402 26.6698 17.4971 26.5708 17.6893 26.388L27.5827 16.9653C27.7988 16.7596 27.9396 16.4873 27.9827 16.192C28.0058 16.0641 28.0053 15.9331 27.9813 15.8053C27.9377 15.511 27.7969 15.2397 27.5813 15.0347L17.6893 5.61199Z" fill="black" fill-opacity="0.87"/>
</svg>
