<svg width="32" height="32" viewBox="0 0 32 32" fill="none" xmlns="http://www.w3.org/2000/svg">
<path d="M13.6667 4.66666H18.3333C18.5985 4.66666 18.8529 4.77201 19.0404 4.95955C19.228 5.14709 19.3333 5.40144 19.3333 5.66666V7.99999H12.6667V5.66666C12.6667 5.40144 12.772 5.14709 12.9595 4.95955C13.1471 4.77201 13.4014 4.66666 13.6667 4.66666ZM10.6667 5.66666V7.99999H8.33332C7.18405 7.99999 6.08185 8.45654 5.26919 9.26919C4.45653 10.0819 3.99998 11.1841 3.99998 12.3333V14.1333C4.99998 13.6213 6.13332 13.3333 7.33332 13.3333C9.81332 13.3333 12.0067 14.564 13.3333 16.4493V16C13.3333 15.6464 13.4738 15.3072 13.7238 15.0572C13.9739 14.8071 14.313 14.6667 14.6667 14.6667H17.3333C17.6869 14.6667 18.0261 14.8071 18.2761 15.0572C18.5262 15.3072 18.6667 15.6464 18.6667 16V16.6667H25.6667C26.2855 16.6667 26.879 16.4208 27.3166 15.9832C27.7542 15.5457 28 14.9522 28 14.3333V12.3333C28 11.1841 27.5434 10.0819 26.7308 9.26919C25.9181 8.45654 24.8159 7.99999 23.6667 7.99999H21.3333V5.66666C21.3333 4.87101 21.0172 4.10795 20.4546 3.54534C19.892 2.98273 19.129 2.66666 18.3333 2.66666H13.6667C12.871 2.66666 12.1079 2.98273 11.5453 3.54534C10.9827 4.10795 10.6667 4.87101 10.6667 5.66666ZM23.6667 26.6667H16.6333L13.9 23.9333C14.5057 22.7159 14.761 21.3541 14.6373 20H17.3333C17.6869 20 18.0261 19.8595 18.2761 19.6095C18.5262 19.3594 18.6667 19.0203 18.6667 18.6667H25.6667C26.5253 18.6667 27.3267 18.4173 28 17.9867V22.3333C28 23.4826 27.5434 24.5848 26.7308 25.3975C25.9181 26.2101 24.8159 26.6667 23.6667 26.6667ZM7.33332 26.6667C8.57905 26.6667 9.79391 26.279 10.8093 25.5573L14.2933 29.04C14.3849 29.1382 14.4953 29.217 14.6179 29.2717C14.7406 29.3264 14.873 29.3557 15.0073 29.3581C15.1416 29.3605 15.2749 29.3358 15.3994 29.2855C15.524 29.2352 15.6371 29.1603 15.732 29.0654C15.827 28.9704 15.9019 28.8573 15.9521 28.7328C16.0024 28.6083 16.0271 28.4749 16.0248 28.3406C16.0224 28.2064 15.993 28.0739 15.9384 27.9513C15.8837 27.8286 15.8049 27.7182 15.7066 27.6267L12.224 24.1427C13.0032 23.0463 13.3915 21.72 13.3264 20.3765C13.2614 19.0331 12.7468 17.7504 11.8653 16.7345C10.9839 15.7186 9.78659 15.0283 8.46572 14.7745C7.14486 14.5206 5.77701 14.718 4.58177 15.3348C3.38652 15.9517 2.4332 16.9523 1.87485 18.1759C1.31649 19.3996 1.18549 20.7754 1.50286 22.0824C1.82024 23.3895 2.56758 24.552 3.62493 25.3833C4.68227 26.2147 5.98829 26.6666 7.33332 26.6667ZM7.33332 24.6667C6.27245 24.6667 5.25504 24.2452 4.50489 23.4951C3.75474 22.7449 3.33332 21.7275 3.33332 20.6667C3.33332 19.6058 3.75474 18.5884 4.50489 17.8382C5.25504 17.0881 6.27245 16.6667 7.33332 16.6667C8.39418 16.6667 9.4116 17.0881 10.1617 17.8382C10.9119 18.5884 11.3333 19.6058 11.3333 20.6667C11.3333 21.7275 10.9119 22.7449 10.1617 23.4951C9.4116 24.2452 8.39418 24.6667 7.33332 24.6667Z" fill="black" fill-opacity="0.87"/>
</svg>
