<svg width="32" height="32" viewBox="0 0 32 32" fill="none" xmlns="http://www.w3.org/2000/svg">
<path d="M13 5H19C19.2652 5 19.5196 5.10536 19.7071 5.29289C19.8946 5.48043 20 5.73478 20 6V8H12V6C12 5.73478 12.1054 5.48043 12.2929 5.29289C12.4804 5.10536 12.7348 5 13 5ZM10 6V8H7.5C6.30653 8 5.16193 8.47411 4.31802 9.31802C3.47411 10.1619 3 11.3065 3 12.5V23.5C3 24.6935 3.47411 25.8381 4.31802 26.682C5.16193 27.5259 6.30653 28 7.5 28H24.5C25.6935 28 26.8381 27.5259 27.682 26.682C28.5259 25.8381 29 24.6935 29 23.5V12.5C29 11.3065 28.5259 10.1619 27.682 9.31802C26.8381 8.47411 25.6935 8 24.5 8H22V6C22 5.20435 21.6839 4.44129 21.1213 3.87868C20.5587 3.31607 19.7956 3 19 3H13C12.2044 3 11.4413 3.31607 10.8787 3.87868C10.3161 4.44129 10 5.20435 10 6ZM27 14C27 14.7956 26.6839 15.5587 26.1213 16.1213C25.5587 16.6839 24.7956 17 24 17H19V16.5C19 16.1022 18.842 15.7206 18.5607 15.4393C18.2794 15.158 17.8978 15 17.5 15H14.5C14.1022 15 13.7206 15.158 13.4393 15.4393C13.158 15.7206 13 16.1022 13 16.5V17H8C7.20435 17 6.44129 16.6839 5.87868 16.1213C5.31607 15.5587 5 14.7956 5 14V12.5C5 11.837 5.26339 11.2011 5.73223 10.7322C6.20107 10.2634 6.83696 10 7.5 10H24.5C25.163 10 25.7989 10.2634 26.2678 10.7322C26.7366 11.2011 27 11.837 27 12.5V14ZM13 19V19.5C13 19.8978 13.158 20.2794 13.4393 20.5607C13.7206 20.842 14.1022 21 14.5 21H17.5C17.8978 21 18.2794 20.842 18.5607 20.5607C18.842 20.2794 19 19.8978 19 19.5V19H24C25.0821 19.0014 26.1352 18.6504 27 18V23.5C27 24.163 26.7366 24.7989 26.2678 25.2678C25.7989 25.7366 25.163 26 24.5 26H7.5C6.83696 26 6.20107 25.7366 5.73223 25.2678C5.26339 24.7989 5 24.163 5 23.5V18C5.836 18.628 6.874 19 8 19H13Z" fill="black" fill-opacity="0.87"/>
</svg>
