<svg width="32" height="32" viewBox="0 0 32 32" fill="none" xmlns="http://www.w3.org/2000/svg">
<path d="M14.3332 5H18.9999C19.2651 5 19.5195 5.10536 19.707 5.29289C19.8945 5.48043 19.9999 5.73478 19.9999 6V8.33333H13.3332V6C13.3332 5.73478 13.4386 5.48043 13.6261 5.29289C13.8136 5.10536 14.068 5 14.3332 5ZM11.3332 6V8.33333H8.99988C7.85061 8.33333 6.74841 8.78988 5.93575 9.60254C5.1231 10.4152 4.66655 11.5174 4.66655 12.6667V14.4667C5.28788 14.1493 5.95988 13.9173 6.66655 13.7867V12.6667C6.66655 11.3787 7.71188 10.3333 8.99988 10.3333H24.3332C25.6212 10.3333 26.6665 11.3787 26.6665 12.6667V14.6667C26.6665 15.2855 26.4207 15.879 25.9831 16.3166C25.5455 16.7542 24.9521 17 24.3332 17H19.3332V16.3333C19.3332 15.9797 19.1927 15.6406 18.9427 15.3905C18.6926 15.1405 18.3535 15 17.9999 15H15.3332C14.9796 15 14.6405 15.1405 14.3904 15.3905C14.1404 15.6406 13.9999 15.9797 13.9999 16.3333V16.7827C14.7392 17.8309 15.189 19.0557 15.3039 20.3333H17.9999C18.3535 20.3333 18.6926 20.1929 18.9427 19.9428C19.1927 19.6928 19.3332 19.3536 19.3332 19H24.3332C25.1919 19 25.9932 18.7507 26.6665 18.32V22.6667C26.6665 23.2855 26.4207 23.879 25.9831 24.3166C25.5455 24.7542 24.9521 25 24.3332 25H15.2999L17.2999 27H24.3332C25.4825 27 26.5847 26.5435 27.3973 25.7308C28.21 24.9181 28.6665 23.8159 28.6665 22.6667V12.6667C28.6665 11.5174 28.21 10.4152 27.3973 9.60254C26.5847 8.78988 25.4825 8.33333 24.3332 8.33333H21.9999V6C21.9999 5.20435 21.6838 4.44129 21.1212 3.87868C20.5586 3.31607 19.7955 3 18.9999 3H14.3332C13.5376 3 12.7745 3.31607 12.2119 3.87868C11.6493 4.44129 11.3332 5.20435 11.3332 6ZM7.99988 27C9.24562 27 10.4605 26.6123 11.4759 25.8907L14.9599 29.3733C15.0514 29.4716 15.1618 29.5504 15.2845 29.605C15.4072 29.6597 15.5396 29.6891 15.6739 29.6915C15.8081 29.6938 15.9415 29.6691 16.066 29.6188C16.1905 29.5685 16.3036 29.4937 16.3986 29.3987C16.4936 29.3038 16.5684 29.1906 16.6187 29.0661C16.669 28.9416 16.6937 28.8082 16.6913 28.674C16.689 28.5397 16.6596 28.4073 16.6049 28.2846C16.5503 28.1619 16.4715 28.0515 16.3732 27.96L12.8905 24.476C13.6698 23.3797 14.058 22.0533 13.993 20.7099C13.9279 19.3664 13.4134 18.0838 12.5319 17.0678C11.6504 16.0519 10.4532 15.3616 9.13229 15.1078C7.81142 14.854 6.44358 15.0513 5.24833 15.6682C4.05309 16.285 3.09977 17.2856 2.54141 18.5093C1.98306 19.7329 1.85205 21.1087 2.16943 22.4158C2.4868 23.7228 3.23415 24.8853 4.29149 25.7167C5.34883 26.548 6.65485 27 7.99988 27ZM7.99988 25C6.93902 25 5.9216 24.5786 5.17146 23.8284C4.42131 23.0783 3.99988 22.0609 3.99988 21C3.99988 19.9391 4.42131 18.9217 5.17146 18.1716C5.9216 17.4214 6.93902 17 7.99988 17C9.06075 17 10.0782 17.4214 10.8283 18.1716C11.5785 18.9217 11.9999 19.9391 11.9999 21C11.9999 22.0609 11.5785 23.0783 10.8283 23.8284C10.0782 24.5786 9.06075 25 7.99988 25Z" fill="black" fill-opacity="0.87"/>
</svg>
