<svg width="32" height="32" viewBox="0 0 32 32" fill="none" xmlns="http://www.w3.org/2000/svg">
<path d="M5 28.6667C4.73478 28.6667 4.48043 28.5613 4.29289 28.3738C4.10536 28.1862 4 27.9319 4 27.6667V5C4 4.20435 4.31607 3.44129 4.87868 2.87868C5.44129 2.31607 6.20435 2 7 2H17.6667C18.4623 2 19.2254 2.31607 19.788 2.87868C20.3506 3.44129 20.6667 4.20435 20.6667 5V12H22.3333C22.7273 12 23.1174 12.0776 23.4814 12.2284C23.8454 12.3791 24.1761 12.6001 24.4547 12.8787C24.7332 13.1573 24.9542 13.488 25.105 13.852C25.2557 14.2159 25.3333 14.606 25.3333 15V16.7333C24.5341 16.8966 23.8226 17.3473 23.3333 18V15C23.3333 14.7348 23.228 14.4804 23.0404 14.2929C22.8529 14.1054 22.5985 14 22.3333 14H19.6667C19.4014 14 19.1471 13.8946 18.9596 13.7071C18.772 13.5196 18.6667 13.2652 18.6667 13V5C18.6667 4.73478 18.5613 4.48043 18.3738 4.29289C18.1862 4.10536 17.9319 4 17.6667 4H7C6.73478 4 6.48043 4.10536 6.29289 4.29289C6.10536 4.48043 6 4.73478 6 5V26.6667H13.3707C13.4485 27.369 13.6652 28.0488 14.008 28.6667H5ZM8.66667 8C8.66667 7.64638 8.80714 7.30724 9.05719 7.05719C9.30724 6.80714 9.64638 6.66667 10 6.66667C10.3536 6.66667 10.6928 6.80714 10.9428 7.05719C11.1929 7.30724 11.3333 7.64638 11.3333 8C11.3333 8.35362 11.1929 8.69276 10.9428 8.94281C10.6928 9.19286 10.3536 9.33333 10 9.33333C9.64638 9.33333 9.30724 9.19286 9.05719 8.94281C8.80714 8.69276 8.66667 8.35362 8.66667 8ZM8.66667 17.3333C8.66667 16.9797 8.80714 16.6406 9.05719 16.3905C9.30724 16.1405 9.64638 16 10 16C10.3536 16 10.6928 16.1405 10.9428 16.3905C11.1929 16.6406 11.3333 16.9797 11.3333 17.3333C11.3333 17.687 11.1929 18.0261 10.9428 18.2761C10.6928 18.5262 10.3536 18.6667 10 18.6667C9.64638 18.6667 9.30724 18.5262 9.05719 18.2761C8.80714 18.0261 8.66667 17.687 8.66667 17.3333ZM14.6667 11.3333C14.313 11.3333 13.9739 11.4738 13.7239 11.7239C13.4738 11.9739 13.3333 12.313 13.3333 12.6667C13.3333 13.0203 13.4738 13.3594 13.7239 13.6095C13.9739 13.8595 14.313 14 14.6667 14C15.0203 14 15.3594 13.8595 15.6095 13.6095C15.8595 13.3594 16 13.0203 16 12.6667C16 12.313 15.8595 11.9739 15.6095 11.7239C15.3594 11.4738 15.0203 11.3333 14.6667 11.3333ZM13.3333 8C13.3333 7.64638 13.4738 7.30724 13.7239 7.05719C13.9739 6.80714 14.313 6.66667 14.6667 6.66667C15.0203 6.66667 15.3594 6.80714 15.6095 7.05719C15.8595 7.30724 16 7.64638 16 8C16 8.35362 15.8595 8.69276 15.6095 8.94281C15.3594 9.19286 15.0203 9.33333 14.6667 9.33333C14.313 9.33333 13.9739 9.19286 13.7239 8.94281C13.4738 8.69276 13.3333 8.35362 13.3333 8ZM10 11.3333C9.64638 11.3333 9.30724 11.4738 9.05719 11.7239C8.80714 11.9739 8.66667 12.313 8.66667 12.6667C8.66667 13.0203 8.80714 13.3594 9.05719 13.6095C9.30724 13.8595 9.64638 14 10 14C10.3536 14 10.6928 13.8595 10.9428 13.6095C11.1929 13.3594 11.3333 13.0203 11.3333 12.6667C11.3333 12.313 11.1929 11.9739 10.9428 11.7239C10.6928 11.4738 10.3536 11.3333 10 11.3333ZM19.3333 22C20.0406 22 20.7189 21.719 21.219 21.219C21.719 20.7189 22 20.0406 22 19.3333C22 18.6261 21.719 17.9478 21.219 17.4477C20.7189 16.9476 20.0406 16.6667 19.3333 16.6667C18.6261 16.6667 17.9478 16.9476 17.4477 17.4477C16.9476 17.9478 16.6667 18.6261 16.6667 19.3333C16.6667 20.0406 16.9476 20.7189 17.4477 21.219C17.9478 21.719 18.6261 22 19.3333 22ZM19.3333 30C22.756 30 24 27.9733 24 26C24 25.2928 23.719 24.6145 23.219 24.1144C22.7189 23.6143 22.0406 23.3333 21.3333 23.3333H17.3333C16.6261 23.3333 15.9478 23.6143 15.4477 24.1144C14.9476 24.6145 14.6667 25.2928 14.6667 26C14.6667 27.9733 15.9107 30 19.3333 30ZM24.676 28.6373C24.884 28.656 25.1031 28.6658 25.3333 28.6667C28.2667 28.6667 29.3333 27.0453 29.3333 25.4667C29.3333 24.9009 29.1086 24.3583 28.7085 23.9582C28.3084 23.5581 27.7658 23.3333 27.2 23.3333H24.3147C24.948 24.04 25.3333 24.976 25.3333 26C25.3333 26.8747 25.1413 27.8 24.676 28.6373ZM28 20C28 20.5304 27.7893 21.0391 27.4142 21.4142C27.0391 21.7893 26.5304 22 26 22C25.4696 22 24.9609 21.7893 24.5858 21.4142C24.2107 21.0391 24 20.5304 24 20C24 19.4696 24.2107 18.9609 24.5858 18.5858C24.9609 18.2107 25.4696 18 26 18C26.5304 18 27.0391 18.2107 27.4142 18.5858C27.7893 18.9609 28 19.4696 28 20Z" fill="black" fill-opacity="0.87"/>
</svg>
