<svg width="32" height="32" viewBox="0 0 32 32" fill="none" xmlns="http://www.w3.org/2000/svg">
<path d="M17.3333 8.33333C17.3333 8.68695 17.1929 9.02609 16.9428 9.27614C16.6928 9.52619 16.3536 9.66666 16 9.66666C15.6464 9.66666 15.3072 9.52619 15.0572 9.27614C14.8071 9.02609 14.6667 8.68695 14.6667 8.33333C14.6667 7.97971 14.8071 7.64057 15.0572 7.39052C15.3072 7.14047 15.6464 7 16 7C16.3536 7 16.6928 7.14047 16.9428 7.39052C17.1929 7.64057 17.3333 7.97971 17.3333 8.33333ZM17.376 3.1C16.9765 2.80829 16.4947 2.65109 16 2.65109C15.5053 2.65109 15.0235 2.80829 14.624 3.1L4.72933 10.32C3.42533 11.2707 4.09867 13.3333 5.71067 13.3333H6V21.0667C5.39792 21.3739 4.89249 21.8416 4.53955 22.4181C4.1866 22.9946 3.99987 23.6574 4 24.3333V26.3333C4 26.884 4.448 27.3333 5 27.3333H27C27.2652 27.3333 27.5196 27.228 27.7071 27.0404C27.8946 26.8529 28 26.5985 28 26.3333V24.3333C28.0001 23.6574 27.8134 22.9946 27.4605 22.4181C27.1075 21.8416 26.6021 21.3739 26 21.0667V13.3333H26.2893C27.9027 13.3333 28.5733 11.2707 27.2707 10.32L17.376 3.1ZM15.8027 4.71466C15.8598 4.67295 15.9286 4.65047 15.9993 4.65047C16.07 4.65047 16.1389 4.67295 16.196 4.71466L25.2667 11.3333H6.73333L15.8027 4.71466ZM24 13.3333V20.6667H21.3333V13.3333H24ZM19.3333 13.3333V20.6667H17V13.3333H19.3333ZM15 13.3333V20.6667H12.6667V13.3333H15ZM7.66667 22.6667H24.3333C25.2533 22.6667 26 23.4133 26 24.3333V25.3333H6V24.3333C6 23.4133 6.74667 22.6667 7.66667 22.6667ZM8 20.6667V13.3333H10.6667V20.6667H8Z" fill="black" fill-opacity="0.87"/>
</svg>
