<svg width="32" height="32" viewBox="0 0 32 32" fill="none" xmlns="http://www.w3.org/2000/svg">
<path d="M17.3333 8.34667C17.3332 8.70029 17.1925 9.03936 16.9423 9.28928C16.6922 9.5392 16.353 9.67951 15.9993 9.67933C15.6457 9.67916 15.3066 9.53851 15.0567 9.28834C14.8068 9.03816 14.6665 8.69896 14.6667 8.34533C14.6667 7.99171 14.8071 7.65257 15.0572 7.40252C15.3072 7.15248 15.6464 7.012 16 7.012C16.3536 7.012 16.6928 7.15248 16.9428 7.40252C17.1929 7.65257 17.3333 7.99171 17.3333 8.34533M17.376 3.11333C16.9765 2.82163 16.4947 2.66443 16 2.66443C15.5053 2.66443 15.0235 2.82163 14.624 3.11333L4.72933 10.3333C3.42533 11.2827 4.09867 13.344 5.71067 13.344H6V21.072C4.81333 21.6787 4 22.912 4 24.336V26.336C4.00035 26.601 4.10587 26.855 4.29336 27.0422C4.48086 27.2295 4.73501 27.3347 5 27.3347H14.6667V25.336H6V24.336C6 23.416 6.74667 22.6707 7.66667 22.6707H14.6667V22C14.6667 21.528 14.7653 21.0787 14.9427 20.6707H12.6667V13.3427H15V20.5453C15.1981 20.1364 15.4777 19.7723 15.8216 19.4754C16.1655 19.1784 16.5666 18.955 17 18.8187V13.3427H19.3333V15.4C19.8333 15.144 20.4 15 21 15H21.3333V13.3427H24V15H25.6667C25.7796 15 25.8907 15.0049 26 15.0147V13.3427H26.2893C27.9027 13.3427 28.5733 11.2813 27.2707 10.332L17.376 3.11333ZM15.8027 4.728C15.8598 4.68628 15.9286 4.6638 15.9993 4.6638C16.07 4.6638 16.1389 4.68628 16.196 4.728L25.2667 11.3413H6.73333L15.8027 4.728ZM8 20.6707V13.3427H10.6667V20.6707H8ZM18.6667 20H18C17.4696 20 16.9609 20.2107 16.5858 20.5858C16.2107 20.9609 16 21.4696 16 22V24H19.3333V23.6667C19.3333 23.4015 19.4387 23.1471 19.6262 22.9596C19.8138 22.772 20.0681 22.6667 20.3333 22.6667C20.5985 22.6667 20.8529 22.772 21.0404 22.9596C21.228 23.1471 21.3333 23.4015 21.3333 23.6667V24H25.3333V23.6667C25.3333 23.4015 25.4387 23.1471 25.6262 22.9596C25.8138 22.772 26.0681 22.6667 26.3333 22.6667C26.5985 22.6667 26.8529 22.772 27.0404 22.9596C27.228 23.1471 27.3333 23.4015 27.3333 23.6667V24H30.6667V22C30.6667 21.4696 30.4559 20.9609 30.0809 20.5858C29.7058 20.2107 29.1971 20 28.6667 20H28V18.6667C28 18.0478 27.7542 17.4543 27.3166 17.0168C26.879 16.5792 26.2855 16.3333 25.6667 16.3333H21C20.3812 16.3333 19.7877 16.5792 19.3501 17.0168C18.9125 17.4543 18.6667 18.0478 18.6667 18.6667V20ZM20.6667 18.6667C20.6667 18.5783 20.7018 18.4935 20.7643 18.431C20.8268 18.3685 20.9116 18.3333 21 18.3333H25.6667C25.7551 18.3333 25.8399 18.3685 25.9024 18.431C25.9649 18.4935 26 18.5783 26 18.6667V20H20.6667V18.6667ZM18 30.6667C17.4696 30.6667 16.9609 30.4559 16.5858 30.0809C16.2107 29.7058 16 29.1971 16 28.6667V26H19.3333V27C19.3333 27.2652 19.4387 27.5196 19.6262 27.7071C19.8138 27.8946 20.0681 28 20.3333 28C20.5985 28 20.8529 27.8946 21.0404 27.7071C21.228 27.5196 21.3333 27.2652 21.3333 27V26H25.3333V27C25.3333 27.2652 25.4387 27.5196 25.6262 27.7071C25.8138 27.8946 26.0681 28 26.3333 28C26.5985 28 26.8529 27.8946 27.0404 27.7071C27.228 27.5196 27.3333 27.2652 27.3333 27V26H30.6667V28.6667C30.6667 29.1971 30.4559 29.7058 30.0809 30.0809C29.7058 30.4559 29.1971 30.6667 28.6667 30.6667H18Z" fill="black" fill-opacity="0.87"/>
</svg>
