<svg width="32" height="32" viewBox="0 0 32 32" fill="none" xmlns="http://www.w3.org/2000/svg">
<path d="M23.6667 4C24.8159 4 25.9181 4.45655 26.7308 5.2692C27.5435 6.08186 28 7.18406 28 8.33333V23.6667C28 24.8159 27.5435 25.9181 26.7308 26.7308C25.9181 27.5435 24.8159 28 23.6667 28H8.33333C7.18406 28 6.08186 27.5435 5.2692 26.7308C4.45655 25.9181 4 24.8159 4 23.6667V8.33333C4 7.18406 4.45655 6.08186 5.2692 5.2692C6.08186 4.45655 7.18406 4 8.33333 4H23.6667ZM26 11.3333H6V23.6667C6 24.9547 7.04533 26 8.33333 26H23.6667C24.2855 26 24.879 25.7542 25.3166 25.3166C25.7542 24.879 26 24.2855 26 23.6667V11.3333ZM10.3333 19.3333C10.7754 19.3333 11.1993 19.5089 11.5118 19.8215C11.8244 20.1341 12 20.558 12 21C12 21.442 11.8244 21.866 11.5118 22.1785C11.1993 22.4911 10.7754 22.6667 10.3333 22.6667C9.89131 22.6667 9.46738 22.4911 9.15482 22.1785C8.84226 21.866 8.66667 21.442 8.66667 21C8.66667 20.558 8.84226 20.1341 9.15482 19.8215C9.46738 19.5089 9.89131 19.3333 10.3333 19.3333ZM16 19.3333C16.442 19.3333 16.866 19.5089 17.1785 19.8215C17.4911 20.1341 17.6667 20.558 17.6667 21C17.6667 21.442 17.4911 21.866 17.1785 22.1785C16.866 22.4911 16.442 22.6667 16 22.6667C15.558 22.6667 15.134 22.4911 14.8215 22.1785C14.5089 21.866 14.3333 21.442 14.3333 21C14.3333 20.558 14.5089 20.1341 14.8215 19.8215C15.134 19.5089 15.558 19.3333 16 19.3333ZM10.3333 14C10.7754 14 11.1993 14.1756 11.5118 14.4882C11.8244 14.8007 12 15.2246 12 15.6667C12 16.1087 11.8244 16.5326 11.5118 16.8452C11.1993 17.1577 10.7754 17.3333 10.3333 17.3333C9.89131 17.3333 9.46738 17.1577 9.15482 16.8452C8.84226 16.5326 8.66667 16.1087 8.66667 15.6667C8.66667 15.2246 8.84226 14.8007 9.15482 14.4882C9.46738 14.1756 9.89131 14 10.3333 14ZM16 14C16.442 14 16.866 14.1756 17.1785 14.4882C17.4911 14.8007 17.6667 15.2246 17.6667 15.6667C17.6667 16.1087 17.4911 16.5326 17.1785 16.8452C16.866 17.1577 16.442 17.3333 16 17.3333C15.558 17.3333 15.134 17.1577 14.8215 16.8452C14.5089 16.5326 14.3333 16.1087 14.3333 15.6667C14.3333 15.2246 14.5089 14.8007 14.8215 14.4882C15.134 14.1756 15.558 14 16 14ZM21.6667 14C22.1087 14 22.5326 14.1756 22.8452 14.4882C23.1577 14.8007 23.3333 15.2246 23.3333 15.6667C23.3333 16.1087 23.1577 16.5326 22.8452 16.8452C22.5326 17.1577 22.1087 17.3333 21.6667 17.3333C21.2246 17.3333 20.8007 17.1577 20.4882 16.8452C20.1756 16.5326 20 16.1087 20 15.6667C20 15.2246 20.1756 14.8007 20.4882 14.4882C20.8007 14.1756 21.2246 14 21.6667 14ZM23.6667 6H8.33333C7.71449 6 7.121 6.24583 6.68342 6.68342C6.24583 7.121 6 7.71449 6 8.33333V9.33333H26V8.33333C26 7.71449 25.7542 7.121 25.3166 6.68342C24.879 6.24583 24.2855 6 23.6667 6Z" fill="black" fill-opacity="0.87"/>
</svg>
