<svg width="32" height="32" viewBox="0 0 32 32" fill="none" xmlns="http://www.w3.org/2000/svg">
<path d="M26.6667 12.6067V12.536C26.6619 11.2261 26.3973 9.93015 25.8884 8.72315C25.3794 7.51615 24.6361 6.42208 23.7015 5.50423C22.767 4.58639 21.6596 3.863 20.4436 3.37594C19.2276 2.88888 17.9271 2.6478 16.6173 2.66668C16.4502 2.67122 16.2916 2.74155 16.176 2.86239C16.0604 2.98323 15.9971 3.14481 16 3.31201V12.6667C16 12.8435 16.0702 13.0131 16.1953 13.1381C16.3203 13.2631 16.4899 13.3333 16.6667 13.3333H26.02C26.368 13.3333 26.66 13.0653 26.6653 12.716L26.6667 12.6067ZM14 6.00001C14.0016 5.91301 13.9852 5.82661 13.952 5.74619C13.9188 5.66577 13.8694 5.59304 13.8069 5.53252C13.7443 5.472 13.67 5.42498 13.5886 5.39439C13.5071 5.36379 13.4202 5.35028 13.3333 5.35468C12.0233 5.44695 10.7442 5.79636 9.56917 6.38295C8.39414 6.96955 7.34615 7.78184 6.48504 8.77344C4.74595 10.7761 3.87364 13.3875 4.06 16.0333C4.24636 18.6791 5.47612 21.1425 7.47876 22.8816C9.4814 24.6207 12.0929 25.493 14.7387 25.3067C14.855 24.759 15.1075 24.2494 15.4728 23.825C15.8381 23.4006 16.3044 23.075 16.8286 22.8784C17.3529 22.6818 17.9183 22.6204 18.4726 22.6999C19.0268 22.7794 19.5521 22.9972 20 23.3333V22C20 21.5541 20.0895 21.1127 20.2631 20.7019C20.4368 20.2912 20.6911 19.9195 21.0109 19.6088C21.3308 19.2981 21.7098 19.0547 22.1255 18.8931C22.5411 18.7315 22.9849 18.655 23.4307 18.668C23.7336 17.8082 23.9175 16.911 23.9773 16.0013C23.9819 15.9144 23.9686 15.8275 23.9381 15.746C23.9077 15.6645 23.8608 15.5901 23.8005 15.5274C23.7401 15.4648 23.6674 15.4152 23.5871 15.3818C23.5067 15.3485 23.4203 15.3319 23.3333 15.3333H15.3333C14.9797 15.3333 14.6406 15.1929 14.3905 14.9428C14.1405 14.6928 14 14.3536 14 14V6.00001ZM26.6667 18C26.6667 17.4696 26.8774 16.9609 27.2525 16.5858C27.6275 16.2107 28.1362 16 28.6667 16C29.1971 16 29.7058 16.2107 30.0809 16.5858C30.4559 16.9609 30.6667 17.4696 30.6667 18V28.6667C30.6667 29.1971 30.4559 29.7058 30.0809 30.0809C29.7058 30.456 29.1971 30.6667 28.6667 30.6667C28.1362 30.6667 27.6275 30.456 27.2525 30.0809C26.8774 29.7058 26.6667 29.1971 26.6667 28.6667V18ZM23.3333 20C22.8029 20 22.2942 20.2107 21.9191 20.5858C21.544 20.9609 21.3333 21.4696 21.3333 22V28.6667C21.3333 29.1971 21.544 29.7058 21.9191 30.0809C22.2942 30.456 22.8029 30.6667 23.3333 30.6667C23.8638 30.6667 24.3725 30.456 24.7475 30.0809C25.1226 29.7058 25.3333 29.1971 25.3333 28.6667V22C25.3333 21.4696 25.1226 20.9609 24.7475 20.5858C24.3725 20.2107 23.8638 20 23.3333 20ZM18 24C17.4696 24 16.9609 24.2107 16.5858 24.5858C16.2107 24.9609 16 25.4696 16 26V28.6667C16 29.1971 16.2107 29.7058 16.5858 30.0809C16.9609 30.456 17.4696 30.6667 18 30.6667C18.5304 30.6667 19.0391 30.456 19.4142 30.0809C19.7893 29.7058 20 29.1971 20 28.6667V26C20 25.4696 19.7893 24.9609 19.4142 24.5858C19.0391 24.2107 18.5304 24 18 24Z" fill="black" fill-opacity="0.87"/>
</svg>
