<svg width="32" height="32" viewBox="0 0 32 32" fill="none" xmlns="http://www.w3.org/2000/svg">
<path d="M16 2.666C23.364 2.666 29.3333 8.63533 29.3333 15.9993C29.3333 23.3633 23.364 29.3327 16 29.3327C13.872 29.3356 11.7744 28.8271 9.88397 27.85L4.78264 29.2727C4.49803 29.3521 4.19741 29.3544 3.9116 29.2794C3.62579 29.2044 3.36506 29.0548 3.15612 28.8458C2.94718 28.6369 2.79754 28.3762 2.72254 28.0904C2.64754 27.8046 2.64988 27.5039 2.7293 27.2193L4.1533 22.122C3.17377 20.2299 2.66387 18.1299 2.66664 15.9993C2.66664 8.63533 8.63597 2.666 16 2.666ZM16 4.666C12.9942 4.666 10.1115 5.86004 7.98609 7.98545C5.86068 10.1109 4.66664 12.9935 4.66664 15.9993C4.66664 17.9593 5.16397 19.8433 6.0973 21.5153L6.2973 21.8753L4.81464 27.1873L10.1306 25.7047L10.4906 25.9047C12.0031 26.7456 13.6882 27.229 15.4164 27.3177C17.1447 27.4065 18.8704 27.0983 20.4611 26.4168C22.0518 25.7353 23.4653 24.6985 24.5932 23.386C25.7211 22.0735 26.5335 20.5201 26.9681 18.845C27.4026 17.1699 27.4477 15.4175 27.1 13.7222C26.7523 12.027 26.021 10.4338 24.9622 9.06502C23.9033 7.69619 22.5451 6.58802 20.9915 5.82549C19.438 5.06297 17.7305 4.66633 16 4.666ZM11.6666 17.3327H17.664C17.9173 17.3327 18.1612 17.429 18.3464 17.602C18.5315 17.7749 18.6441 18.0117 18.6613 18.2645C18.6786 18.5173 18.5993 18.7672 18.4394 18.9637C18.2795 19.1603 18.051 19.2888 17.8 19.3233L17.664 19.3327H11.6666C11.4133 19.3326 11.1694 19.2363 10.9842 19.0634C10.7991 18.8904 10.6865 18.6536 10.6693 18.4008C10.652 18.148 10.7313 17.8981 10.8912 17.7016C11.0511 17.5051 11.2796 17.3765 11.5306 17.342L11.6666 17.3327ZM11.6666 12.666H20.34C20.5932 12.6664 20.8369 12.7629 21.0218 12.936C21.2066 13.109 21.319 13.3458 21.3361 13.5985C21.3532 13.8512 21.2737 14.1009 21.1139 14.2973C20.954 14.4937 20.7255 14.6221 20.4746 14.6567L20.34 14.666H11.6666C11.4133 14.6659 11.1694 14.5697 10.9842 14.3967C10.7991 14.2237 10.6865 13.9869 10.6693 13.7342C10.652 13.4814 10.7313 13.2315 10.8912 13.0349C11.0511 12.8384 11.2796 12.7099 11.5306 12.6753L11.6666 12.666Z" fill="black" fill-opacity="0.87"/>
</svg>
