<svg width="32" height="32" viewBox="0 0 32 32" fill="none" xmlns="http://www.w3.org/2000/svg">
<path d="M10.8573 8.40933C11.436 8.1 12.0587 8.00133 12.6653 8.00133C13.3667 8.00133 14.1827 8.232 14.84 8.77067C15.5307 9.336 15.9987 10.2027 15.9987 11.3333C15.9987 12.6333 15.08 13.3387 14.5627 13.736L14.4493 13.824C13.884 14.268 13.6653 14.5053 13.6653 15C13.6653 15.2652 13.56 15.5196 13.3724 15.7071C13.1849 15.8946 12.9305 16 12.6653 16C12.4001 16 12.1458 15.8946 11.9582 15.7071C11.7707 15.5196 11.6653 15.2652 11.6653 15C11.6653 13.488 12.6133 12.7227 13.2147 12.2507C13.8987 11.7133 13.9987 11.5933 13.9987 11.3333C13.9987 10.804 13.8 10.504 13.572 10.3187C13.3145 10.1139 12.9956 10.0017 12.6667 10C12.2733 10 12.0027 10.0653 11.8 10.1733C11.6093 10.2747 11.408 10.4533 11.2133 10.8133C11.0869 11.0467 10.873 11.2203 10.6185 11.296C10.3641 11.3716 10.0901 11.3431 9.85666 11.2167C9.62327 11.0902 9.44966 10.8763 9.37402 10.6219C9.29838 10.3674 9.32691 10.0934 9.45333 9.86C9.80533 9.212 10.2693 8.72267 10.8587 8.408M12.6653 20C13.0189 20 13.3581 19.8595 13.6081 19.6095C13.8582 19.3594 13.9987 19.0203 13.9987 18.6667C13.9987 18.313 13.8582 17.9739 13.6081 17.7239C13.3581 17.4738 13.0189 17.3333 12.6653 17.3333C12.3117 17.3333 11.9726 17.4738 11.7225 17.7239C11.4725 17.9739 11.332 18.313 11.332 18.6667C11.332 19.0203 11.4725 19.3594 11.7225 19.6095C11.9726 19.8595 12.3117 20 12.6653 20ZM12.6653 4C10.9833 3.99972 9.32843 4.4237 7.85378 5.23272C6.37913 6.04174 5.13236 7.20965 4.22886 8.62838C3.32535 10.0471 2.7943 11.6708 2.68484 13.3493C2.57539 15.0277 2.89106 16.7066 3.60266 18.2307L2.63599 22.02C2.56504 22.2983 2.56723 22.5903 2.64236 22.8676C2.71748 23.1448 2.86298 23.3979 3.06475 23.6024C3.26652 23.8068 3.5177 23.9557 3.79393 24.0344C4.07017 24.1132 4.36207 24.1193 4.64133 24.052C5.64133 23.812 7.17866 23.4427 8.54933 23.116C9.90895 23.7291 11.3885 24.0303 12.8796 23.9976C14.3707 23.9649 15.8356 23.599 17.167 22.9268C18.4984 22.2546 19.6626 21.2931 20.5743 20.1127C21.486 18.9323 22.1221 17.563 22.4361 16.1049C22.75 14.6469 22.7338 13.1371 22.3887 11.6861C22.0436 10.2351 21.3783 8.87966 20.4415 7.71909C19.5047 6.55852 18.3202 5.62219 16.9747 4.97868C15.6292 4.33517 14.1568 4.00078 12.6653 4ZM4.66533 14C4.66585 12.2604 5.2334 10.5684 6.28197 9.18031C7.33054 7.79225 8.80298 6.7838 10.4762 6.30777C12.1494 5.83174 13.9322 5.91408 15.5544 6.5423C17.1766 7.17052 18.5498 8.31039 19.466 9.78919C20.3821 11.268 20.7913 13.0051 20.6315 14.7374C20.4717 16.4696 19.7516 18.1026 18.5803 19.3888C17.4091 20.675 15.8505 21.5444 14.1407 21.8652C12.4309 22.186 10.6632 21.9408 9.10533 21.1667L8.78133 21.0053L8.42799 21.0893L4.71066 21.9787C4.97733 20.9387 5.32666 19.5627 5.63066 18.368L5.72399 18L5.55066 17.6627C4.96859 16.5296 4.66419 15.2739 4.66533 14ZM19.3333 28C16.811 28.003 14.3812 27.0501 12.5333 25.3333H12.6667C13.624 25.3333 14.5533 25.2147 15.4413 24.9907C16.5933 25.6333 17.9213 26 19.3347 26C20.6147 26 21.8227 25.7 22.8947 25.1667L23.2173 25.0053L23.5707 25.0893C24.8 25.3827 26.1907 25.6827 27.224 25.9027C26.9488 24.722 26.6635 23.5437 26.368 22.368L26.2747 22L26.448 21.6627C27.0305 20.5297 27.3341 19.274 27.3333 18C27.3334 16.6626 26.9982 15.3465 26.3584 14.1721C25.7185 12.9977 24.7944 12.0024 23.6707 11.2773C23.4362 10.3248 23.0775 9.40714 22.604 8.548C23.9276 9.00634 25.1403 9.73753 26.1634 10.6943C27.1865 11.651 27.9973 12.8119 28.5433 14.1019C29.0893 15.3918 29.3583 16.7821 29.333 18.1826C29.3076 19.5831 28.9884 20.9627 28.396 22.232C28.7333 23.576 29.076 25.032 29.292 25.9693C29.3554 26.241 29.3493 26.5243 29.2741 26.793C29.199 27.0617 29.0573 27.3071 28.8622 27.5065C28.667 27.7059 28.4247 27.8528 28.1577 27.9337C27.8907 28.0146 27.6077 28.0269 27.3347 27.9693C26.0368 27.6994 24.7421 27.415 23.4507 27.116C22.1565 27.6996 20.753 28.0009 19.3333 28Z" fill="black" fill-opacity="0.87"/>
</svg>
