<svg width="32" height="32" viewBox="0 0 32 32" fill="none" xmlns="http://www.w3.org/2000/svg">
<path d="M4 8.33333C4 7.18406 4.45655 6.08186 5.2692 5.2692C6.08186 4.45655 7.18406 4 8.33333 4H23.6667C24.8159 4 25.9181 4.45655 26.7308 5.2692C27.5435 6.08186 28 7.18406 28 8.33333V23.6667C28 24.8159 27.5435 25.9181 26.7308 26.7308C25.9181 27.5435 24.8159 28 23.6667 28H8.33333C7.18406 28 6.08186 27.5435 5.2692 26.7308C4.45655 25.9181 4 24.8159 4 23.6667V8.33333ZM8.33333 6.66667C7.41333 6.66667 6.66667 7.41333 6.66667 8.33333V23.6667C6.66667 24.5867 7.41333 25.3333 8.33333 25.3333H23.6667C24.5867 25.3333 25.3333 24.5867 25.3333 23.6667V8.33333C25.3333 7.41333 24.5867 6.66667 23.6667 6.66667H8.33333Z" fill="black" fill-opacity="0.87"/>
</svg>
