<svg width="32" height="32" viewBox="0 0 32 32" fill="none" xmlns="http://www.w3.org/2000/svg">
<path d="M6.04 16.2935C5.85043 16.1168 5.5997 16.0206 5.34064 16.0252C5.08157 16.0298 4.83439 16.1347 4.65117 16.318C4.46795 16.5012 4.363 16.7484 4.35843 17.0074C4.35386 17.2665 4.45003 17.5172 4.62667 17.7068L10.6267 23.7068C10.8142 23.8941 11.0683 23.9992 11.3333 23.9992C11.5983 23.9992 11.8525 23.8941 12.04 23.7068L26.7067 9.04012C26.8833 8.85055 26.9795 8.59983 26.9749 8.34076C26.9703 8.08169 26.8654 7.83451 26.6822 7.65129C26.4989 7.46807 26.2518 7.36313 25.9927 7.35855C25.7336 7.35398 25.4829 7.45015 25.2933 7.62679L11.3333 21.5868L6.04 16.2935Z" fill="black" fill-opacity="0.87"/>
</svg>
