<svg width="32" height="32" viewBox="0 0 32 32" fill="none" xmlns="http://www.w3.org/2000/svg">
<path d="M16 2.66667C23.364 2.66667 29.3334 8.636 29.3334 16C29.3334 23.364 23.364 29.3333 16 29.3333C8.63602 29.3333 2.66669 23.364 2.66669 16C2.66669 8.636 8.63602 2.66667 16 2.66667ZM20.2934 11.96L14.3334 17.92L11.7067 15.2933C11.5171 15.1167 11.2664 15.0205 11.0073 15.0251C10.7483 15.0297 10.5011 15.1346 10.3179 15.3178C10.1346 15.5011 10.0297 15.7482 10.0251 16.0073C10.0205 16.2664 10.1167 16.5171 10.2934 16.7067L13.6267 20.04C13.8142 20.2273 14.0684 20.3325 14.3334 20.3325C14.5984 20.3325 14.8525 20.2273 15.04 20.04L21.7067 13.3733C21.8049 13.2818 21.8837 13.1714 21.9384 13.0487C21.993 12.9261 22.0224 12.7936 22.0248 12.6594C22.0272 12.5251 22.0025 12.3917 21.9522 12.2672C21.9019 12.1427 21.827 12.0296 21.7321 11.9346C21.6371 11.8397 21.524 11.7648 21.3995 11.7145C21.275 11.6642 21.1416 11.6395 21.0073 11.6419C20.8731 11.6443 20.7406 11.6736 20.618 11.7283C20.4953 11.783 20.3849 11.8618 20.2934 11.96Z" fill="black" fill-opacity="0.87"/>
</svg>
