<svg width="32" height="32" viewBox="0 0 32 32" fill="none" xmlns="http://www.w3.org/2000/svg">
<path d="M20.707 5.293C20.8945 5.48053 20.9998 5.73484 20.9998 6C20.9998 6.26516 20.8945 6.51947 20.707 6.707L11.414 16L20.707 25.293C20.8892 25.4816 20.99 25.7342 20.9877 25.9964C20.9854 26.2586 20.8803 26.5094 20.6948 26.6948C20.5094 26.8802 20.2586 26.9854 19.9964 26.9877C19.7342 26.99 19.4816 26.8892 19.293 26.707L9.29303 16.707C9.10556 16.5195 9.00024 16.2652 9.00024 16C9.00024 15.7348 9.10556 15.4805 9.29303 15.293L19.293 5.293C19.4806 5.10553 19.7349 5.00021 20 5.00021C20.2652 5.00021 20.5195 5.10553 20.707 5.293Z" fill="black" fill-opacity="0.87"/>
</svg>
