<svg width="32" height="32" viewBox="0 0 32 32" fill="none" xmlns="http://www.w3.org/2000/svg">
<path d="M5.293 20.707C5.48053 20.8945 5.73484 20.9998 6 20.9998C6.26516 20.9998 6.51947 20.8945 6.707 20.707L16 11.414L25.293 20.707C25.4816 20.8892 25.7342 20.99 25.9964 20.9877C26.2586 20.9854 26.5094 20.8802 26.6948 20.6948C26.8802 20.5094 26.9854 20.2586 26.9877 19.9964C26.99 19.7342 26.8892 19.4816 26.707 19.293L16.707 9.293C16.5195 9.10553 16.2652 9.00021 16 9.00021C15.7348 9.00021 15.4805 9.10553 15.293 9.293L5.293 19.293C5.10553 19.4805 5.00021 19.7348 5.00021 20C5.00021 20.2652 5.10553 20.5195 5.293 20.707Z" fill="black" fill-opacity="0.87"/>
</svg>
