<svg width="32" height="32" viewBox="0 0 32 32" fill="none" xmlns="http://www.w3.org/2000/svg">
<path d="M5.293 11.293C5.48053 11.1055 5.73484 11.0002 6 11.0002C6.26516 11.0002 6.51947 11.1055 6.707 11.293L16 20.586L25.293 11.293C25.4816 11.1108 25.7342 11.01 25.9964 11.0123C26.2586 11.0146 26.5094 11.1198 26.6948 11.3052C26.8802 11.4906 26.9854 11.7414 26.9877 12.0036C26.99 12.2658 26.8892 12.5184 26.707 12.707L16.707 22.707C16.5195 22.8945 16.2652 22.9998 16 22.9998C15.7348 22.9998 15.4805 22.8945 15.293 22.707L5.293 12.707C5.10553 12.5195 5.00021 12.2652 5.00021 12C5.00021 11.7348 5.10553 11.4805 5.293 11.293Z" fill="black" fill-opacity="0.87"/>
</svg>
