<svg width="32" height="32" viewBox="0 0 32 32" fill="none" xmlns="http://www.w3.org/2000/svg">
<path d="M14.6667 28.6667V27.256C15.104 27.3075 15.5485 27.3333 16 27.3333C18.1901 27.3332 20.3332 26.6986 22.1702 25.5062C24.0071 24.3138 25.4593 22.6147 26.351 20.6144C27.2427 18.6141 27.5357 16.3983 27.1946 14.235C26.8536 12.0717 25.893 10.0535 24.4292 8.42458C22.9653 6.79566 21.0608 5.62576 18.9461 5.05638C16.8313 4.487 14.5969 4.54253 12.5131 5.21626C10.4292 5.88999 8.58524 7.15306 7.2041 8.85269C5.82296 10.5523 4.96385 12.6157 4.73068 14.7933C3.72895 15.4656 3.0265 16.4997 2.77068 17.6787C2.70072 17.1218 2.66598 16.5612 2.66668 16C2.66668 8.63599 8.63601 2.66666 16 2.66666C23.364 2.66666 29.3333 8.63599 29.3333 16C29.3333 23.364 23.364 29.3333 16 29.3333C15.5316 29.3333 15.0693 29.3098 14.6133 29.2627C14.6489 29.0689 14.6667 28.8702 14.6667 28.6667ZM15.9907 8.86399C15.9561 8.61299 15.8276 8.38446 15.6311 8.22457C15.4345 8.06468 15.1846 7.98535 14.9319 8.00262C14.6791 8.01989 14.4423 8.13247 14.2693 8.3176C14.0963 8.50274 14.0001 8.74663 14 8.99999V17L14.0093 17.136C14.0422 17.3754 14.1607 17.5948 14.3428 17.7536C14.5249 17.9125 14.7584 18 15 18H20.3333L20.4693 17.9907C20.7203 17.9561 20.9489 17.8276 21.1088 17.6311C21.2687 17.4345 21.348 17.1846 21.3307 16.9318C21.3134 16.6791 21.2009 16.4423 21.0157 16.2693C20.8306 16.0963 20.5867 16.0001 20.3333 16H16V8.99999L15.9907 8.86399ZM4.00001 20V18.6667C4.00001 17.7826 4.3512 16.9348 4.97632 16.3096C5.60144 15.6845 6.44929 15.3333 7.33334 15.3333C8.2174 15.3333 9.06525 15.6845 9.69037 16.3096C10.3155 16.9348 10.6667 17.7826 10.6667 18.6667V20H11.3333C11.8638 20 12.3725 20.2107 12.7476 20.5858C13.1226 20.9608 13.3333 21.4696 13.3333 22V28.6667C13.3333 29.1971 13.1226 29.7058 12.7476 30.0809C12.3725 30.4559 11.8638 30.6667 11.3333 30.6667H3.33334C2.80291 30.6667 2.2942 30.4559 1.91913 30.0809C1.54406 29.7058 1.33334 29.1971 1.33334 28.6667V22C1.33334 21.4696 1.54406 20.9608 1.91913 20.5858C2.2942 20.2107 2.80291 20 3.33334 20H4.00001ZM6.00001 18.6667V20H8.66668V18.6667C8.66668 18.313 8.5262 17.9739 8.27615 17.7238C8.0261 17.4738 7.68697 17.3333 7.33334 17.3333C6.97972 17.3333 6.64058 17.4738 6.39053 17.7238C6.14049 17.9739 6.00001 18.313 6.00001 18.6667ZM8.66668 25.3333C8.66668 24.9797 8.5262 24.6406 8.27615 24.3905C8.0261 24.1405 7.68697 24 7.33334 24C6.97972 24 6.64058 24.1405 6.39053 24.3905C6.14049 24.6406 6.00001 24.9797 6.00001 25.3333C6.00001 25.6869 6.14049 26.0261 6.39053 26.2761C6.64058 26.5262 6.97972 26.6667 7.33334 26.6667C7.68697 26.6667 8.0261 26.5262 8.27615 26.2761C8.5262 26.0261 8.66668 25.6869 8.66668 25.3333Z" fill="black" fill-opacity="0.87"/>
</svg>
