<svg width="32" height="32" viewBox="0 0 32 32" fill="none" xmlns="http://www.w3.org/2000/svg">
<path d="M4.66666 16C4.66666 12.9942 5.86071 10.1115 7.98612 7.98611C10.1115 5.8607 12.9942 4.66666 16 4.66666C19.0058 4.66666 21.8885 5.8607 24.0139 7.98611C26.1393 10.1115 27.3333 12.9942 27.3333 16C27.3333 19.0058 26.1393 21.8885 24.0139 24.0139C21.8885 26.1393 19.0058 27.3333 16 27.3333C12.9942 27.3333 10.1115 26.1393 7.98612 24.0139C5.86071 21.8885 4.66666 19.0058 4.66666 16ZM16 2.66666C8.636 2.66666 2.66666 8.63599 2.66666 16C2.66666 23.364 8.636 29.3333 16 29.3333C23.364 29.3333 29.3333 23.364 29.3333 16C29.3333 8.63599 23.364 2.66666 16 2.66666ZM15.9907 8.86399C15.9561 8.61299 15.8276 8.38446 15.6311 8.22457C15.4345 8.06468 15.1846 7.98535 14.9318 8.00262C14.6791 8.01989 14.4423 8.13247 14.2693 8.3176C14.0963 8.50273 14.0001 8.74662 14 8.99999V17L14.0093 17.136C14.0422 17.3754 14.1606 17.5948 14.3428 17.7536C14.5249 17.9125 14.7583 18 15 18H20.3333L20.4693 17.9907C20.7203 17.9561 20.9489 17.8276 21.1088 17.6311C21.2686 17.4345 21.348 17.1846 21.3307 16.9318C21.3134 16.6791 21.2009 16.4423 21.0157 16.2693C20.8306 16.0963 20.5867 16.0001 20.3333 16H16V8.99999L15.9907 8.86399Z" fill="black" fill-opacity="0.87"/>
</svg>
