<svg width="32" height="32" viewBox="0 0 32 32" fill="none" xmlns="http://www.w3.org/2000/svg">
<path d="M6.00001 14.6667C6.00001 12.4252 6.6647 10.234 7.91002 8.37021C9.15534 6.50646 10.9254 5.05384 12.9963 4.19604C15.0672 3.33825 17.3459 3.11381 19.5444 3.55111C21.7428 3.98841 23.7622 5.06781 25.3472 6.6528C26.9322 8.2378 28.0116 10.2572 28.4489 12.4557C28.8862 14.6541 28.6618 16.9329 27.804 19.0038C26.9462 21.0747 25.4936 22.8447 23.6298 24.09C21.7661 25.3353 19.5749 26 17.3333 26V28C24.6973 28 30.6667 22.0307 30.6667 14.6667C30.6667 7.30268 24.6973 1.33334 17.3333 1.33334C9.96934 1.33334 4.00001 7.30268 4.00001 14.6667C4.00001 14.9405 4.00801 15.2133 4.02401 15.4853C4.58786 15.0262 5.27588 14.7458 6.00001 14.68V14.6667ZM17.324 7.53068C17.2895 7.27968 17.161 7.05114 16.9644 6.89125C16.7679 6.73136 16.518 6.65204 16.2652 6.66931C16.0124 6.68658 15.7756 6.79915 15.6026 6.98429C15.4297 7.16942 15.3334 7.41331 15.3333 7.66668V15.6667L15.3427 15.8027C15.3755 16.0421 15.494 16.2615 15.6761 16.4203C15.8582 16.5792 16.0917 16.6667 16.3333 16.6667H21.6667L21.8027 16.6573C22.0537 16.6228 22.2822 16.4943 22.4421 16.2977C22.602 16.1012 22.6813 15.8513 22.664 15.5985C22.6468 15.3457 22.5342 15.1089 22.3491 14.936C22.1639 14.763 21.92 14.6668 21.6667 14.6667H17.3333V7.66668L17.324 7.53068ZM11 18H6.33334C6.24494 18 6.16015 18.0351 6.09764 18.0976C6.03513 18.1602 6.00001 18.2449 6.00001 18.3333V20H11.3333V18.3333C11.3333 18.2449 11.2982 18.1602 11.2357 18.0976C11.1732 18.0351 11.0884 18 11 18ZM4.00001 20V18.3333C4.00001 17.0453 5.04534 16 6.33334 16H11C12.288 16 13.3333 17.0453 13.3333 18.3333V20H14C14.5304 20 15.0392 20.2107 15.4142 20.5858C15.7893 20.9609 16 21.4696 16 22V24H13.3333V23.3333C13.3333 23.1565 13.2631 22.987 13.1381 22.8619C13.0131 22.7369 12.8435 22.6667 12.6667 22.6667C12.4899 22.6667 12.3203 22.7369 12.1953 22.8619C12.0702 22.987 12 23.1565 12 23.3333V24H5.33334V23.3333C5.33334 23.1565 5.26311 22.987 5.13808 22.8619C5.01306 22.7369 4.84349 22.6667 4.66668 22.6667C4.48987 22.6667 4.3203 22.7369 4.19527 22.8619C4.07025 22.987 4.00001 23.1565 4.00001 23.3333V24H1.33334V22C1.33334 21.4696 1.54406 20.9609 1.91913 20.5858C2.2942 20.2107 2.80291 20 3.33334 20H4.00001ZM12 26V25.3333H5.33334V26C5.33334 26.1768 5.26311 26.3464 5.13808 26.4714C5.01306 26.5964 4.84349 26.6667 4.66668 26.6667C4.48987 26.6667 4.3203 26.5964 4.19527 26.4714C4.07025 26.3464 4.00001 26.1768 4.00001 26V25.3333H1.33334V28.6667C1.33334 29.1971 1.54406 29.7058 1.91913 30.0809C2.2942 30.456 2.80291 30.6667 3.33334 30.6667H14C14.5304 30.6667 15.0392 30.456 15.4142 30.0809C15.7893 29.7058 16 29.1971 16 28.6667V25.3333H13.3333V26C13.3333 26.1768 13.2631 26.3464 13.1381 26.4714C13.0131 26.5964 12.8435 26.6667 12.6667 26.6667C12.4899 26.6667 12.3203 26.5964 12.1953 26.4714C12.0702 26.3464 12 26.1768 12 26Z" fill="black" fill-opacity="0.87"/>
</svg>
