<svg width="32" height="32" viewBox="0 0 32 32" fill="none" xmlns="http://www.w3.org/2000/svg">
<path d="M26.3333 5.33333C27.129 5.33333 27.892 5.6494 28.4546 6.21201C29.0173 6.77462 29.3333 7.53768 29.3333 8.33333V23.6733C29.3333 24.469 29.0173 25.232 28.4546 25.7946C27.892 26.3573 27.129 26.6733 26.3333 26.6733H5.66666C5.27269 26.6733 4.88258 26.5957 4.51861 26.445C4.15463 26.2942 3.82391 26.0732 3.54534 25.7946C3.26676 25.5161 3.04578 25.1854 2.89502 24.8214C2.74425 24.4574 2.66666 24.0673 2.66666 23.6733V8.33333C2.66666 7.53768 2.98273 6.77462 3.54534 6.21201C4.10795 5.6494 4.87101 5.33333 5.66666 5.33333H26.3333ZM26.3333 7.33333H5.66666C5.40144 7.33333 5.14709 7.43868 4.95955 7.62622C4.77201 7.81376 4.66666 8.06811 4.66666 8.33333V23.6733C4.66666 24.2253 5.11466 24.6733 5.66666 24.6733H26.3333C26.5985 24.6733 26.8529 24.568 27.0404 24.3804C27.228 24.1929 27.3333 23.9385 27.3333 23.6733V8.33333C27.3333 8.06811 27.228 7.81376 27.0404 7.62622C26.8529 7.43868 26.5985 7.33333 26.3333 7.33333ZM13 16.6667C13.2652 16.6667 13.5196 16.772 13.7071 16.9596C13.8946 17.1471 14 17.4014 14 17.6667V18.324L13.9893 18.468C13.772 19.952 12.5307 20.668 10.6667 20.668C8.80266 20.668 7.55999 19.952 7.34399 18.468L7.33332 18.3213V17.6667C7.33332 17.4014 7.43868 17.1471 7.62622 16.9596C7.81375 16.772 8.06811 16.6667 8.33332 16.6667H13ZM17.6693 17.328H23.6667C23.92 17.3281 24.1639 17.4243 24.349 17.5973C24.5342 17.7703 24.6468 18.0071 24.664 18.2598C24.6813 18.5126 24.602 18.7625 24.4421 18.9591C24.2822 19.1556 24.0537 19.2841 23.8027 19.3187L23.6667 19.328H17.6693C17.416 19.3279 17.1721 19.2317 16.9869 19.0587C16.8018 18.8857 16.6892 18.6489 16.672 18.3962C16.6547 18.1434 16.734 17.8935 16.8939 17.6969C17.0538 17.5004 17.2823 17.3719 17.5333 17.3373L17.6693 17.328ZM10.6667 11.336C11.1971 11.336 11.7058 11.5467 12.0809 11.9218C12.4559 12.2969 12.6667 12.8056 12.6667 13.336C12.6667 13.8664 12.4559 14.3751 12.0809 14.7502C11.7058 15.1253 11.1971 15.336 10.6667 15.336C10.1362 15.336 9.62751 15.1253 9.25244 14.7502C8.87737 14.3751 8.66666 13.8664 8.66666 13.336C8.66666 12.8056 8.87737 12.2969 9.25244 11.9218C9.62751 11.5467 10.1362 11.336 10.6667 11.336ZM17.6693 12.6667H23.6667C23.92 12.6667 24.1639 12.763 24.349 12.936C24.5342 13.1089 24.6468 13.3457 24.664 13.5985C24.6813 13.8513 24.602 14.1012 24.4421 14.2977C24.2822 14.4943 24.0537 14.6228 23.8027 14.6573L23.6667 14.6667H17.6693C17.416 14.6666 17.1721 14.5703 16.9869 14.3974C16.8018 14.2244 16.6892 13.9876 16.672 13.7348C16.6547 13.482 16.734 13.2321 16.8939 13.0356C17.0538 12.8391 17.2823 12.7105 17.5333 12.676L17.6693 12.6667Z" fill="black" fill-opacity="0.87"/>
</svg>
