<svg width="32" height="32" viewBox="0 0 32 32" fill="none" xmlns="http://www.w3.org/2000/svg">
<path d="M7.33731 6.16934L7.33331 9V23.0053C7.33331 24.1546 7.78986 25.2568 8.60252 26.0695C9.41517 26.8821 10.5174 27.3387 11.6666 27.3387H23.1546C22.9478 27.9237 22.5646 28.4302 22.0579 28.7884C21.5512 29.1466 20.9459 29.3389 20.3253 29.3387H11.6666C9.98694 29.3387 8.37603 28.6714 7.1883 27.4837C6.00057 26.2959 5.33331 24.685 5.33331 23.0053V9C5.33331 7.69334 6.16931 6.58 7.33731 6.16934ZM23.6666 2.66667C24.0606 2.66667 24.4507 2.74427 24.8147 2.89503C25.1787 3.0458 25.5094 3.26678 25.788 3.54535C26.0665 3.82393 26.2875 4.15464 26.4383 4.51862C26.5891 4.8826 26.6666 5.27271 26.6666 5.66667V23C26.6666 23.394 26.5891 23.7841 26.4383 24.1481C26.2875 24.512 26.0665 24.8427 25.788 25.1213C25.5094 25.3999 25.1787 25.6209 24.8147 25.7716C24.4507 25.9224 24.0606 26 23.6666 26H11.6666C10.871 26 10.1079 25.6839 9.54533 25.1213C8.98272 24.5587 8.66665 23.7957 8.66665 23V5.66667C8.66665 4.87102 8.98272 4.10796 9.54533 3.54535C10.1079 2.98274 10.871 2.66667 11.6666 2.66667H23.6666ZM23.6666 4.66667H11.6666C11.4014 4.66667 11.1471 4.77203 10.9595 4.95956C10.772 5.1471 10.6666 5.40146 10.6666 5.66667V23C10.6666 23.552 11.1146 24 11.6666 24H23.6666C23.9319 24 24.1862 23.8946 24.3738 23.7071C24.5613 23.5196 24.6666 23.2652 24.6666 23V5.66667C24.6666 5.40146 24.5613 5.1471 24.3738 4.95956C24.1862 4.77203 23.9319 4.66667 23.6666 4.66667Z" fill="black" fill-opacity="0.87"/>
</svg>
