<svg width="32" height="32" viewBox="0 0 32 32" fill="none" xmlns="http://www.w3.org/2000/svg">
<path d="M2.66669 11C2.66669 9.85073 3.12323 8.74853 3.93589 7.93587C4.74855 7.12321 5.85075 6.66666 7.00002 6.66666H25C25.5691 6.66666 26.1326 6.77875 26.6583 6.99652C27.1841 7.21429 27.6618 7.53348 28.0642 7.93587C28.4665 8.33826 28.7857 8.81596 29.0035 9.3417C29.2213 9.86745 29.3334 10.4309 29.3334 11V14.6667H4.66669V21C4.66669 22.288 5.71202 23.3333 7.00002 23.3333H14.6667C14.6685 24.0231 14.7458 24.6898 14.8987 25.3333H7.00002C5.85075 25.3333 4.74855 24.8768 3.93589 24.0641C3.12323 23.2515 2.66669 22.1493 2.66669 21V11ZM27.3334 12.6667V11C27.3334 10.3812 27.0875 9.78767 26.6499 9.35008C26.2124 8.9125 25.6189 8.66666 25 8.66666H7.00002C6.38118 8.66666 5.78769 8.9125 5.3501 9.35008C4.91252 9.78767 4.66669 10.3812 4.66669 11V12.6667H27.3334Z" fill="black" fill-opacity="0.87"/>
<path d="M23.3334 16C25.2783 16 27.1435 16.7726 28.5188 18.1479C29.8941 19.5231 30.6667 21.3884 30.6667 23.3333C30.6667 25.2783 29.8941 27.1435 28.5188 28.5188C27.1435 29.894 25.2783 30.6667 23.3334 30.6667C21.3884 30.6667 19.5232 29.894 18.1479 28.5188C16.7726 27.1435 16 25.2783 16 23.3333C16 21.3884 16.7726 19.5231 18.1479 18.1479C19.5232 16.7726 21.3884 16 23.3334 16ZM23.3334 18.6653C23.1565 18.6653 22.987 18.7356 22.8619 18.8606C22.7369 18.9856 22.6667 19.1552 22.6667 19.332V22.6667H19.3267C19.1499 22.6667 18.9803 22.7369 18.8553 22.8619C18.7303 22.9869 18.66 23.1565 18.66 23.3333C18.66 23.5101 18.7303 23.6797 18.8553 23.8047C18.9803 23.9298 19.1499 24 19.3267 24H22.668V27.3387C22.668 27.5155 22.7383 27.685 22.8633 27.8101C22.9883 27.9351 23.1579 28.0053 23.3347 28.0053C23.5115 28.0053 23.6811 27.9351 23.8061 27.8101C23.9311 27.685 24.0014 27.5155 24.0014 27.3387V24H27.3294C27.5062 24 27.6757 23.9298 27.8008 23.8047C27.9258 23.6797 27.996 23.5101 27.996 23.3333C27.996 23.1565 27.9258 22.9869 27.8008 22.8619C27.6757 22.7369 27.5062 22.6667 27.3294 22.6667H24V19.332C24 19.1552 23.9298 18.9856 23.8048 18.8606C23.6797 18.7356 23.5102 18.6653 23.3334 18.6653Z" fill="black" fill-opacity="0.87"/>
</svg>
