<svg width="32" height="32" viewBox="0 0 32 32" fill="none" xmlns="http://www.w3.org/2000/svg">
<path d="M2.66666 5C2.66666 4.73478 2.77202 4.48043 2.95956 4.29289C3.14709 4.10536 3.40145 4 3.66666 4H12.3333C13.129 4 13.892 4.31607 14.4546 4.87868C15.0173 5.44129 15.3333 6.20435 15.3333 7V14.6667H23.6667C24.0606 14.6667 24.4507 14.7443 24.8147 14.895C25.1787 15.0458 25.5094 15.2668 25.788 15.5453C26.0666 15.8239 26.2875 16.1546 26.4383 16.5186C26.5891 16.8826 26.6667 17.2727 26.6667 17.6667V26H28.3333C28.5985 26 28.8529 26.1054 29.0404 26.2929C29.228 26.4804 29.3333 26.7348 29.3333 27C29.3333 27.2652 29.228 27.5196 29.0404 27.7071C28.8529 27.8946 28.5985 28 28.3333 28H19.6667C18.871 28 18.108 27.6839 17.5453 27.1213C16.9827 26.5587 16.6667 25.7957 16.6667 25V16.6667H8.33333C7.53768 16.6667 6.77462 16.3506 6.21201 15.788C5.6494 15.2254 5.33333 14.4623 5.33333 13.6667V6H3.66666C3.40145 6 3.14709 5.89464 2.95956 5.70711C2.77202 5.51957 2.66666 5.26522 2.66666 5ZM24.6667 26V17.6667C24.6667 17.4015 24.5613 17.1471 24.3738 16.9596C24.1862 16.772 23.9319 16.6667 23.6667 16.6667H18.6667V25C18.6667 25.552 19.1147 26 19.6667 26H24.6667ZM13.3333 7C13.3333 6.73478 13.228 6.48043 13.0404 6.29289C12.8529 6.10536 12.5985 6 12.3333 6H7.33333V13.6667C7.33333 14.2187 7.78133 14.6667 8.33333 14.6667H13.3333V7Z" fill="black" fill-opacity="0.87"/>
</svg>
