<svg width="32" height="32" viewBox="0 0 32 32" fill="none" xmlns="http://www.w3.org/2000/svg">
<path d="M25.3333 26C25.3333 26.1768 25.2631 26.3464 25.1381 26.4714C25.013 26.5964 24.8435 26.6667 24.6667 26.6667H17.024C16.6425 27.3984 16.1585 28.0718 15.5867 28.6667H24.6667C25.3739 28.6667 26.0522 28.3857 26.5523 27.8856C27.0524 27.3855 27.3333 26.7072 27.3333 26V12.4373C27.3332 11.7301 27.0521 11.052 26.552 10.552L18.78 2.78133L18.7147 2.728L18.6667 2.688C18.5751 2.60119 18.4776 2.52099 18.3747 2.448C18.34 2.42683 18.3044 2.40725 18.268 2.38933L18.204 2.35733L18.1373 2.31867C18.0653 2.27733 17.992 2.23467 17.916 2.20267C17.6503 2.09713 17.3694 2.03501 17.084 2.01867C17.0573 2.01689 17.0311 2.01378 17.0053 2.00933L16.896 2H8.66667C7.95942 2 7.28115 2.28095 6.78105 2.78105C6.28095 3.28115 6 3.95942 6 4.66667V14.664C6.64169 14.3969 7.31318 14.208 8 14.1013V4.66667C8 4.48986 8.07024 4.32029 8.19526 4.19526C8.32029 4.07024 8.48986 4 8.66667 4H16.6667V10C16.6667 10.7072 16.9476 11.3855 17.4477 11.8856C17.9478 12.3857 18.6261 12.6667 19.3333 12.6667H25.3333V26ZM18.6667 5.49467L23.8373 10.6667H19.3333C19.1565 10.6667 18.987 10.5964 18.8619 10.4714C18.7369 10.3464 18.6667 10.1768 18.6667 10V5.49467Z" fill="black" fill-opacity="0.87"/>
<path d="M16.6667 22.6667C16.6667 23.6297 16.477 24.5833 16.1085 25.473C15.7399 26.3627 15.1997 27.1712 14.5188 27.8521C13.8378 28.5331 13.0294 29.0733 12.1397 29.4418C11.25 29.8103 10.2964 30 9.33333 30C8.37031 30 7.41671 29.8103 6.52699 29.4418C5.63727 29.0733 4.82885 28.5331 4.14788 27.8521C3.46692 27.1712 2.92675 26.3627 2.55822 25.473C2.18968 24.5833 2 23.6297 2 22.6667C2 20.7217 2.77262 18.8565 4.14788 17.4812C5.52315 16.106 7.38841 15.3333 9.33333 15.3333C11.2783 15.3333 13.1435 16.106 14.5188 17.4812C15.8941 18.8565 16.6667 20.7217 16.6667 22.6667ZM5.33333 22C5.15652 22 4.98695 22.0702 4.86193 22.1953C4.7369 22.3203 4.66667 22.4899 4.66667 22.6667C4.66667 22.8435 4.7369 23.0131 4.86193 23.1381C4.98695 23.2631 5.15652 23.3333 5.33333 23.3333H11.724L9.528 25.528C9.40282 25.6532 9.33249 25.823 9.33249 26C9.33249 26.177 9.40282 26.3468 9.528 26.472C9.65318 26.5972 9.82297 26.6675 10 26.6675C10.177 26.6675 10.3468 26.5972 10.472 26.472L13.8053 23.1387C13.8674 23.0767 13.9167 23.0032 13.9503 22.9222C13.9839 22.8412 14.0012 22.7544 14.0012 22.6667C14.0012 22.579 13.9839 22.4922 13.9503 22.4112C13.9167 22.3302 13.8674 22.2566 13.8053 22.1947L10.472 18.8613C10.3468 18.7362 10.177 18.6658 10 18.6658C9.82297 18.6658 9.65318 18.7362 9.528 18.8613C9.40282 18.9865 9.33249 19.1563 9.33249 19.3333C9.33249 19.5104 9.40282 19.6802 9.528 19.8053L11.724 22H5.33333Z" fill="black" fill-opacity="0.87"/>
</svg>
