<svg width="32" height="32" viewBox="0 0 32 32" fill="none" xmlns="http://www.w3.org/2000/svg">
<path d="M8.80003 5.1998C8.80003 4.35111 9.13717 3.53718 9.73729 2.93706C10.3374 2.33694 11.1513 1.9998 12 1.9998H19.3376C19.9739 2.00036 20.584 2.25359 21.0336 2.7038L27.2976 8.9662C27.7473 9.41612 27.9999 10.0261 28 10.6622V24.3998C28 25.2485 27.6629 26.0624 27.0628 26.6625C26.4627 27.2627 25.6487 27.5998 24.8 27.5998H19.728C19.904 27.099 20 26.5598 20 25.9998H24.8C25.2244 25.9998 25.6313 25.8312 25.9314 25.5312C26.2315 25.2311 26.4 24.8241 26.4 24.3998V11.5998H20.8C20.1635 11.5998 19.5531 11.3469 19.103 10.8969C18.6529 10.4468 18.4 9.83632 18.4 9.1998V3.5998H12C11.5757 3.5998 11.1687 3.76837 10.8687 4.06843C10.5686 4.36849 10.4 4.77546 10.4 5.1998V14.4222C9.93367 14.0046 9.39013 13.6823 8.80003 13.4734V5.1998ZM20.8 9.9998H26.0688L20 3.931V9.1998C20 9.41197 20.0843 9.61546 20.2343 9.76549C20.3844 9.91552 20.5879 9.9998 20.8 9.9998ZM10.4 17.9998C10.4 18.8485 10.0629 19.6624 9.46277 20.2625C8.86266 20.8627 8.04872 21.1998 7.20003 21.1998C6.35134 21.1998 5.53741 20.8627 4.93729 20.2625C4.33717 19.6624 4.00003 18.8485 4.00003 17.9998C4.00003 17.1511 4.33717 16.3372 4.93729 15.7371C5.53741 15.1369 6.35134 14.7998 7.20003 14.7998C8.04872 14.7998 8.86266 15.1369 9.46277 15.7371C10.0629 16.3372 10.4 17.1511 10.4 17.9998ZM8.80003 17.9998C8.80003 17.5755 8.63146 17.1685 8.3314 16.8684C8.03134 16.5684 7.62438 16.3998 7.20003 16.3998C6.77568 16.3998 6.36872 16.5684 6.06866 16.8684C5.7686 17.1685 5.60003 17.5755 5.60003 17.9998C5.60003 18.4241 5.7686 18.8311 6.06866 19.1312C6.36872 19.4312 6.77568 19.5998 7.20003 19.5998C7.62438 19.5998 8.03134 19.4312 8.3314 19.1312C8.63146 18.8311 8.80003 18.4241 8.80003 17.9998ZM18.4 25.9998C18.4 26.8485 18.0629 27.6624 17.4628 28.2625C16.8627 28.8627 16.0487 29.1998 15.2 29.1998C14.3513 29.1998 13.5374 28.8627 12.9373 28.2625C12.3372 27.6624 12 26.8485 12 25.9998C12 25.1511 12.3372 24.3372 12.9373 23.7371C13.5374 23.1369 14.3513 22.7998 15.2 22.7998C16.0487 22.7998 16.8627 23.1369 17.4628 23.7371C18.0629 24.3372 18.4 25.1511 18.4 25.9998ZM16.8 25.9998C16.8 25.5755 16.6315 25.1685 16.3314 24.8684C16.0313 24.5684 15.6244 24.3998 15.2 24.3998C14.7757 24.3998 14.3687 24.5684 14.0687 24.8684C13.7686 25.1685 13.6 25.5755 13.6 25.9998C13.6 26.4241 13.7686 26.8311 14.0687 27.1312C14.3687 27.4312 14.7757 27.5998 15.2 27.5998C15.6244 27.5998 16.0313 27.4312 16.3314 27.1312C16.6315 26.8311 16.8 26.4241 16.8 25.9998ZM16.5664 16.6334C16.6409 16.7077 16.7 16.796 16.7404 16.8932C16.7807 16.9904 16.8015 17.0946 16.8015 17.1998C16.8015 17.305 16.7807 17.4092 16.7404 17.5064C16.7 17.6036 16.6409 17.6919 16.5664 17.7662L6.96643 27.3662C6.81621 27.5164 6.61247 27.6008 6.40003 27.6008C6.18759 27.6008 5.98385 27.5164 5.83363 27.3662C5.68341 27.216 5.59902 27.0122 5.59902 26.7998C5.59902 26.5874 5.68341 26.3836 5.83363 26.2334L15.4336 16.6334C15.5079 16.5589 15.5962 16.4998 15.6934 16.4595C15.7906 16.4191 15.8948 16.3984 16 16.3984C16.1053 16.3984 16.2095 16.4191 16.3066 16.4595C16.4038 16.4998 16.4921 16.5589 16.5664 16.6334Z" fill="black" fill-opacity="0.87"/>
</svg>
