<svg width="32" height="32" viewBox="0 0 32 32" fill="none" xmlns="http://www.w3.org/2000/svg">
<path d="M9 5C9 4.73478 9.10536 4.48043 9.29289 4.29289C9.48043 4.10536 9.73478 4 10 4H17.6667V10C17.6667 10.7072 17.9476 11.3855 18.4477 11.8856C18.9478 12.3857 19.6261 12.6667 20.3333 12.6667H26.3333V25.6667C26.3333 25.9319 26.228 26.1862 26.0404 26.3738C25.8529 26.5613 25.5986 26.6667 25.3333 26.6667H19V28.6667H25.3333C25.7273 28.6667 26.1174 28.5891 26.4814 28.4383C26.8454 28.2875 27.1761 28.0666 27.4547 27.788C27.7332 27.5094 27.9542 27.1787 28.105 26.8147C28.2557 26.4507 28.3333 26.0606 28.3333 25.6667V12.2187C28.3333 11.6 28.088 11.0067 27.6493 10.5693L19.764 2.684C19.3267 2.24634 18.7334 2.00031 18.1147 2H10C9.20435 2 8.44129 2.31607 7.87868 2.87868C7.31607 3.44129 7 4.20435 7 5V15.6907C7.392 15.464 7.848 15.3333 8.33333 15.3333H9V5ZM24.92 10.6667H20.3333C20.1565 10.6667 19.987 10.5964 19.8619 10.4714C19.7369 10.3464 19.6667 10.1768 19.6667 10V5.41333L24.92 10.6667ZM7 20.6667V18.6667C7 18.1362 7.21071 17.6275 7.58579 17.2525C7.96086 16.8774 8.46957 16.6667 9 16.6667H11.6667C12.1971 16.6667 12.7058 16.8774 13.0809 17.2525C13.456 17.6275 13.6667 18.1362 13.6667 18.6667V20.6667H15.6667C16.1971 20.6667 16.7058 20.8774 17.0809 21.2525C17.456 21.6275 17.6667 22.1362 17.6667 22.6667V24.6667H13.6667V24C13.6667 23.8232 13.5964 23.6536 13.4714 23.5286C13.3464 23.4036 13.1768 23.3333 13 23.3333C12.8232 23.3333 12.6536 23.4036 12.5286 23.5286C12.4036 23.6536 12.3333 23.8232 12.3333 24V24.6667H8.33333V24C8.33333 23.8232 8.2631 23.6536 8.13807 23.5286C8.01305 23.4036 7.84348 23.3333 7.66667 23.3333C7.48986 23.3333 7.32029 23.4036 7.19526 23.5286C7.07024 23.6536 7 23.8232 7 24V24.6667H3V22.6667C3 22.1362 3.21071 21.6275 3.58579 21.2525C3.96086 20.8774 4.46957 20.6667 5 20.6667H7ZM8.33333 18.6667V20.6667H12.3333V18.6667C12.3333 18.4899 12.2631 18.3203 12.1381 18.1953C12.013 18.0702 11.8435 18 11.6667 18H9C8.82319 18 8.65362 18.0702 8.5286 18.1953C8.40357 18.3203 8.33333 18.4899 8.33333 18.6667ZM13.6667 26H17.6667V28C17.6667 28.5304 17.456 29.0391 17.0809 29.4142C16.7058 29.7893 16.1971 30 15.6667 30H5C4.46957 30 3.96086 29.7893 3.58579 29.4142C3.21071 29.0391 3 28.5304 3 28V26H7V26.6667C7 26.8435 7.07024 27.013 7.19526 27.1381C7.32029 27.2631 7.48986 27.3333 7.66667 27.3333C7.84348 27.3333 8.01305 27.2631 8.13807 27.1381C8.2631 27.013 8.33333 26.8435 8.33333 26.6667V26H12.3333V26.6667C12.3333 26.8435 12.4036 27.013 12.5286 27.1381C12.6536 27.2631 12.8232 27.3333 13 27.3333C13.1768 27.3333 13.3464 27.2631 13.4714 27.1381C13.5964 27.013 13.6667 26.8435 13.6667 26.6667V26Z" fill="black" fill-opacity="0.87"/>
</svg>
