<svg width="32" height="32" viewBox="0 0 32 32" fill="none" xmlns="http://www.w3.org/2000/svg">
<path d="M10.3334 15.3333C12.2783 15.3333 14.1436 16.106 15.5188 17.4812C16.8941 18.8565 17.6667 20.7217 17.6667 22.6667C17.6667 24.6116 16.8941 26.4769 15.5188 27.8521C14.1436 29.2274 12.2783 30 10.3334 30C8.38847 30 6.52321 29.2274 5.14794 27.8521C3.77268 26.4769 3.00006 24.6116 3.00006 22.6667C3.00006 20.7217 3.77268 18.8565 5.14794 17.4812C6.52321 16.106 8.38847 15.3333 10.3334 15.3333ZM17.8387 2C18.6339 2.00035 19.3964 2.31639 19.9587 2.87867L23.7081 6.62533L27.4521 10.3747C28.0134 10.9373 28.3294 11.7 28.3294 12.4947V25.6667C28.3294 26.4623 28.0133 27.2254 27.4507 27.788C26.8881 28.3506 26.125 28.6667 25.3294 28.6667H16.5867C17.158 28.0721 17.6416 27.3991 18.0227 26.668L25.3294 26.6667C25.5946 26.6667 25.849 26.5613 26.0365 26.3738C26.224 26.1862 26.3294 25.9319 26.3294 25.6667L26.3281 12.6707H20.6667C19.9068 12.6708 19.1751 12.3825 18.6195 11.864C18.0639 11.3455 17.7257 10.6355 17.6734 9.87733L17.6667 9.672L17.6654 4H10.0001C9.73484 4 9.48049 4.10536 9.29295 4.29289C9.10542 4.48043 9.00006 4.73478 9.00006 5V14.1027C8.31324 14.2093 7.64175 14.3983 7.00006 14.6653V5C7.00006 4.20435 7.31613 3.44129 7.87874 2.87868C8.44135 2.31607 9.20441 2 10.0001 2H17.8387ZM7.12406 19.288L7.03073 19.3653L6.95473 19.4587C6.8779 19.57 6.83675 19.7021 6.83675 19.8373C6.83675 19.9726 6.8779 20.1047 6.95473 20.216L7.03206 20.3093L9.39206 22.668L7.03473 25.0227L6.95873 25.116C6.8819 25.2273 6.84075 25.3594 6.84075 25.4947C6.84075 25.6299 6.8819 25.762 6.95873 25.8733L7.03473 25.9667L7.12806 26.0427C7.23939 26.1195 7.37146 26.1606 7.50673 26.1606C7.642 26.1606 7.77406 26.1195 7.88539 26.0427L7.97873 25.9667L10.3334 23.6107L12.6934 25.9693L12.7854 26.0467C12.8967 26.1235 13.0288 26.1646 13.1641 26.1646C13.2993 26.1646 13.4314 26.1235 13.5427 26.0467L13.6361 25.9693L13.7121 25.876C13.7889 25.7647 13.83 25.6326 13.83 25.4973C13.83 25.3621 13.7889 25.23 13.7121 25.1187L13.6347 25.0253L11.2761 22.668L13.6387 20.308L13.7161 20.216C13.7932 20.1045 13.8345 19.9722 13.8345 19.8367C13.8345 19.7011 13.7932 19.5688 13.7161 19.4573L13.6387 19.3653L13.5467 19.288C13.4353 19.2109 13.3029 19.1696 13.1674 19.1696C13.0318 19.1696 12.8995 19.2109 12.7881 19.288L12.6961 19.3653L10.3334 21.7253L7.97339 19.3653L7.88273 19.288C7.77126 19.2109 7.63894 19.1696 7.50339 19.1696C7.36785 19.1696 7.23552 19.2109 7.12406 19.288ZM19.6667 5.41333L19.6681 9.67333C19.6681 10.18 20.0441 10.5973 20.5321 10.664L20.6681 10.6733L24.9227 10.672L19.6667 5.41333Z" fill="black" fill-opacity="0.87"/>
</svg>
