<svg width="32" height="32" viewBox="0 0 32 32" fill="none" xmlns="http://www.w3.org/2000/svg">
<path d="M11 2C10.1513 2 9.33737 2.33714 8.73726 2.93726C8.13714 3.53737 7.8 4.35131 7.8 5.2V13.5312C8.32305 13.3833 8.85867 13.2842 9.4 13.2352V5.2C9.4 4.77565 9.56857 4.36869 9.86863 4.06863C10.1687 3.76857 10.5757 3.6 11 3.6H17.4V9.2C17.4 9.83652 17.6529 10.447 18.1029 10.8971C18.553 11.3471 19.1635 11.6 19.8 11.6H25.4V24.4C25.4 24.8243 25.2314 25.2313 24.9314 25.5314C24.6313 25.8314 24.2243 26 23.8 26H18.04C17.7488 26.57 17.3963 27.1065 16.9888 27.6H23.8C24.6487 27.6 25.4626 27.2629 26.0627 26.6627C26.6629 26.0626 27 25.2487 27 24.4V10.6624C26.9994 10.0261 26.7462 9.41606 26.296 8.9664L20.0336 2.7024C19.5837 2.25277 18.9737 2.00014 18.3376 2H11ZM25.0688 10H19.8C19.5878 10 19.3843 9.91571 19.2343 9.76569C19.0843 9.61566 19 9.41217 19 9.2V3.9312L25.0688 10ZM17.4 22C17.4 23.9096 16.6414 25.7409 15.2912 27.0912C13.9409 28.4414 12.1096 29.2 10.2 29.2C8.29044 29.2 6.45909 28.4414 5.10883 27.0912C3.75857 25.7409 3 23.9096 3 22C3 20.0904 3.75857 18.2591 5.10883 16.9088C6.45909 15.5586 8.29044 14.8 10.2 14.8C12.1096 14.8 13.9409 15.5586 15.2912 16.9088C16.6414 18.2591 17.4 20.0904 17.4 22ZM11 18.8C11 18.5878 10.9157 18.3843 10.7657 18.2343C10.6157 18.0843 10.4122 18 10.2 18C9.98783 18 9.78434 18.0843 9.63432 18.2343C9.48429 18.3843 9.4 18.5878 9.4 18.8V21.2H7C6.78783 21.2 6.58434 21.2843 6.43431 21.4343C6.28429 21.5843 6.2 21.7878 6.2 22C6.2 22.2122 6.28429 22.4157 6.43431 22.5657C6.58434 22.7157 6.78783 22.8 7 22.8H9.4V25.2C9.4 25.4122 9.48429 25.6157 9.63432 25.7657C9.78434 25.9157 9.98783 26 10.2 26C10.4122 26 10.6157 25.9157 10.7657 25.7657C10.9157 25.6157 11 25.4122 11 25.2V22.8H13.4C13.6122 22.8 13.8157 22.7157 13.9657 22.5657C14.1157 22.4157 14.2 22.2122 14.2 22C14.2 21.7878 14.1157 21.5843 13.9657 21.4343C13.8157 21.2843 13.6122 21.2 13.4 21.2H11V18.8Z" fill="black" fill-opacity="0.87"/>
</svg>
