<svg width="32" height="32" viewBox="0 0 32 32" fill="none" xmlns="http://www.w3.org/2000/svg">
<path d="M28.565 3.434C27.648 2.5171 26.4043 2.002 25.1075 2.002C23.8107 2.002 22.567 2.5171 21.65 3.434L4.35701 20.73C3.85271 21.234 3.50476 21.8729 3.35501 22.57L2.02201 28.79C1.98686 28.9534 1.9932 29.1229 2.04046 29.2832C2.08771 29.4435 2.17437 29.5893 2.29253 29.7075C2.41068 29.8256 2.55656 29.9123 2.71683 29.9596C2.8771 30.0068 3.04666 30.0132 3.21001 29.978L9.43001 28.645C10.1271 28.4953 10.766 28.1473 11.27 27.643L28.565 10.348C29.4816 9.43101 29.9965 8.18754 29.9965 6.891C29.9965 5.59446 29.4816 4.35099 28.565 3.434ZM23.065 4.848C23.6118 4.3309 24.3387 4.0475 25.0912 4.05804C25.8437 4.06859 26.5624 4.37225 27.0945 4.90447C27.6266 5.43668 27.9301 6.15546 27.9405 6.90797C27.9508 7.66047 27.6672 8.38733 27.15 8.934L26.25 9.834L22.164 5.749L23.065 4.848ZM20.749 7.163L24.835 11.249L9.85701 26.23C9.62524 26.4617 9.33146 26.6214 9.01101 26.69L4.30001 27.7L5.31001 22.99C5.3786 22.6696 5.53835 22.3758 5.77001 22.144L20.749 7.163Z" fill="black" fill-opacity="0.87"/>
</svg>
