<svg width="32" height="32" viewBox="0 0 32 32" fill="none" xmlns="http://www.w3.org/2000/svg">
<path d="M6.66666 5.33334C5.6058 5.33334 4.58838 5.75476 3.83824 6.50491C3.08809 7.25505 2.66666 8.27247 2.66666 9.33334V19.3333C2.66666 20.3942 3.08809 21.4116 3.83824 22.1618C4.58838 22.9119 5.6058 23.3333 6.66666 23.3333H22C23.0609 23.3333 24.0783 22.9119 24.8284 22.1618C25.5786 21.4116 26 20.3942 26 19.3333V9.33334C26 8.27247 25.5786 7.25505 24.8284 6.50491C24.0783 5.75476 23.0609 5.33334 22 5.33334H6.66666ZM4.66666 9.33334C4.66666 8.8029 4.87738 8.29419 5.25245 7.91912C5.62752 7.54405 6.13623 7.33334 6.66666 7.33334H10.6667V8.944C10.0525 8.67555 9.37167 8.5985 8.71304 8.72289C8.05441 8.84728 7.44858 9.16734 6.97462 9.64129C6.50067 10.1152 6.18061 10.7211 6.05622 11.3797C5.93182 12.0383 6.00888 12.7192 6.27733 13.3333H4.66666V9.33334ZM12.6667 8.944V7.33334H22C22.5304 7.33334 23.0391 7.54405 23.4142 7.91912C23.7893 8.29419 24 8.8029 24 9.33334V13.3333H17.056C17.3244 12.7192 17.4015 12.0383 17.2771 11.3797C17.1527 10.7211 16.8327 10.1152 16.3587 9.64129C15.8848 9.16734 15.2789 8.84728 14.6203 8.72289C13.9617 8.5985 13.2808 8.67555 12.6667 8.944ZM14.08 15.3333H24V19.3333C24 19.8638 23.7893 20.3725 23.4142 20.7476C23.0391 21.1226 22.5304 21.3333 22 21.3333H12.6667V16.7467L14.96 19.04C15.0515 19.1383 15.1619 19.2171 15.2846 19.2717C15.4073 19.3264 15.5397 19.3558 15.674 19.3581C15.8082 19.3605 15.9416 19.3358 16.0661 19.2855C16.1906 19.2352 16.3038 19.1603 16.3987 19.0654C16.4937 18.9704 16.5685 18.8573 16.6188 18.7328C16.6691 18.6083 16.6938 18.4749 16.6915 18.3406C16.6891 18.2064 16.6597 18.074 16.605 17.9513C16.5504 17.8286 16.4716 17.7182 16.3733 17.6267L14.08 15.3333ZM10.6667 16.7467V21.3333H6.66666C6.13623 21.3333 5.62752 21.1226 5.25245 20.7476C4.87738 20.3725 4.66666 19.8638 4.66666 19.3333V15.3333H9.25333L6.96 17.6267C6.86175 17.7182 6.78295 17.8286 6.72829 17.9513C6.67363 18.074 6.64424 18.2064 6.64188 18.3406C6.63951 18.4749 6.66421 18.6083 6.7145 18.7328C6.76479 18.8573 6.83965 18.9704 6.93461 19.0654C7.02957 19.1603 7.14268 19.2352 7.2672 19.2855C7.39172 19.3358 7.52509 19.3605 7.65936 19.3581C7.79363 19.3558 7.92605 19.3264 8.04871 19.2717C8.17138 19.2171 8.28178 19.1383 8.37333 19.04L10.6667 16.7467ZM15.3333 12C15.3333 12.3536 15.1929 12.6928 14.9428 12.9428C14.6928 13.1929 14.3536 13.3333 14 13.3333H12.6667V12C12.6667 11.6464 12.8071 11.3072 13.0572 11.0572C13.3072 10.8071 13.6464 10.6667 14 10.6667C14.3536 10.6667 14.6928 10.8071 14.9428 11.0572C15.1929 11.3072 15.3333 11.6464 15.3333 12ZM9.33333 10.6667C9.68603 10.6667 10.0244 10.8064 10.2743 11.0553C10.5242 11.3042 10.6653 11.642 10.6667 11.9947V13.3333H9.33333C8.97971 13.3333 8.64057 13.1929 8.39052 12.9428C8.14047 12.6928 8 12.3536 8 12C8 11.6464 8.14047 11.3072 8.39052 11.0572C8.64057 10.8071 8.97971 10.6667 9.33333 10.6667ZM10 26.6667C9.29764 26.6669 8.60761 26.4822 7.9993 26.1311C7.39099 25.78 6.88584 25.2749 6.53466 24.6667H22C23.4145 24.6667 24.771 24.1048 25.7712 23.1046C26.7714 22.1044 27.3333 20.7478 27.3333 19.3333V9.20134C27.9416 9.55251 28.4467 10.0577 28.7977 10.666C29.1488 11.2743 29.3335 11.9643 29.3333 12.6667V19.3333C29.3333 20.2964 29.1436 21.25 28.7751 22.1397C28.4066 23.0294 27.8664 23.8378 27.1854 24.5188C26.5045 25.1997 25.6961 25.7399 24.8063 26.1085C23.9166 26.477 22.963 26.6667 22 26.6667H10Z" fill="black" fill-opacity="0.87"/>
</svg>
