<svg width="32" height="32" viewBox="0 0 32 32" fill="none" xmlns="http://www.w3.org/2000/svg">
<path d="M7.6 6.4H11.2V10.0288C10.59 9.67665 9.88076 9.53562 9.1824 9.62758C8.48403 9.71955 7.83553 10.0394 7.33745 10.5375C6.83937 11.0355 6.51955 11.684 6.42758 12.3824C6.33561 13.0808 6.47664 13.79 6.8288 14.4H3.2V10.8C3.2 9.63305 3.66357 8.51389 4.48873 7.68873C5.31389 6.86357 6.43304 6.4 7.6 6.4ZM3.2 19.6V16H10.0688L7.4336 18.6336C7.28338 18.7838 7.19899 18.9876 7.19899 19.2C7.19899 19.4124 7.28338 19.6162 7.4336 19.7664C7.58382 19.9166 7.78756 20.001 8 20.001C8.21244 20.001 8.41618 19.9166 8.5664 19.7664L11.2 17.1312V24H7.6C6.43304 24 5.31389 23.5364 4.48873 22.7113C3.66357 21.8861 3.2 20.767 3.2 19.6ZM12.8 24H21.2C22.3669 24 23.4861 23.5364 24.3113 22.7113C25.1364 21.8861 25.6 20.767 25.6 19.6V16H13.9312L16.5664 18.6336C16.7166 18.7838 16.801 18.9876 16.801 19.2C16.801 19.4124 16.7166 19.6162 16.5664 19.7664C16.4162 19.9166 16.2124 20.001 16 20.001C15.7876 20.001 15.5838 19.9166 15.4336 19.7664L12.8 17.1312V24ZM17.1712 14.4H25.6V10.8C25.6 9.63305 25.1364 8.51389 24.3113 7.68873C23.4861 6.86357 22.3669 6.4 21.2 6.4H12.8V10.0288C13.41 9.67665 14.1192 9.53562 14.8176 9.62758C15.516 9.71955 16.1645 10.0394 16.6625 10.5375C17.1606 11.0355 17.4804 11.684 17.5724 12.3824C17.6644 13.0808 17.5234 13.79 17.1712 14.4ZM12.8 14.4V12.8C12.8 12.4836 12.8938 12.1742 13.0696 11.9111C13.2455 11.648 13.4953 11.4429 13.7877 11.3218C14.0801 11.2007 14.4018 11.169 14.7121 11.2307C15.0225 11.2925 15.3076 11.4449 15.5314 11.6686C15.7551 11.8924 15.9075 12.1775 15.9693 12.4879C16.031 12.7982 15.9993 13.1199 15.8782 13.4123C15.7571 13.7047 15.552 13.9545 15.2889 14.1304C15.0258 14.3062 14.7164 14.4 14.4 14.4H12.8ZM9.6 14.4H11.2V12.8C11.2 12.4836 11.1062 12.1742 10.9303 11.9111C10.7545 11.648 10.5047 11.4429 10.2123 11.3218C9.91993 11.2007 9.59822 11.169 9.28785 11.2307C8.97748 11.2925 8.69239 11.4449 8.46863 11.6686C8.24486 11.8924 8.09248 12.1775 8.03074 12.4879C7.969 12.7982 8.00069 13.1199 8.12179 13.4123C8.24289 13.7047 8.44797 13.9545 8.71108 14.1304C8.9742 14.3062 9.28355 14.4 9.6 14.4ZM10.8 27.2C9.432 27.2 8.2096 26.576 7.4032 25.5968L7.6 25.6H21.2C22.7913 25.6 24.3174 24.9679 25.4426 23.8426C26.5679 22.7174 27.2 21.1913 27.2 19.6V10.8L27.1968 10.6032C27.699 11.0152 28.1033 11.5337 28.3806 12.1212C28.6579 12.7087 28.8011 13.3504 28.8 14V19.6C28.8 21.6156 27.9993 23.5487 26.574 24.974C25.1487 26.3993 23.2156 27.2 21.2 27.2H10.8Z" fill="black" fill-opacity="0.87"/>
</svg>
