<svg width="32" height="32" viewBox="0 0 32 32" fill="none" xmlns="http://www.w3.org/2000/svg">
<path d="M16 1.33334C19.1826 1.33334 22.2348 2.59763 24.4853 4.84806C26.7357 7.0985 28 10.1507 28 13.3333C28 18.3013 24.2133 23.5067 16.8 29.0667C16.5692 29.2398 16.2885 29.3333 16 29.3333C15.7115 29.3333 15.4308 29.2398 15.2 29.0667C7.78667 23.5067 4 18.3013 4 13.3333C4 10.1507 5.26428 7.0985 7.51472 4.84806C9.76515 2.59763 12.8174 1.33334 16 1.33334ZM16 4.00001C13.5246 4.00001 11.1507 4.98334 9.40034 6.73368C7.65 8.48402 6.66667 10.858 6.66667 13.3333C6.66667 16.9467 9.49067 21.1147 15.264 25.7413L16 26.3227L16.736 25.7413C22.5093 21.1147 25.3333 16.9467 25.3333 13.3333C25.3333 10.858 24.35 8.48402 22.5997 6.73368C20.8493 4.98334 18.4754 4.00001 16 4.00001ZM16 10.6667C16.7072 10.6667 17.3855 10.9476 17.8856 11.4477C18.3857 11.9478 18.6667 12.6261 18.6667 13.3333C18.6667 14.0406 18.3857 14.7189 17.8856 15.219C17.3855 15.7191 16.7072 16 16 16C15.2928 16 14.6145 15.7191 14.1144 15.219C13.6143 14.7189 13.3333 14.0406 13.3333 13.3333C13.3333 12.6261 13.6143 11.9478 14.1144 11.4477C14.6145 10.9476 15.2928 10.6667 16 10.6667Z" fill="black" fill-opacity="0.87"/>
</svg>
