<svg width="32" height="32" viewBox="0 0 32 32" fill="none" xmlns="http://www.w3.org/2000/svg">
<path d="M18 18.6667C18 19.1971 17.7893 19.7058 17.4142 20.0809C17.0391 20.456 16.5304 20.6667 16 20.6667C15.4696 20.6667 14.9609 20.456 14.5858 20.0809C14.2107 19.7058 14 19.1971 14 18.6667C14 18.1362 14.2107 17.6275 14.5858 17.2525C14.9609 16.8774 15.4696 16.6667 16 16.6667C16.5304 16.6667 17.0391 16.8774 17.4142 17.2525C17.7893 17.6275 18 18.1362 18 18.6667ZM16 2.66667C14.5855 2.66667 13.229 3.22857 12.2288 4.22877C11.2286 5.22896 10.6667 6.58552 10.6667 8.00001V9.33334H9.66666C8.51739 9.33334 7.41519 9.78988 6.60253 10.6025C5.78987 11.4152 5.33333 12.5174 5.33333 13.6667V23.6667C5.33333 24.8159 5.78987 25.9181 6.60253 26.7308C7.41519 27.5435 8.51739 28 9.66666 28H14.6667V27.8853C14.6668 27.1782 14.9479 26.5 15.448 26H9.66666C9.04782 26 8.45433 25.7542 8.01675 25.3166C7.57916 24.879 7.33333 24.2855 7.33333 23.6667V13.6667C7.33333 12.3787 8.37866 11.3333 9.66666 11.3333H22.3333C23.6213 11.3333 24.6667 12.3787 24.6667 13.6667V14.8147C25.3223 14.6655 25.9984 14.6277 26.6667 14.7027V13.6667C26.6667 13.0976 26.5546 12.5341 26.3368 12.0084C26.119 11.4826 25.7998 11.0049 25.3975 10.6025C24.9951 10.2002 24.5174 9.88096 23.9916 9.66319C23.4659 9.44542 22.9024 9.33334 22.3333 9.33334H21.3333V8.00001C21.3333 6.58552 20.7714 5.22896 19.7712 4.22877C18.771 3.22857 17.4145 2.66667 16 2.66667ZM12.6667 8.00001C12.6667 7.11595 13.0179 6.2681 13.643 5.64298C14.2681 5.01786 15.1159 4.66667 16 4.66667C16.884 4.66667 17.7319 5.01786 18.357 5.64298C18.9821 6.2681 19.3333 7.11595 19.3333 8.00001V9.33334H12.6667V8.00001ZM26 25.3333C26.9739 25.333 27.9233 25.028 28.7151 24.461C29.5069 23.894 30.1015 23.0935 30.4156 22.1717C30.7297 21.2498 30.7475 20.2528 30.4666 19.3203C30.1856 18.3879 29.6199 17.5667 28.8488 16.9718C28.0778 16.3769 27.1399 16.0382 26.1666 16.003C25.1934 15.9679 24.2335 16.2382 23.4216 16.7759C22.6096 17.3136 21.9862 18.0919 21.6388 19.0017C21.2913 19.9115 21.2372 20.9072 21.484 21.8493L16.3907 26.9427C16.1406 27.1927 16.0001 27.5317 16 27.8853V30C16 30.1768 16.0702 30.3464 16.1953 30.4714C16.3203 30.5964 16.4899 30.6667 16.6667 30.6667H19.3333C19.5101 30.6667 19.6797 30.5964 19.8047 30.4714C19.9298 30.3464 20 30.1768 20 30V29.3333H21.3333C21.5101 29.3333 21.6797 29.2631 21.8047 29.1381C21.9298 29.0131 22 28.8435 22 28.6667V27.3333H23.3333C23.5101 27.3333 23.6797 27.2631 23.8047 27.1381C23.9298 27.0131 24 26.8435 24 26.6667V25.3333H26ZM26.6667 18.6667C27.0203 18.6667 27.3594 18.8071 27.6095 19.0572C27.8595 19.3072 28 19.6464 28 20C28 20.3536 27.8595 20.6928 27.6095 20.9428C27.3594 21.1929 27.0203 21.3333 26.6667 21.3333C26.313 21.3333 25.9739 21.1929 25.7239 20.9428C25.4738 20.6928 25.3333 20.3536 25.3333 20C25.3333 19.6464 25.4738 19.3072 25.7239 19.0572C25.9739 18.8071 26.313 18.6667 26.6667 18.6667Z" fill="black" fill-opacity="0.87"/>
</svg>
