<svg width="32" height="32" viewBox="0 0 32 32" fill="none" xmlns="http://www.w3.org/2000/svg">
<path d="M14.3333 10C13.808 10 13.2878 10.1035 12.8025 10.3045C12.3172 10.5055 11.8763 10.8001 11.5048 11.1716C11.1334 11.543 10.8388 11.984 10.6378 12.4693C10.4367 12.9546 10.3333 13.4747 10.3333 14C10.3333 14.5253 10.4367 15.0454 10.6378 15.5307C10.8388 16.016 11.1334 16.457 11.5048 16.8284C11.8763 17.1999 12.3172 17.4945 12.8025 17.6955C13.2878 17.8965 13.808 18 14.3333 18C15.3941 18 16.4116 17.5786 17.1617 16.8284C17.9118 16.0783 18.3333 15.0609 18.3333 14C18.3333 12.9391 17.9118 11.9217 17.1617 11.1716C16.4116 10.4214 15.3941 10 14.3333 10ZM12.3333 14C12.3333 13.4696 12.544 12.9609 12.9191 12.5858C13.2941 12.2107 13.8028 12 14.3333 12C14.8637 12 15.3724 12.2107 15.7475 12.5858C16.1226 12.9609 16.3333 13.4696 16.3333 14C16.3333 14.5304 16.1226 15.0391 15.7475 15.4142C15.3724 15.7893 14.8637 16 14.3333 16C13.8028 16 13.2941 15.7893 12.9191 15.4142C12.544 15.0391 12.3333 14.5304 12.3333 14ZM2.99994 9C2.99994 8.20435 3.31601 7.44129 3.87862 6.87868C4.44123 6.31607 5.20429 6 5.99994 6H22.6666C23.0606 6 23.4507 6.0776 23.8147 6.22836C24.1786 6.37913 24.5093 6.6001 24.7879 6.87868C25.0665 7.15726 25.2875 7.48797 25.4382 7.85195C25.589 8.21593 25.6666 8.60603 25.6666 9V19C25.6666 19.394 25.589 19.7841 25.4382 20.1481C25.2875 20.512 25.0665 20.8427 24.7879 21.1213C24.5093 21.3999 24.1786 21.6209 23.8147 21.7716C23.4507 21.9224 23.0606 22 22.6666 22H5.99994C5.20429 22 4.44123 21.6839 3.87862 21.1213C3.31601 20.5587 2.99994 19.7956 2.99994 19V9ZM5.99994 8C5.73472 8 5.48037 8.10536 5.29283 8.29289C5.1053 8.48043 4.99994 8.73478 4.99994 9V10H5.99994C6.26516 10 6.51951 9.89464 6.70705 9.70711C6.89458 9.51957 6.99994 9.26522 6.99994 9V8H5.99994ZM4.99994 16H5.99994C6.79559 16 7.55865 16.3161 8.12126 16.8787C8.68387 17.4413 8.99994 18.2044 8.99994 19V20H19.6666V19C19.6666 18.2044 19.9827 17.4413 20.5453 16.8787C21.1079 16.3161 21.871 16 22.6666 16H23.6666V12H22.6666C21.871 12 21.1079 11.6839 20.5453 11.1213C19.9827 10.5587 19.6666 9.79565 19.6666 9V8H8.99994V9C8.99994 9.39397 8.92234 9.78407 8.77158 10.148C8.62081 10.512 8.39983 10.8427 8.12126 11.1213C7.84268 11.3999 7.51197 11.6209 7.14799 11.7716C6.78401 11.9224 6.3939 12 5.99994 12H4.99994V16ZM23.6666 10V9C23.6666 8.73478 23.5612 8.48043 23.3737 8.29289C23.1862 8.10536 22.9318 8 22.6666 8H21.6666V9C21.6666 9.552 22.1146 10 22.6666 10H23.6666ZM23.6666 18H22.6666C22.4014 18 22.147 18.1054 21.9595 18.2929C21.772 18.4804 21.6666 18.7348 21.6666 19V20H22.6666C22.9318 20 23.1862 19.8946 23.3737 19.7071C23.5612 19.5196 23.6666 19.2652 23.6666 19V18ZM4.99994 19C4.99994 19.552 5.44794 20 5.99994 20H6.99994V19C6.99994 18.7348 6.89458 18.4804 6.70705 18.2929C6.51951 18.1054 6.26516 18 5.99994 18H4.99994V19ZM6.20127 24C6.55245 24.6083 7.0576 25.1133 7.66591 25.4644C8.27422 25.8155 8.96425 26.0002 9.6666 26H23.3333C24.165 26 24.9885 25.8362 25.7569 25.5179C26.5253 25.1996 27.2235 24.7331 27.8116 24.145C28.3997 23.5569 28.8662 22.8587 29.1845 22.0903C29.5028 21.3219 29.6666 20.4984 29.6666 19.6667V12.6667C29.6668 11.9643 29.4821 11.2743 29.131 10.666C28.7799 10.0577 28.2749 9.55251 27.6666 9.20133V19.6667C27.6666 20.8159 27.2101 21.9181 26.3974 22.7308C25.5847 23.5435 24.4825 24 23.3333 24H6.20127Z" fill="black" fill-opacity="0.87"/>
</svg>
