<svg width="32" height="32" viewBox="0 0 32 32" fill="none" xmlns="http://www.w3.org/2000/svg">
<path d="M16 10.3333C15.6936 10.3333 15.3902 10.273 15.1071 10.1557C14.824 10.0384 14.5668 9.86658 14.3501 9.64991C14.1334 9.43324 13.9616 9.17601 13.8443 8.89292C13.727 8.60982 13.6667 8.30641 13.6667 7.99999C13.6667 7.69357 13.727 7.39015 13.8443 7.10706C13.9616 6.82397 14.1334 6.56674 14.3501 6.35007C14.5668 6.1334 14.824 5.96153 15.1071 5.84427C15.3902 5.72701 15.6936 5.66666 16 5.66666C16.6189 5.66666 17.2124 5.91249 17.6499 6.35007C18.0875 6.78766 18.3334 7.38115 18.3334 7.99999C18.3334 8.61883 18.0875 9.21232 17.6499 9.64991C17.2124 10.0875 16.6189 10.3333 16 10.3333ZM16 18.3333C15.3812 18.3333 14.7877 18.0875 14.3501 17.6499C13.9125 17.2123 13.6667 16.6188 13.6667 16C13.6667 15.3812 13.9125 14.7877 14.3501 14.3501C14.7877 13.9125 15.3812 13.6667 16 13.6667C16.6189 13.6667 17.2124 13.9125 17.6499 14.3501C18.0875 14.7877 18.3334 15.3812 18.3334 16C18.3334 16.6188 18.0875 17.2123 17.6499 17.6499C17.2124 18.0875 16.6189 18.3333 16 18.3333ZM13.6667 24C13.6667 24.6188 13.9125 25.2123 14.3501 25.6499C14.7877 26.0875 15.3812 26.3333 16 26.3333C16.6189 26.3333 17.2124 26.0875 17.6499 25.6499C18.0875 25.2123 18.3334 24.6188 18.3334 24C18.3334 23.3812 18.0875 22.7877 17.6499 22.3501C17.2124 21.9125 16.6189 21.6667 16 21.6667C15.3812 21.6667 14.7877 21.9125 14.3501 22.3501C13.9125 22.7877 13.6667 23.3812 13.6667 24Z" fill="black" fill-opacity="0.87"/>
</svg>
