<svg width="32" height="32" viewBox="0 0 32 32" fill="none" xmlns="http://www.w3.org/2000/svg">
<path fill-rule="evenodd" clip-rule="evenodd" d="M3.48542 1.87957C3.32424 1.94788 3.17815 2.04727 3.05552 2.17207L3.05391 2.17132C2.80649 2.42306 2.66937 2.76278 2.67273 3.11579C2.67608 3.46879 2.81962 3.80617 3.07179 4.05373L5.88289 6.81312C5.1527 7.00796 4.47949 7.39224 3.93586 7.93587C3.1232 8.74853 2.66666 9.85073 2.66666 11V21C2.66666 22.1493 3.1232 23.2515 3.93586 24.0641C4.74852 24.8768 5.85072 25.3333 6.99999 25.3333H24.7502L27.9376 28.4621C28.1896 28.7101 28.5298 28.848 28.8833 28.8454C29.2368 28.8429 29.5747 28.7002 29.8226 28.4487C30.0705 28.1972 30.2081 27.8575 30.2052 27.5043C30.2023 27.1511 30.0591 26.8134 29.8071 26.5654L4.94127 2.15706C4.81638 2.03423 4.66852 1.93718 4.50612 1.87145C4.34372 1.80572 4.16999 1.7726 3.99485 1.774C3.8197 1.77539 3.64659 1.81127 3.48542 1.87957ZM22.7127 23.3333L20.5819 21.2417C20.4754 21.1927 20.3774 21.1249 20.2929 21.0404C20.2129 20.9604 20.1478 20.8682 20.0995 20.7682L13.8836 14.6667H4.66666V21C4.66666 22.288 5.71199 23.3333 6.99999 23.3333H22.7127ZM11.8461 12.6667L7.77118 8.66667H6.99999C6.38115 8.66667 5.78766 8.9125 5.35007 9.35009C4.91249 9.78767 4.66666 10.3812 4.66666 11V12.6667H11.8461Z" fill="black" fill-opacity="0.87"/>
<path d="M27.3333 12.6667H18.3145L20.352 14.6667H27.3333V21C27.3333 21.1598 27.3169 21.318 27.285 21.4722L28.8433 23.0018C28.9016 22.8899 28.955 22.7753 29.0035 22.6583C29.2212 22.1326 29.3333 21.5691 29.3333 21V11C29.3333 10.4309 29.2212 9.86745 29.0035 9.34171C28.7857 8.81596 28.4665 8.33826 28.0641 7.93587C27.6617 7.53348 27.184 7.21429 26.6583 6.99652C26.1325 6.77875 25.5691 6.66667 25 6.66667H12.2021L14.2395 8.66667H25C25.6188 8.66667 26.2123 8.9125 26.6499 9.35009C27.0875 9.78767 27.3333 10.3812 27.3333 11V12.6667Z" fill="black" fill-opacity="0.87"/>
</svg>
