<svg width="32" height="32" viewBox="0 0 32 32" fill="none" xmlns="http://www.w3.org/2000/svg">
<path d="M7.33332 9.33333C7.33332 8.44928 7.68451 7.60143 8.30963 6.97631C8.93476 6.35119 9.7826 6 10.6667 6C11.5507 6 12.3986 6.35119 13.0237 6.97631C13.6488 7.60143 14 8.44928 14 9.33333C14 10.2174 13.6488 11.0652 13.0237 11.6904C12.3986 12.3155 11.5507 12.6667 10.6667 12.6667C9.7826 12.6667 8.93476 12.3155 8.30963 11.6904C7.68451 11.0652 7.33332 10.2174 7.33332 9.33333ZM10.6667 4C9.25217 4 7.89561 4.5619 6.89542 5.5621C5.89523 6.56229 5.33332 7.91885 5.33332 9.33333C5.33332 10.7478 5.89523 12.1044 6.89542 13.1046C7.89561 14.1048 9.25217 14.6667 10.6667 14.6667C12.0811 14.6667 13.4377 14.1048 14.4379 13.1046C15.4381 12.1044 16 10.7478 16 9.33333C16 7.91885 15.4381 6.56229 14.4379 5.5621C13.4377 4.5619 12.0811 4 10.6667 4ZM20.6667 10.6667C20.6667 10.1362 20.8774 9.62753 21.2524 9.25245C21.6275 8.87738 22.1362 8.66667 22.6667 8.66667C23.1971 8.66667 23.7058 8.87738 24.0809 9.25245C24.4559 9.62753 24.6667 10.1362 24.6667 10.6667C24.6667 11.1971 24.4559 11.7058 24.0809 12.0809C23.7058 12.456 23.1971 12.6667 22.6667 12.6667C22.1362 12.6667 21.6275 12.456 21.2524 12.0809C20.8774 11.7058 20.6667 11.1971 20.6667 10.6667ZM22.6667 6.66667C21.6058 6.66667 20.5884 7.08809 19.8382 7.83824C19.0881 8.58839 18.6667 9.6058 18.6667 10.6667C18.6667 11.7275 19.0881 12.7449 19.8382 13.4951C20.5884 14.2452 21.6058 14.6667 22.6667 14.6667C23.7275 14.6667 24.7449 14.2452 25.4951 13.4951C26.2452 12.7449 26.6667 11.7275 26.6667 10.6667C26.6667 9.6058 26.2452 8.58839 25.4951 7.83824C24.7449 7.08809 23.7275 6.66667 22.6667 6.66667ZM15.6667 17.3333C16.068 17.3333 16.4507 17.4133 16.8013 17.5547C16.3894 17.7134 16.0131 17.9523 15.6942 18.2577C15.3754 18.563 15.1204 18.9286 14.944 19.3333H5.66666C5.40144 19.3333 5.14709 19.4387 4.95955 19.6262C4.77201 19.8138 4.66666 20.0681 4.66666 20.3333V20.676L4.67599 20.7827C4.68532 20.8813 4.70666 21.0333 4.74932 21.2213C4.83732 21.596 5.01332 22.096 5.36132 22.5933C6.01866 23.5333 7.43732 24.6667 10.6667 24.6667C12.5427 24.6667 13.8067 24.284 14.6667 23.78V25.9947C13.612 26.4107 12.2973 26.6667 10.6667 26.6667C6.89599 26.6667 4.81332 25.3 3.72266 23.74C3.15269 22.9206 2.79615 21.972 2.68532 20.98C2.67595 20.8887 2.66973 20.7971 2.66666 20.7053V20.3347C2.66648 19.9406 2.74395 19.5503 2.89464 19.1862C3.04532 18.8221 3.26627 18.4912 3.54487 18.2125C3.82346 17.9338 4.15423 17.7127 4.5183 17.5618C4.88236 17.411 5.27258 17.3333 5.66666 17.3333H15.6667ZM16 20.6667C16 20.1362 16.2107 19.6275 16.5858 19.2525C16.9608 18.8774 17.4696 18.6667 18 18.6667H28.6667C29.1971 18.6667 29.7058 18.8774 30.0809 19.2525C30.4559 19.6275 30.6667 20.1362 30.6667 20.6667V26C30.6667 26.5304 30.4559 27.0391 30.0809 27.4142C29.7058 27.7893 29.1971 28 28.6667 28H18C17.4696 28 16.9608 27.7893 16.5858 27.4142C16.2107 27.0391 16 26.5304 16 26V20.6667ZM17.3333 21.3333V22.6667C18.0406 22.6667 18.7188 22.3857 19.2189 21.8856C19.719 21.3855 20 20.7072 20 20H18.6667C18.6667 20.3536 18.5262 20.6928 18.2761 20.9428C18.0261 21.1929 17.6869 21.3333 17.3333 21.3333ZM29.3333 22.6667V21.3333C28.9797 21.3333 28.6406 21.1929 28.3905 20.9428C28.1405 20.6928 28 20.3536 28 20H26.6667C26.6667 20.7072 26.9476 21.3855 27.4477 21.8856C27.9478 22.3857 28.6261 22.6667 29.3333 22.6667ZM26.6667 26.6667H28C28 26.313 28.1405 25.9739 28.3905 25.7239C28.6406 25.4738 28.9797 25.3333 29.3333 25.3333V24C28.6261 24 27.9478 24.281 27.4477 24.781C26.9476 25.2811 26.6667 25.9594 26.6667 26.6667ZM17.3333 24V25.3333C17.6869 25.3333 18.0261 25.4738 18.2761 25.7239C18.5262 25.9739 18.6667 26.313 18.6667 26.6667H20C20 25.9594 19.719 25.2811 19.2189 24.781C18.7188 24.281 18.0406 24 17.3333 24ZM23.3333 25.6667C23.9522 25.6667 24.5457 25.4208 24.9832 24.9832C25.4208 24.5457 25.6667 23.9522 25.6667 23.3333C25.6667 22.7145 25.4208 22.121 24.9832 21.6834C24.5457 21.2458 23.9522 21 23.3333 21C22.7145 21 22.121 21.2458 21.6834 21.6834C21.2458 22.121 21 22.7145 21 23.3333C21 23.9522 21.2458 24.5457 21.6834 24.9832C22.121 25.4208 22.7145 25.6667 23.3333 25.6667Z" fill="black" fill-opacity="0.87"/>
</svg>
