<svg width="32" height="32" viewBox="0 0 32 32" fill="none" xmlns="http://www.w3.org/2000/svg">
<path d="M19.672 13.3333C20.96 13.3333 22.0053 14.3787 22.0053 15.6667V21.9987C22.0053 23.5903 21.373 25.1168 20.2476 26.2423C19.1221 27.3677 17.5956 28 16.004 28C14.4123 28 12.8859 27.3677 11.7604 26.2423C10.6349 25.1168 10.0027 23.5903 10.0027 21.9987V15.6667C10.0027 14.3787 11.0467 13.3333 12.336 13.3333H19.672ZM19.672 15.3333H12.336C12.2476 15.3333 12.1628 15.3685 12.1003 15.431C12.0378 15.4935 12.0027 15.5783 12.0027 15.6667V21.9987C12.0027 23.0599 12.4242 24.0776 13.1746 24.828C13.925 25.5784 14.9428 26 16.004 26C17.0652 26 18.083 25.5784 18.8334 24.828C19.5838 24.0776 20.0053 23.0599 20.0053 21.9987V15.6667C20.0053 15.5783 19.9702 15.4935 19.9077 15.431C19.8452 15.3685 19.7604 15.3333 19.672 15.3333ZM4.99999 13.3333H9.50799C9.03773 13.9015 8.75047 14.5988 8.68399 15.3333H4.99999C4.91158 15.3333 4.8268 15.3685 4.76429 15.431C4.70178 15.4935 4.66666 15.5783 4.66666 15.6667V19.9987C4.66632 20.5026 4.78024 21 4.99985 21.4536C5.21946 21.9072 5.53906 22.305 5.93459 22.6173C6.33013 22.9295 6.79131 23.148 7.28346 23.2563C7.7756 23.3647 8.28591 23.36 8.77599 23.2427C8.88932 23.9147 9.09599 24.556 9.37999 25.152C8.9391 25.272 8.4791 25.3324 7.99999 25.3333C7.29949 25.3333 6.60586 25.1953 5.9587 24.9272C5.31155 24.6591 4.72355 24.2662 4.22828 23.7708C3.73302 23.2754 3.3402 22.6873 3.07225 22.0401C2.8043 21.3928 2.66648 20.6992 2.66666 19.9987V15.6667C2.66666 14.3787 3.71199 13.3333 4.99999 13.3333ZM22.5 13.3333H27C28.288 13.3333 29.3333 14.3787 29.3333 15.6667V20C29.3335 20.8176 29.1457 21.6242 28.7845 22.3576C28.4233 23.0911 27.8983 23.7316 27.2501 24.2298C26.6019 24.728 25.8478 25.0705 25.0461 25.2309C24.2444 25.3913 23.4166 25.3652 22.6267 25.1547C22.912 24.5573 23.1187 23.916 23.2333 23.244C23.4795 23.3027 23.7351 23.3324 24 23.3333C24.884 23.3333 25.7319 22.9821 26.357 22.357C26.9821 21.7319 27.3333 20.8841 27.3333 20V15.6667C27.3333 15.5783 27.2982 15.4935 27.2357 15.431C27.1732 15.3685 27.0884 15.3333 27 15.3333H23.324C23.2575 14.5988 22.9702 13.9015 22.5 13.3333ZM16 4C17.0609 4 18.0783 4.42143 18.8284 5.17157C19.5786 5.92172 20 6.93913 20 8C20 9.06087 19.5786 10.0783 18.8284 10.8284C18.0783 11.5786 17.0609 12 16 12C14.9391 12 13.9217 11.5786 13.1716 10.8284C12.4214 10.0783 12 9.06087 12 8C12 6.93913 12.4214 5.92172 13.1716 5.17157C13.9217 4.42143 14.9391 4 16 4ZM24.6667 5.33333C25.5507 5.33333 26.3986 5.68452 27.0237 6.30964C27.6488 6.93477 28 7.78261 28 8.66667C28 9.55072 27.6488 10.3986 27.0237 11.0237C26.3986 11.6488 25.5507 12 24.6667 12C23.7826 12 22.9348 11.6488 22.3096 11.0237C21.6845 10.3986 21.3333 9.55072 21.3333 8.66667C21.3333 7.78261 21.6845 6.93477 22.3096 6.30964C22.9348 5.68452 23.7826 5.33333 24.6667 5.33333ZM7.33332 5.33333C8.21738 5.33333 9.06522 5.68452 9.69035 6.30964C10.3155 6.93477 10.6667 7.78261 10.6667 8.66667C10.6667 9.55072 10.3155 10.3986 9.69035 11.0237C9.06522 11.6488 8.21738 12 7.33332 12C6.44927 12 5.60142 11.6488 4.9763 11.0237C4.35118 10.3986 3.99999 9.55072 3.99999 8.66667C3.99999 7.78261 4.35118 6.93477 4.9763 6.30964C5.60142 5.68452 6.44927 5.33333 7.33332 5.33333ZM16 6C15.4696 6 14.9608 6.21071 14.5858 6.58579C14.2107 6.96086 14 7.46957 14 8C14 8.53043 14.2107 9.03914 14.5858 9.41421C14.9608 9.78929 15.4696 10 16 10C16.5304 10 17.0391 9.78929 17.4142 9.41421C17.7893 9.03914 18 8.53043 18 8C18 7.46957 17.7893 6.96086 17.4142 6.58579C17.0391 6.21071 16.5304 6 16 6ZM24.6667 7.33333C24.313 7.33333 23.9739 7.47381 23.7238 7.72386C23.4738 7.97391 23.3333 8.31305 23.3333 8.66667C23.3333 9.02029 23.4738 9.35943 23.7238 9.60948C23.9739 9.85952 24.313 10 24.6667 10C25.0203 10 25.3594 9.85952 25.6095 9.60948C25.8595 9.35943 26 9.02029 26 8.66667C26 8.31305 25.8595 7.97391 25.6095 7.72386C25.3594 7.47381 25.0203 7.33333 24.6667 7.33333ZM7.33332 7.33333C6.9797 7.33333 6.64056 7.47381 6.39051 7.72386C6.14047 7.97391 5.99999 8.31305 5.99999 8.66667C5.99999 9.02029 6.14047 9.35943 6.39051 9.60948C6.64056 9.85952 6.9797 10 7.33332 10C7.68694 10 8.02608 9.85952 8.27613 9.60948C8.52618 9.35943 8.66666 9.02029 8.66666 8.66667C8.66666 8.31305 8.52618 7.97391 8.27613 7.72386C8.02608 7.47381 7.68694 7.33333 7.33332 7.33333Z" fill="black" fill-opacity="0.87"/>
</svg>
