<svg width="32" height="32" viewBox="0 0 32 32" fill="none" xmlns="http://www.w3.org/2000/svg">
<path d="M10.6667 6C9.7826 6 8.93475 6.35119 8.30963 6.97631C7.68451 7.60143 7.33332 8.44928 7.33332 9.33333C7.33332 10.2174 7.68451 11.0652 8.30963 11.6904C8.93475 12.3155 9.7826 12.6667 10.6667 12.6667C11.5507 12.6667 12.3986 12.3155 13.0237 11.6904C13.6488 11.0652 14 10.2174 14 9.33333C14 8.44928 13.6488 7.60143 13.0237 6.97631C12.3986 6.35119 11.5507 6 10.6667 6ZM5.33332 9.33333C5.33332 7.91885 5.89523 6.56229 6.89542 5.5621C7.89561 4.5619 9.25217 4 10.6667 4C12.0811 4 13.4377 4.5619 14.4379 5.5621C15.4381 6.56229 16 7.91885 16 9.33333C16 10.7478 15.4381 12.1044 14.4379 13.1046C13.4377 14.1048 12.0811 14.6667 10.6667 14.6667C9.25217 14.6667 7.89561 14.1048 6.89542 13.1046C5.89523 12.1044 5.33332 10.7478 5.33332 9.33333ZM22.6667 8.66667C22.1362 8.66667 21.6275 8.87738 21.2524 9.25245C20.8774 9.62753 20.6667 10.1362 20.6667 10.6667C20.6667 11.1971 20.8774 11.7058 21.2524 12.0809C21.6275 12.456 22.1362 12.6667 22.6667 12.6667C23.1971 12.6667 23.7058 12.456 24.0809 12.0809C24.4559 11.7058 24.6667 11.1971 24.6667 10.6667C24.6667 10.1362 24.4559 9.62753 24.0809 9.25245C23.7058 8.87738 23.1971 8.66667 22.6667 8.66667ZM18.6667 10.6667C18.667 9.9611 18.854 9.26818 19.2086 8.65821C19.5632 8.04824 20.0729 7.54292 20.6859 7.19353C21.2988 6.84413 21.9933 6.66309 22.6989 6.66878C23.4044 6.67446 24.0959 6.86667 24.7032 7.2259C25.3105 7.58513 25.8119 8.09859 26.1567 8.7142C26.5014 9.32981 26.6772 10.0256 26.6662 10.7311C26.6551 11.4366 26.4577 12.1266 26.0939 12.7312C25.7301 13.3357 25.2129 13.8333 24.5947 14.1733C23.5144 13.8695 22.3608 13.9651 21.3453 14.4427C20.5624 14.1687 19.8841 13.6581 19.4042 12.9816C18.9243 12.3051 18.6665 11.4961 18.6667 10.6667ZM18.2693 18.84C18.0065 18.382 17.6274 18.0015 17.1704 17.737C16.7134 17.4724 16.1947 17.3332 15.6667 17.3333H5.66666C4.87101 17.3333 4.10795 17.6494 3.54534 18.212C2.98273 18.7746 2.66666 19.5377 2.66666 20.3333V20.704C2.66805 20.7967 2.67428 20.8893 2.68532 20.9813C2.79615 21.9733 3.15269 22.9219 3.72266 23.7413C4.81332 25.2987 6.89599 26.6667 10.6667 26.6667C13.0707 26.6667 14.788 26.1107 16 25.304V22.5533L15.9733 22.5933C15.3133 23.5333 13.8947 24.6667 10.6667 24.6667C7.43866 24.6667 6.01866 23.5333 5.35999 22.5933C4.987 22.0545 4.75211 21.4322 4.67599 20.7813L4.66666 20.676V20.3333C4.66666 20.0681 4.77201 19.8138 4.95955 19.6262C5.14709 19.4387 5.40144 19.3333 5.66666 19.3333H15.6667C15.883 19.3333 16.0936 19.4035 16.2667 19.5333C16.4398 19.6632 16.5661 19.8456 16.6267 20.0533C17.0307 19.4933 17.6027 19.064 18.2693 18.84ZM19.3333 20H20V18.6667C20 17.7826 20.3512 16.9348 20.9763 16.3096C21.6014 15.6845 22.4493 15.3333 23.3333 15.3333C24.2174 15.3333 25.0652 15.6845 25.6903 16.3096C26.3155 16.9348 26.6667 17.7826 26.6667 18.6667V20H27.3333C27.8638 20 28.3725 20.2107 28.7475 20.5858C29.1226 20.9609 29.3333 21.4696 29.3333 22V28.6667C29.3333 29.1971 29.1226 29.7058 28.7475 30.0809C28.3725 30.4559 27.8638 30.6667 27.3333 30.6667H19.3333C18.8029 30.6667 18.2942 30.4559 17.9191 30.0809C17.544 29.7058 17.3333 29.1971 17.3333 28.6667V22C17.3333 21.4696 17.544 20.9609 17.9191 20.5858C18.2942 20.2107 18.8029 20 19.3333 20ZM22 18.6667V20H24.6667V18.6667C24.6667 18.313 24.5262 17.9739 24.2761 17.7239C24.0261 17.4738 23.6869 17.3333 23.3333 17.3333C22.9797 17.3333 22.6406 17.4738 22.3905 17.7239C22.1405 17.9739 22 18.313 22 18.6667ZM24.6667 25.3333C24.6667 24.9797 24.5262 24.6406 24.2761 24.3905C24.0261 24.1405 23.6869 24 23.3333 24C22.9797 24 22.6406 24.1405 22.3905 24.3905C22.1405 24.6406 22 24.9797 22 25.3333C22 25.687 22.1405 26.0261 22.3905 26.2761C22.6406 26.5262 22.9797 26.6667 23.3333 26.6667C23.6869 26.6667 24.0261 26.5262 24.2761 26.2761C24.5262 26.0261 24.6667 25.687 24.6667 25.3333Z" fill="black" fill-opacity="0.87"/>
</svg>
