<svg width="32" height="32" viewBox="0 0 32 32" fill="none" xmlns="http://www.w3.org/2000/svg">
<path d="M19.672 13.3333C20.1747 13.3331 20.664 13.4951 21.0672 13.7955C21.4703 14.0958 21.7657 14.5183 21.9093 15H21C20.4533 15 19.936 15.12 19.4707 15.3333H12.336C12.2476 15.3333 12.1628 15.3685 12.1003 15.431C12.0378 15.4935 12.0027 15.5783 12.0027 15.6667V21.9987C12.0027 23.74 13.1147 25.2213 14.6667 25.772V27.8507C13.3412 27.5479 12.1579 26.804 11.3106 25.7409C10.4632 24.6777 10.0021 23.3582 10.0027 21.9987V15.6667C10.0027 14.3787 11.0467 13.3333 12.336 13.3333H19.672ZM25.6667 15C26.6364 15 27.5666 15.3841 28.2537 16.0683C28.9409 16.7525 29.3291 17.681 29.3333 18.6507V15.6667C29.3333 15.0478 29.0875 14.4543 28.6499 14.0167C28.2123 13.5792 27.6188 13.3333 27 13.3333H22.5C22.8893 13.804 23.1627 14.3733 23.2787 15H25.6667ZM4.99999 13.3333H9.50799C9.03773 13.9015 8.75047 14.5988 8.68399 15.3333H4.99999C4.91158 15.3333 4.8268 15.3685 4.76429 15.431C4.70178 15.4935 4.66666 15.5783 4.66666 15.6667V19.9987C4.66632 20.5026 4.78024 21 4.99985 21.4536C5.21947 21.9072 5.53906 22.305 5.93459 22.6173C6.33013 22.9295 6.79131 23.148 7.28346 23.2563C7.7756 23.3647 8.28591 23.36 8.77599 23.2427C8.88932 23.9147 9.09599 24.556 9.37999 25.152C8.9391 25.272 8.4791 25.3324 7.99999 25.3333C7.29949 25.3333 6.60586 25.1953 5.9587 24.9272C5.31155 24.6591 4.72355 24.2662 4.22828 23.7708C3.73302 23.2754 3.3402 22.6873 3.07225 22.0401C2.8043 21.3928 2.66648 20.6992 2.66666 19.9987V15.6667C2.66666 14.3787 3.71199 13.3333 4.99999 13.3333ZM16 4C17.0609 4 18.0783 4.42143 18.8284 5.17157C19.5786 5.92172 20 6.93913 20 8C20 9.06087 19.5786 10.0783 18.8284 10.8284C18.0783 11.5786 17.0609 12 16 12C14.9391 12 13.9217 11.5786 13.1716 10.8284C12.4214 10.0783 12 9.06087 12 8C12 6.93913 12.4214 5.92172 13.1716 5.17157C13.9217 4.42143 14.9391 4 16 4ZM16 6C15.4696 6 14.9608 6.21071 14.5858 6.58579C14.2107 6.96086 14 7.46957 14 8C14 8.53043 14.2107 9.03914 14.5858 9.41421C14.9608 9.78929 15.4696 10 16 10C16.5304 10 17.0391 9.78929 17.4142 9.41421C17.7893 9.03914 18 8.53043 18 8C18 7.46957 17.7893 6.96086 17.4142 6.58579C17.0391 6.21071 16.5304 6 16 6ZM24.6667 5.33333C25.5507 5.33333 26.3986 5.68452 27.0237 6.30964C27.6488 6.93477 28 7.78261 28 8.66667C28 9.55072 27.6488 10.3986 27.0237 11.0237C26.3986 11.6488 25.5507 12 24.6667 12C23.7826 12 22.9348 11.6488 22.3096 11.0237C21.6845 10.3986 21.3333 9.55072 21.3333 8.66667C21.3333 7.78261 21.6845 6.93477 22.3096 6.30964C22.9348 5.68452 23.7826 5.33333 24.6667 5.33333ZM24.6667 7.33333C24.313 7.33333 23.9739 7.47381 23.7238 7.72386C23.4738 7.97391 23.3333 8.31304 23.3333 8.66667C23.3333 9.02029 23.4738 9.35943 23.7238 9.60948C23.9739 9.85952 24.313 10 24.6667 10C25.0203 10 25.3594 9.85952 25.6095 9.60948C25.8595 9.35943 26 9.02029 26 8.66667C26 8.31304 25.8595 7.97391 25.6095 7.72386C25.3594 7.47381 25.0203 7.33333 24.6667 7.33333ZM7.33332 5.33333C8.21738 5.33333 9.06522 5.68452 9.69035 6.30964C10.3155 6.93477 10.6667 7.78261 10.6667 8.66667C10.6667 9.55072 10.3155 10.3986 9.69035 11.0237C9.06522 11.6488 8.21738 12 7.33332 12C6.44927 12 5.60142 11.6488 4.9763 11.0237C4.35118 10.3986 3.99999 9.55072 3.99999 8.66667C3.99999 7.78261 4.35118 6.93477 4.9763 6.30964C5.60142 5.68452 6.44927 5.33333 7.33332 5.33333ZM7.33332 7.33333C6.9797 7.33333 6.64056 7.47381 6.39051 7.72386C6.14047 7.97391 5.99999 8.31304 5.99999 8.66667C5.99999 9.02029 6.14047 9.35943 6.39051 9.60948C6.64056 9.85952 6.9797 10 7.33332 10C7.68695 10 8.02608 9.85952 8.27613 9.60948C8.52618 9.35943 8.66666 9.02029 8.66666 8.66667C8.66666 8.31304 8.52618 7.97391 8.27613 7.72386C8.02608 7.47381 7.68695 7.33333 7.33332 7.33333ZM18.6667 20H18C17.4696 20 16.9608 20.2107 16.5858 20.5858C16.2107 20.9609 16 21.4696 16 22V24H19.3333V23.6667C19.3333 23.4014 19.4387 23.1471 19.6262 22.9596C19.8138 22.772 20.0681 22.6667 20.3333 22.6667C20.5985 22.6667 20.8529 22.772 21.0404 22.9596C21.228 23.1471 21.3333 23.4014 21.3333 23.6667V24H25.3333V23.6667C25.3333 23.4014 25.4387 23.1471 25.6262 22.9596C25.8138 22.772 26.0681 22.6667 26.3333 22.6667C26.5985 22.6667 26.8529 22.772 27.0404 22.9596C27.228 23.1471 27.3333 23.4014 27.3333 23.6667V24H30.6667V22C30.6667 21.4696 30.4559 20.9609 30.0809 20.5858C29.7058 20.2107 29.1971 20 28.6667 20H28V18.6667C28 18.0478 27.7542 17.4543 27.3166 17.0167C26.879 16.5792 26.2855 16.3333 25.6667 16.3333H21C20.3812 16.3333 19.7877 16.5792 19.3501 17.0167C18.9125 17.4543 18.6667 18.0478 18.6667 18.6667V20ZM20.6667 18.6667C20.6667 18.5783 20.7018 18.4935 20.7643 18.431C20.8268 18.3685 20.9116 18.3333 21 18.3333H25.6667C25.7551 18.3333 25.8398 18.3685 25.9024 18.431C25.9649 18.4935 26 18.5783 26 18.6667V20H20.6667V18.6667ZM16 28.6667V26H19.3333V27C19.3333 27.2652 19.4387 27.5196 19.6262 27.7071C19.8138 27.8946 20.0681 28 20.3333 28C20.5985 28 20.8529 27.8946 21.0404 27.7071C21.228 27.5196 21.3333 27.2652 21.3333 27V26H25.3333V27C25.3333 27.2652 25.4387 27.5196 25.6262 27.7071C25.8138 27.8946 26.0681 28 26.3333 28C26.5985 28 26.8529 27.8946 27.0404 27.7071C27.228 27.5196 27.3333 27.2652 27.3333 27V26H30.6667V28.6667C30.6667 29.1971 30.4559 29.7058 30.0809 30.0809C29.7058 30.4559 29.1971 30.6667 28.6667 30.6667H18C17.4696 30.6667 16.9608 30.4559 16.5858 30.0809C16.2107 29.7058 16 29.1971 16 28.6667Z" fill="black" fill-opacity="0.87"/>
</svg>
