<svg width="32" height="32" viewBox="0 0 32 32" fill="none" xmlns="http://www.w3.org/2000/svg">
<path d="M23.9414 4.22787C24.2345 4.42558 24.4371 4.73161 24.5046 5.07866C24.5721 5.42571 24.499 5.78537 24.3014 6.07854L9.91071 27.4119C9.81423 27.5602 9.68918 27.6879 9.54286 27.7874C9.39654 27.887 9.23186 27.9564 9.05844 27.9916C8.88502 28.0268 8.70632 28.0272 8.53275 27.9927C8.35919 27.9581 8.19423 27.8894 8.04751 27.7905C7.90078 27.6915 7.77522 27.5644 7.67814 27.4164C7.58106 27.2684 7.51441 27.1026 7.48207 26.9286C7.44973 26.7547 7.45234 26.576 7.48977 26.403C7.52719 26.23 7.59867 26.0663 7.70004 25.9212L22.0894 4.58787C22.1873 4.44255 22.3129 4.31796 22.4589 4.2212C22.605 4.12445 22.7688 4.05744 22.9408 4.02401C23.1128 3.99058 23.2897 3.99137 23.4614 4.02635C23.633 4.06133 23.7962 4.12981 23.9414 4.22787ZM8.66671 6.66654C7.95946 6.66654 7.28119 6.94749 6.78109 7.44759C6.28099 7.94768 6.00004 8.62596 6.00004 9.33321C6.00004 10.0404 6.28099 10.7187 6.78109 11.2188C7.28119 11.7189 7.95946 11.9999 8.66671 11.9999C9.37395 11.9999 10.0522 11.7189 10.5523 11.2188C11.0524 10.7187 11.3334 10.0404 11.3334 9.33321C11.3334 8.62596 11.0524 7.94768 10.5523 7.44759C10.0522 6.94749 9.37395 6.66654 8.66671 6.66654ZM3.33337 9.33321C3.33337 7.91872 3.89528 6.56216 4.89547 5.56197C5.89567 4.56178 7.25222 3.99987 8.66671 3.99987C10.0812 3.99987 11.4377 4.56178 12.4379 5.56197C13.4381 6.56216 14 7.91872 14 9.33321C14 10.7477 13.4381 12.1042 12.4379 13.1044C11.4377 14.1046 10.0812 14.6665 8.66671 14.6665C7.25222 14.6665 5.89567 14.1046 4.89547 13.1044C3.89528 12.1042 3.33337 10.7477 3.33337 9.33321ZM20.6667 22.6665C20.6667 21.9593 20.9477 21.281 21.4478 20.7809C21.9479 20.2808 22.6261 19.9999 23.3334 19.9999C24.0406 19.9999 24.7189 20.2808 25.219 20.7809C25.7191 21.281 26 21.9593 26 22.6665C26 23.3738 25.7191 24.0521 25.219 24.5522C24.7189 25.0523 24.0406 25.3332 23.3334 25.3332C22.6261 25.3332 21.9479 25.0523 21.4478 24.5522C20.9477 24.0521 20.6667 23.3738 20.6667 22.6665ZM23.3334 17.3332C21.9189 17.3332 20.5623 17.8951 19.5621 18.8953C18.5619 19.8955 18 21.2521 18 22.6665C18 24.081 18.5619 25.4376 19.5621 26.4378C20.5623 27.438 21.9189 27.9999 23.3334 27.9999C24.7479 27.9999 26.1044 27.438 27.1046 26.4378C28.1048 25.4376 28.6667 24.081 28.6667 22.6665C28.6667 21.2521 28.1048 19.8955 27.1046 18.8953C26.1044 17.8951 24.7479 17.3332 23.3334 17.3332Z" fill="black" fill-opacity="0.87"/>
</svg>
