<svg width="32" height="32" viewBox="0 0 32 32" fill="none" xmlns="http://www.w3.org/2000/svg">
<path d="M22.6613 15.3267C24.6063 15.3267 26.4715 16.0993 27.8468 17.4746C29.222 18.8498 29.9947 20.7151 29.9947 22.66C29.9947 24.6049 29.222 26.4702 27.8468 27.8454C26.4715 29.2207 24.6063 29.9933 22.6613 29.9933C20.7164 29.9933 18.8511 29.2207 17.4759 27.8454C16.1006 26.4702 15.328 24.6049 15.328 22.66C15.328 20.7151 16.1006 18.8498 17.4759 17.4746C18.8511 16.0993 20.7164 15.3267 22.6613 15.3267ZM15.3587 17.9933C14.9594 18.6169 14.6417 19.289 14.4133 19.9933H4.99867C4.73345 19.9933 4.4791 20.0987 4.29156 20.2862C4.10402 20.4738 3.99867 20.7281 3.99867 20.9933V21.7627C3.99867 22.476 4.25467 23.1667 4.71867 23.7093C6.38933 25.668 9.012 26.6613 12.6613 26.6613C13.4578 26.6613 14.2044 26.6142 14.9013 26.52C15.2293 27.18 15.6387 27.792 16.1173 28.3427C15.0569 28.556 13.9049 28.6627 12.6613 28.6627C8.468 28.6627 5.28533 27.4547 3.19733 25.0093C2.42451 24.1041 1.99996 22.9529 2 21.7627V20.992C2.00035 20.1968 2.3164 19.4343 2.87868 18.872C3.44096 18.3097 4.20348 17.9937 4.99867 17.9933H15.3587ZM22.6613 17.9933L22.5413 18.004C22.4081 18.0283 22.2855 18.0927 22.1897 18.1884C22.094 18.2842 22.0297 18.4068 22.0053 18.54L21.9947 18.66V21.9933H18.6667L18.5467 22.004C18.4135 22.0283 18.2908 22.0927 18.1951 22.1884C18.0993 22.2842 18.035 22.4068 18.0107 22.54L18 22.66L18.0107 22.78C18.035 22.9132 18.0993 23.0358 18.1951 23.1316C18.2908 23.2273 18.4135 23.2917 18.5467 23.316L18.6667 23.3267H21.9947V26.66L22.0053 26.78C22.0297 26.9132 22.094 27.0358 22.1897 27.1316C22.2855 27.2273 22.4081 27.2917 22.5413 27.316L22.6613 27.3267L22.7813 27.316C22.9145 27.2917 23.0372 27.2273 23.1329 27.1316C23.2287 27.0358 23.293 26.9132 23.3173 26.78L23.328 26.66V23.3267H26.6667L26.7867 23.316C26.9199 23.2917 27.0425 23.2273 27.1383 23.1316C27.234 23.0358 27.2983 22.9132 27.3227 22.78L27.3333 22.66L27.3227 22.54C27.2983 22.4068 27.234 22.2842 27.1383 22.1884C27.0425 22.0927 26.9199 22.0283 26.7867 22.004L26.6667 21.9933H23.328V18.66L23.3173 18.54C23.293 18.4068 23.2287 18.2842 23.1329 18.1884C23.0372 18.0927 22.9145 18.0283 22.7813 18.004L22.6613 17.9933ZM12.6613 2C13.5368 2 14.4037 2.17244 15.2126 2.50747C16.0214 2.8425 16.7563 3.33356 17.3754 3.95262C17.9944 4.57168 18.4855 5.30661 18.8205 6.11544C19.1556 6.92428 19.328 7.79119 19.328 8.66667C19.328 9.54215 19.1556 10.4091 18.8205 11.2179C18.4855 12.0267 17.9944 12.7617 17.3754 13.3807C16.7563 13.9998 16.0214 14.4908 15.2126 14.8259C14.4037 15.1609 13.5368 15.3333 12.6613 15.3333C10.8932 15.3333 9.19753 14.631 7.94729 13.3807C6.69705 12.1305 5.99467 10.4348 5.99467 8.66667C5.99467 6.89856 6.69705 5.20286 7.94729 3.95262C9.19753 2.70238 10.8932 2 12.6613 2ZM12.6613 4C12.0485 4 11.4417 4.12071 10.8755 4.35523C10.3093 4.58975 9.79484 4.93349 9.3615 5.36683C8.92816 5.80017 8.58442 6.31462 8.3499 6.88081C8.11537 7.447 7.99467 8.05383 7.99467 8.66667C7.99467 9.2795 8.11537 9.88634 8.3499 10.4525C8.58442 11.0187 8.92816 11.5332 9.3615 11.9665C9.79484 12.3998 10.3093 12.7436 10.8755 12.9781C11.4417 13.2126 12.0485 13.3333 12.6613 13.3333C13.899 13.3333 15.086 12.8417 15.9612 11.9665C16.8363 11.0913 17.328 9.90434 17.328 8.66667C17.328 7.42899 16.8363 6.242 15.9612 5.36683C15.086 4.49166 13.899 4 12.6613 4Z" fill="black" fill-opacity="0.87"/>
</svg>
