<svg width="32" height="32" viewBox="0 0 32 32" fill="none" xmlns="http://www.w3.org/2000/svg">
<path d="M19.6933 16.5333C19.8933 16.6267 20.12 16.6667 20.3333 16.6667C20.7733 16.6667 21.1867 16.4933 21.5067 16.1867L24.4133 13.3333H25.6667C27.6933 13.3333 29.3333 11.6933 29.3333 9.66666V6.33332C29.3333 4.30666 27.6933 2.66666 25.6667 2.66666H19.6667C17.64 2.66666 16 4.30666 16 6.33332V9.66666C16 11.3467 17.1333 12.76 18.6667 13.2V15C18.6667 15.6667 19.08 16.2667 19.6933 16.5333ZM18 6.33332C18 5.41332 18.7467 4.66666 19.6667 4.66666H25.6667C26.5867 4.66666 27.3333 5.41332 27.3333 6.33332V9.66666C27.3333 10.5867 26.5867 11.3333 25.6667 11.3333H23.5867L20.6667 14.2V11.3333H19.6667C18.7467 11.3333 18 10.5867 18 9.66666V6.33332ZM10.6667 18C8.09332 18 5.99999 15.9067 5.99999 13.3333C5.99999 10.76 8.09332 8.66666 10.6667 8.66666C13.24 8.66666 15.3333 10.76 15.3333 13.3333C15.3333 15.9067 13.24 18 10.6667 18ZM10.6667 10.6667C9.19999 10.6667 7.99999 11.8667 7.99999 13.3333C7.99999 14.8 9.19999 16 10.6667 16C12.1333 16 13.3333 14.8 13.3333 13.3333C13.3333 11.8667 12.1333 10.6667 10.6667 10.6667ZM10.6667 29.3333C7.91999 29.3333 5.81332 28.5867 4.39999 27.1067C2.61865 25.2347 2.66265 22.8747 2.66665 22.6307V22.6133C2.66665 21.1867 3.86665 20 5.33332 20H16C17.4667 20 18.6667 21.2 18.6667 22.6667L18.668 22.6747C18.672 22.844 18.728 25.2213 16.9347 27.1067C15.52 28.5867 13.4133 29.3333 10.6667 29.3333ZM5.33332 22C4.95999 22 4.66665 22.2933 4.66665 22.6667V22.6733C4.66665 22.8 4.64399 24.4707 5.86665 25.7467C6.87999 26.8 8.49332 27.3333 10.6667 27.3333C12.84 27.3333 14.4667 26.7867 15.48 25.72C16.6973 24.4507 16.6693 22.7973 16.6667 22.7093V22.7067C16.6667 22.2933 16.36 21.9867 16 21.9867H5.33332V22Z" fill="black" fill-opacity="0.87"/>
</svg>
