<svg width="32" height="32" viewBox="0 0 32 32" fill="none" xmlns="http://www.w3.org/2000/svg">
<path d="M23.6733 18.6667C24.4685 18.6674 25.2309 18.9838 25.7929 19.5463C26.355 20.1088 26.6707 20.8715 26.6707 21.6667V22.4333C26.6707 23.6253 26.244 24.7787 25.4707 25.684C23.3773 28.128 20.1947 29.3347 16 29.3347C11.8053 29.3347 8.62399 28.128 6.53599 25.6813C5.76346 24.7765 5.33893 23.6258 5.33865 22.436V21.6653C5.33901 20.8702 5.65505 20.1076 6.21733 19.5454C6.77962 18.9831 7.54213 18.667 8.33732 18.6667H23.6733ZM23.6733 20.6667H8.33599C8.07077 20.6667 7.81642 20.772 7.62888 20.9596C7.44134 21.1471 7.33599 21.4015 7.33599 21.6667V22.436C7.33599 23.1493 7.59199 23.84 8.05599 24.3827C9.72665 26.3413 12.3493 27.3347 15.9987 27.3347C19.6507 27.3347 22.2733 26.3413 23.9493 24.384C24.4142 23.8404 24.6695 23.1486 24.6693 22.4333V21.6653C24.669 21.4008 24.5638 21.1472 24.3769 20.96C24.19 20.7729 23.9378 20.6674 23.6733 20.6667ZM16 2.67334C16.8755 2.67334 17.7424 2.84578 18.5512 3.18081C19.36 3.51584 20.095 4.0069 20.714 4.62596C21.3331 5.24502 21.8242 5.97995 22.1592 6.78878C22.4942 7.59762 22.6667 8.46453 22.6667 9.34001C22.6667 10.2155 22.4942 11.0824 22.1592 11.8912C21.8242 12.7001 21.3331 13.435 20.714 14.0541C20.095 14.6731 19.36 15.1642 18.5512 15.4992C17.7424 15.8342 16.8755 16.0067 16 16.0067C14.2319 16.0067 12.5362 15.3043 11.2859 14.0541C10.0357 12.8038 9.33332 11.1081 9.33332 9.34001C9.33332 7.5719 10.0357 5.8762 11.2859 4.62596C12.5362 3.37572 14.2319 2.67334 16 2.67334ZM16 4.67334C15.3872 4.67334 14.7803 4.79405 14.2141 5.02857C13.6479 5.26309 13.1335 5.60683 12.7002 6.04017C12.2668 6.47351 11.9231 6.98796 11.6885 7.55415C11.454 8.12034 11.3333 8.72717 11.3333 9.34001C11.3333 9.95284 11.454 10.5597 11.6885 11.1259C11.9231 11.692 12.2668 12.2065 12.7002 12.6398C13.1335 13.0732 13.6479 13.4169 14.2141 13.6514C14.7803 13.886 15.3872 14.0067 16 14.0067C17.2377 14.0067 18.4246 13.515 19.2998 12.6398C20.175 11.7647 20.6667 10.5777 20.6667 9.34001C20.6667 8.10233 20.175 6.91534 19.2998 6.04017C18.4246 5.165 17.2377 4.67334 16 4.67334Z" fill="black" fill-opacity="0.87"/>
</svg>
