<svg width="32" height="32" viewBox="0 0 32 32" fill="none" xmlns="http://www.w3.org/2000/svg">
<path d="M20 20.6667C20 19.9653 20.12 19.292 20.3413 18.6667H8.33734C7.54192 18.6667 6.77906 18.9826 6.21649 19.5449C5.65392 20.1072 5.33769 20.8699 5.33734 21.6653V22.4347C5.33734 23.6253 5.76401 24.776 6.53734 25.6813C8.39601 27.8613 11.1253 29.0573 14.6667 29.2933V27.8867C14.6667 27.6858 14.6889 27.488 14.7333 27.2933C11.736 27.084 9.52801 26.1067 8.05734 24.384C7.59337 23.8414 7.33808 23.1512 7.33734 22.4373V21.6667C7.33734 21.4014 7.4427 21.1471 7.63024 20.9596C7.81777 20.772 8.07212 20.6667 8.33734 20.6667H20ZM16 2.672C17.7681 2.672 19.4638 3.37438 20.7141 4.62462C21.9643 5.87486 22.6667 7.57055 22.6667 9.33866C22.6667 11.1068 21.9643 12.8025 20.7141 14.0527C19.4638 15.303 17.7681 16.0053 16 16.0053C14.2319 16.0053 12.5362 15.303 11.286 14.0527C10.0357 12.8025 9.33334 11.1068 9.33334 9.33866C9.33334 7.57055 10.0357 5.87486 11.286 4.62462C12.5362 3.37438 14.2319 2.672 16 2.672ZM16 4.672C14.7623 4.672 13.5753 5.16366 12.7002 6.03883C11.825 6.914 11.3333 8.10099 11.3333 9.33866C11.3333 10.5763 11.825 11.7633 12.7002 12.6385C13.5753 13.5137 14.7623 14.0053 16 14.0053C17.2377 14.0053 18.4247 13.5137 19.2998 12.6385C20.175 11.7633 20.6667 10.5763 20.6667 9.33866C20.6667 8.10099 20.175 6.914 19.2998 6.03883C18.4247 5.16366 17.2377 4.672 16 4.672ZM26 25.3333C26.9739 25.333 27.9233 25.028 28.7151 24.461C29.5069 23.894 30.1016 23.0935 30.4156 22.1717C30.7297 21.2498 30.7475 20.2528 30.4666 19.3203C30.1856 18.3879 29.6199 17.5666 28.8489 16.9718C28.0778 16.3769 27.1399 16.0382 26.1666 16.003C25.1934 15.9679 24.2335 16.2382 23.4216 16.7759C22.6096 17.3136 21.9862 18.0919 21.6388 19.0017C21.2913 19.9115 21.2372 20.9072 21.484 21.8493L16.3907 26.9427C16.1406 27.1927 16.0001 27.5317 16 27.8853V30C16 30.1768 16.0702 30.3464 16.1953 30.4714C16.3203 30.5964 16.4899 30.6667 16.6667 30.6667H19.3333C19.5102 30.6667 19.6797 30.5964 19.8047 30.4714C19.9298 30.3464 20 30.1768 20 30V29.3333H21.3333C21.5102 29.3333 21.6797 29.2631 21.8047 29.1381C21.9298 29.013 22 28.8435 22 28.6667V27.3333H23.3333C23.5102 27.3333 23.6797 27.2631 23.8047 27.1381C23.9298 27.013 24 26.8435 24 26.6667V25.3333H26ZM26.6667 18.6667C27.0203 18.6667 27.3594 18.8071 27.6095 19.0572C27.8595 19.3072 28 19.6464 28 20C28 20.3536 27.8595 20.6928 27.6095 20.9428C27.3594 21.1929 27.0203 21.3333 26.6667 21.3333C26.3131 21.3333 25.9739 21.1929 25.7239 20.9428C25.4738 20.6928 25.3333 20.3536 25.3333 20C25.3333 19.6464 25.4738 19.3072 25.7239 19.0572C25.9739 18.8071 26.3131 18.6667 26.6667 18.6667Z" fill="black" fill-opacity="0.87"/>
</svg>
