<svg width="32" height="32" viewBox="0 0 32 32" fill="none" xmlns="http://www.w3.org/2000/svg">
<path d="M15.88 18.6653L26.3373 18.6667C27.133 18.6667 27.896 18.9827 28.4586 19.5454C29.0212 20.108 29.3373 20.871 29.3373 21.6667V22.8733C29.3373 23.5938 29.1816 24.3058 28.8808 24.9606C28.58 25.6153 28.1413 26.1973 27.5946 26.6667C25.5066 28.46 22.52 29.336 18.6666 29.336H18.428C18.5812 29.0254 18.6637 28.6848 18.6697 28.3386C18.6757 27.9923 18.605 27.649 18.4626 27.3333L18.6666 27.336C22.08 27.336 24.6106 26.5947 26.292 25.1507C26.6199 24.869 26.8831 24.5198 27.0635 24.127C27.2439 23.7341 27.3373 23.307 27.3373 22.8747V21.668C27.3373 21.4028 27.232 21.1484 27.0444 20.9609C26.8569 20.7734 26.6025 20.668 26.3373 20.668H15.9693C16.0296 19.9999 15.9995 19.3267 15.88 18.6667M8.66665 14C9.80646 14.0001 10.9227 14.3248 11.8847 14.9361C12.8466 15.5475 13.6146 16.4202 14.0986 17.4522C14.5826 18.4841 14.7626 19.6326 14.6177 20.7631C14.4727 21.8937 14.0087 22.9596 13.28 23.836L17.044 27.588C17.2217 27.7665 17.3255 28.0054 17.3348 28.2571C17.344 28.5087 17.2579 28.7546 17.0937 28.9456C16.9295 29.1366 16.6993 29.2586 16.4491 29.2872C16.1989 29.3158 15.9471 29.249 15.744 29.1L15.6306 29.004L11.76 25.1427C10.9674 25.619 10.0755 25.9057 9.15388 25.9804C8.23223 26.0551 7.3058 25.9158 6.44689 25.5733C5.58799 25.2308 4.81986 24.6944 4.20248 24.0061C3.5851 23.3177 3.13518 22.4959 2.88783 21.605C2.64049 20.714 2.60242 19.7779 2.7766 18.8698C2.95077 17.9617 3.33248 17.1061 3.89192 16.3699C4.45137 15.6337 5.1734 15.0367 6.00166 14.6256C6.82991 14.2145 7.74198 14.0004 8.66665 14ZM8.66665 16C7.60578 16 6.58836 16.4214 5.83822 17.1716C5.08807 17.9217 4.66664 18.9391 4.66664 20C4.66664 21.0609 5.08807 22.0783 5.83822 22.8284C6.58836 23.5786 7.60578 24 8.66665 24C9.72751 24 10.7449 23.5786 11.4951 22.8284C12.2452 22.0783 12.6666 21.0609 12.6666 20C12.6666 18.9391 12.2452 17.9217 11.4951 17.1716C10.7449 16.4214 9.72751 16 8.66665 16ZM18.6666 2.67334C19.5421 2.67334 20.409 2.84578 21.2179 3.18081C22.0267 3.51584 22.7616 4.0069 23.3807 4.62596C23.9997 5.24502 24.4908 5.97995 24.8258 6.78878C25.1609 7.59762 25.3333 8.46453 25.3333 9.34001C25.3333 10.2155 25.1609 11.0824 24.8258 11.8912C24.4908 12.7001 23.9997 13.435 23.3807 14.0541C22.7616 14.6731 22.0267 15.1642 21.2179 15.4992C20.409 15.8342 19.5421 16.0067 18.6666 16.0067C16.8985 16.0067 15.2028 15.3043 13.9526 14.0541C12.7024 12.8038 12 11.1081 12 9.34001C12 7.5719 12.7024 5.8762 13.9526 4.62596C15.2028 3.37572 16.8985 2.67334 18.6666 2.67334ZM18.6666 4.67334C18.0538 4.67334 17.447 4.79405 16.8808 5.02857C16.3146 5.26309 15.8002 5.60683 15.3668 6.04017C14.9335 6.47351 14.5897 6.98796 14.3552 7.55415C14.1207 8.12034 14 8.72717 14 9.34001C14 9.95284 14.1207 10.5597 14.3552 11.1259C14.5897 11.692 14.9335 12.2065 15.3668 12.6398C15.8002 13.0732 16.3146 13.4169 16.8808 13.6514C17.447 13.886 18.0538 14.0067 18.6666 14.0067C19.9043 14.0067 21.0913 13.515 21.9665 12.6398C22.8416 11.7647 23.3333 10.5777 23.3333 9.34001C23.3333 8.10233 22.8416 6.91534 21.9665 6.04017C21.0913 5.165 19.9043 4.67334 18.6666 4.67334Z" fill="black" fill-opacity="0.87"/>
</svg>
