<svg width="32" height="32" viewBox="0 0 32 32" fill="none" xmlns="http://www.w3.org/2000/svg">
<path d="M13.5587 2.89333C13.0908 2.66234 12.5789 2.53396 12.0574 2.51679C11.5358 2.49961 11.0166 2.59404 10.5345 2.79374C10.0524 2.99345 9.61857 3.29383 9.26195 3.67478C8.90533 4.05572 8.63419 4.50845 8.46669 5.00266L7.85335 6.80666C7.77101 7.04855 7.63415 7.26826 7.45336 7.44882C7.27257 7.62939 7.05268 7.76596 6.81069 7.84799L5.00669 8.46133C4.51274 8.6292 4.06031 8.90054 3.67961 9.25723C3.2989 9.61392 2.9987 10.0477 2.79904 10.5297C2.59939 11.0117 2.50488 11.5307 2.52183 12.0521C2.53879 12.5735 2.66681 13.0853 2.89735 13.5533L3.74002 15.264C3.85272 15.493 3.91133 15.7448 3.91133 16C3.91133 16.2552 3.85272 16.507 3.74002 16.736L2.89735 18.4467C2.66704 18.9146 2.5392 19.4263 2.52237 19.9475C2.50554 20.4688 2.6001 20.9876 2.79974 21.4694C2.99937 21.9513 3.2995 22.3849 3.68008 22.7415C4.06065 23.0981 4.51292 23.3694 5.00669 23.5373L6.81069 24.1507C7.30135 24.3173 7.68535 24.7027 7.85202 25.192L8.46535 26.9973C8.51691 27.1467 8.5778 27.2929 8.64802 27.436C9.07768 28.3084 9.83629 28.9743 10.757 29.2874C11.6776 29.6005 12.685 29.535 13.5574 29.1053L15.268 28.264C15.497 28.1513 15.7488 28.0927 16.004 28.0927C16.2592 28.0927 16.511 28.1513 16.74 28.264L18.4507 29.1053C18.9186 29.3352 19.4301 29.4628 19.9512 29.4795C20.4723 29.4962 20.9909 29.4016 21.4726 29.2022C21.9543 29.0027 22.3879 28.7029 22.7446 28.3227C23.1013 27.9426 23.3729 27.4907 23.5414 26.9973L24.1547 25.192C24.2371 24.9505 24.3738 24.7311 24.5543 24.5508C24.7349 24.3705 24.9544 24.2341 25.196 24.152L27.0014 23.5373C27.1507 23.4858 27.2969 23.4253 27.44 23.356C28.3124 22.9263 28.9784 22.1677 29.2914 21.2471C29.6045 20.3264 29.539 19.319 29.1094 18.4467L28.268 16.736C28.1553 16.507 28.0967 16.2552 28.0967 16C28.0967 15.7448 28.1553 15.493 28.268 15.264L29.1094 13.5533C29.3397 13.0855 29.4676 12.5739 29.4845 12.0527C29.5014 11.5315 29.407 11.0127 29.2075 10.5309C29.008 10.0491 28.708 9.61542 28.3276 9.25876C27.9471 8.90211 27.495 8.6307 27.0014 8.46266L25.196 7.84933C24.9544 7.76681 24.7349 7.62988 24.5546 7.44909C24.3743 7.26831 24.2379 7.04851 24.156 6.80666L23.5414 5.00266L23.4574 4.77999L23.3587 4.56399C22.9293 3.69242 22.1714 3.02693 21.2517 2.71368C20.332 2.40043 19.3255 2.46505 18.4534 2.89333L16.7427 3.73599C16.5137 3.8487 16.2619 3.90731 16.0067 3.90731C15.7515 3.90731 15.4997 3.8487 15.2707 3.73599L13.5587 2.89333ZM9.74669 7.45333L10.36 5.64799C10.4363 5.42347 10.5597 5.21781 10.7218 5.04477C10.884 4.87172 11.0812 4.73527 11.3003 4.64453C11.5194 4.55379 11.7553 4.51085 11.9923 4.51857C12.2293 4.5263 12.462 4.58451 12.6747 4.68933L14.3854 5.53199C14.8893 5.7802 15.4436 5.90928 16.0054 5.90928C16.5671 5.90928 17.1214 5.7802 17.6254 5.53199L19.3347 4.68933C19.705 4.50688 20.1298 4.46833 20.5268 4.58115C20.9239 4.69396 21.265 4.95011 21.484 5.29999L21.5667 5.44799L21.6107 5.54666L21.6494 5.64799L22.2627 7.45199C22.4436 7.98375 22.7442 8.46685 23.1413 8.86402C23.5385 9.26118 24.0216 9.5618 24.5534 9.74266L26.3587 10.356C26.5832 10.4323 26.7889 10.5557 26.9619 10.7178C27.135 10.88 27.2714 11.0772 27.3622 11.2962C27.4529 11.5153 27.4958 11.7513 27.4881 11.9883C27.4804 12.2253 27.4222 12.4579 27.3174 12.6707L26.4747 14.3813C26.2265 14.8853 26.0974 15.4396 26.0974 16.0013C26.0974 16.5631 26.2265 17.1174 26.4747 17.6213L27.316 19.3307C27.4209 19.5433 27.4791 19.7758 27.4869 20.0128C27.4948 20.2497 27.4519 20.4856 27.3613 20.7047C27.2707 20.9238 27.1344 21.121 26.9615 21.2832C26.7886 21.4454 26.5831 21.5689 26.3587 21.6453L24.5534 22.2587C24.0216 22.4395 23.5385 22.7401 23.1413 23.1373C22.7442 23.5345 22.4436 24.0176 22.2627 24.5493L21.6494 26.3547C21.573 26.5792 21.4497 26.7848 21.2875 26.9579C21.1254 27.1309 20.9282 27.2674 20.7091 27.3581C20.49 27.4489 20.2541 27.4918 20.0171 27.4841C19.78 27.4764 19.5474 27.4181 19.3347 27.3133L17.624 26.4707C17.1202 26.2227 16.5662 26.0937 16.0047 26.0937C15.4432 26.0937 14.8891 26.2227 14.3854 26.4707L12.6747 27.3133C12.4619 27.4179 12.2293 27.4759 11.9924 27.4834C11.7555 27.4909 11.5197 27.4478 11.3007 27.3569C11.0818 27.2661 10.8847 27.1296 10.7228 26.9565C10.5608 26.7834 10.4376 26.5778 10.3614 26.3533L9.74802 24.5493C9.56702 24.0174 9.2662 23.5342 8.8688 23.1371C8.47139 22.7399 7.98803 22.4394 7.45602 22.2587L5.65202 21.6453C5.42738 21.5692 5.22158 21.4459 5.04839 21.2838C4.8752 21.1217 4.7386 20.9246 4.64773 20.7054C4.55686 20.4863 4.5138 20.2504 4.52144 20.0133C4.52907 19.7762 4.58723 19.5435 4.69202 19.3307L5.53469 17.62C5.78268 17.1162 5.91164 16.5622 5.91164 16.0007C5.91164 15.4391 5.78268 14.8851 5.53469 14.3813L4.69335 12.6693C4.58877 12.4567 4.53074 12.2242 4.52314 11.9873C4.51553 11.7504 4.55852 11.5147 4.64925 11.2957C4.73998 11.0768 4.87635 10.8798 5.04927 10.7177C5.22218 10.5557 5.42767 10.4323 5.65202 10.356L7.45602 9.74266C7.98806 9.56153 8.47134 9.26051 8.86853 8.86286C9.26571 8.46521 9.56617 7.98158 9.74669 7.44933M20.6667 16C21.1971 16 21.7058 16.2107 22.0809 16.5858C22.456 16.9609 22.6667 17.4696 22.6667 18V18.6667C22.6667 21.2947 20.1867 24 16 24C11.8134 24 9.33335 21.2947 9.33335 18.6667V18C9.33335 17.4696 9.54407 16.9609 9.91914 16.5858C10.2942 16.2107 10.8029 16 11.3334 16H20.6667ZM16 7.33333C16.9725 7.33333 17.9051 7.71964 18.5927 8.40727C19.2804 9.0949 19.6667 10.0275 19.6667 11C19.6667 11.9725 19.2804 12.9051 18.5927 13.5927C17.9051 14.2804 16.9725 14.6667 16 14.6667C15.0276 14.6667 14.0949 14.2804 13.4073 13.5927C12.7197 12.9051 12.3334 11.9725 12.3334 11C12.3334 10.0275 12.7197 9.0949 13.4073 8.40727C14.0949 7.71964 15.0276 7.33333 16 7.33333Z" fill="black" fill-opacity="0.87"/>
</svg>
