<svg width="32" height="32" viewBox="0 0 32 32" fill="none" xmlns="http://www.w3.org/2000/svg">
<path d="M20 20.672C20 19.9707 20.12 19.2987 20.3413 18.672H8.33733C7.54168 18.672 6.77861 18.9881 6.21601 19.5507C5.6534 20.1133 5.33733 20.8763 5.33733 21.672V22.4413C5.33733 23.632 5.76399 24.784 6.53733 25.6893C8.62399 28.136 11.8067 29.3427 16 29.3427C18.0151 29.3436 19.7929 29.0644 21.3333 28.5053V26.3453C19.8907 27.008 18.12 27.3427 16 27.3427C12.3493 27.3427 9.72799 26.348 8.05733 24.3907C7.59276 23.8474 7.33743 23.1561 7.33733 22.4413V21.6707C7.33768 21.4057 7.44319 21.1517 7.63069 20.9644C7.81819 20.7772 8.07234 20.672 8.33733 20.672H20ZM16 2.672C16.8757 2.672 17.7428 2.84452 18.5518 3.17972C19.3608 3.51492 20.0959 4.00622 20.715 4.62556C21.3341 5.2449 21.8251 5.98014 22.16 6.78929C22.4948 7.59843 22.667 8.46563 22.6667 9.34133C22.6661 10.6598 22.2747 11.9484 21.5418 13.0444C20.809 14.1404 19.7676 14.9944 18.5494 15.4986C17.3311 16.0028 15.9908 16.1344 14.6978 15.8769C13.4047 15.6194 12.2171 14.9842 11.285 14.0518C10.3529 13.1193 9.71825 11.9314 9.46123 10.6383C9.20421 9.34515 9.33639 8.00484 9.84105 6.78683C10.3457 5.56881 11.2002 4.52777 12.2965 3.79535C13.3927 3.06292 14.6816 2.672 16 2.672ZM16 4.672C15.387 4.67217 14.78 4.79309 14.2137 5.02784C13.6474 5.26259 13.1329 5.60658 12.6996 6.04016C12.2663 6.47375 11.9226 6.98845 11.6881 7.55486C11.4537 8.12128 11.3332 8.72832 11.3333 9.34133C11.3335 9.95434 11.4544 10.5613 11.6892 11.1276C11.9239 11.6939 12.2679 12.2084 12.7015 12.6417C13.1351 13.0751 13.6498 13.4187 14.2162 13.6532C14.7826 13.8876 15.3896 14.0082 16.0027 14.008C17.2405 14.0076 18.4275 13.5156 19.3026 12.64C20.1776 11.7645 20.669 10.5772 20.6687 9.33933C20.6683 8.10148 20.1762 6.91446 19.3007 6.03942C18.4251 5.16437 17.2378 4.67298 16 4.67333M30.6667 20.6733C30.667 21.9112 30.1756 23.0985 29.3006 23.974C28.4255 24.8496 27.2385 25.3416 26.0007 25.342C25.3877 25.3422 24.7808 25.2216 24.2144 24.9872C23.6481 24.7528 23.1335 24.4092 22.7 23.9759C21.8244 23.1009 21.3323 21.9139 21.332 20.676C21.3316 19.4381 21.823 18.2508 22.6981 17.3753C23.5731 16.4998 24.7601 16.0077 25.998 16.0073C27.2358 16.007 28.4231 16.4984 29.2987 17.3734C30.1742 18.2485 30.6663 19.4355 30.6667 20.6733ZM29.3333 25.6653C28.3466 26.3244 27.1866 26.6761 26 26.676C24.7667 26.676 23.62 26.3027 22.6667 25.6653V30.34C22.6667 30.608 22.968 30.7667 23.1893 30.6147L26 28.6773L28.8107 30.6147C28.8607 30.6492 28.9193 30.6694 28.98 30.673C29.0407 30.6767 29.1012 30.6637 29.1551 30.6354C29.2089 30.6071 29.254 30.5646 29.2854 30.5126C29.3168 30.4605 29.3334 30.4008 29.3333 30.34V25.6653Z" fill="black" fill-opacity="0.87"/>
</svg>
