<svg width="32" height="32" viewBox="0 0 32 32" fill="none" xmlns="http://www.w3.org/2000/svg">
<path d="M17.5 22C17.5 22.3978 17.342 22.7794 17.0607 23.0607C16.7794 23.342 16.3978 23.5 16 23.5C15.6022 23.5 15.2206 23.342 14.9393 23.0607C14.658 22.7794 14.5 22.3978 14.5 22C14.5 21.6022 14.658 21.2206 14.9393 20.9393C15.2206 20.658 15.6022 20.5 16 20.5C16.3978 20.5 16.7794 20.658 17.0607 20.9393C17.342 21.2206 17.5 21.6022 17.5 22ZM14 12C14 11.463 14.18 10.959 14.497 10.602C14.798 10.263 15.271 10 16 10C17.308 10 18.382 11.348 18.03 12.758C17.85 13.48 17.42 13.893 16.773 14.514L16.595 14.684C15.866 15.39 15 16.328 15 18C15 18.2652 15.1054 18.5196 15.2929 18.7071C15.4804 18.8946 15.7348 19 16 19C16.2652 19 16.5196 18.8946 16.7071 18.7071C16.8946 18.5196 17 18.2652 17 18C17 17.173 17.353 16.733 17.985 16.123L18.176 15.941C18.79 15.361 19.642 14.556 19.97 13.243C20.618 10.653 18.692 8 16 8C14.729 8 13.702 8.487 13.003 9.273C12.32 10.041 12 11.037 12 12C12 12.2652 12.1054 12.5196 12.2929 12.7071C12.4804 12.8946 12.7348 13 13 13C13.2652 13 13.5196 12.8946 13.7071 12.7071C13.8946 12.5196 14 12.2652 14 12ZM2 16C2 8.268 8.268 2 16 2C23.732 2 30 8.268 30 16C30 23.732 23.732 30 16 30C8.268 30 2 23.732 2 16ZM16 4C9.373 4 4 9.373 4 16C4 22.627 9.373 28 16 28C22.627 28 28 22.627 28 16C28 9.373 22.627 4 16 4Z" fill="black" fill-opacity="0.87"/>
</svg>
