<svg width="32" height="32" viewBox="0 0 32 32" fill="none" xmlns="http://www.w3.org/2000/svg">
<path d="M16 29.336C23.3653 29.336 29.336 23.3653 29.336 16.0013C29.336 8.63601 23.3653 2.66534 16 2.66534C8.63467 2.66534 2.664 8.63601 2.664 16.0013C2.664 23.3653 8.63467 29.336 16 29.336ZM16 27.336C14.4969 27.3591 13.0042 27.0829 11.6088 26.5237C10.2134 25.9644 8.9432 25.1332 7.87209 24.0783C6.80097 23.0235 5.95036 21.7662 5.36975 20.3796C4.78915 18.9929 4.49014 17.5046 4.49014 16.0013C4.49014 14.498 4.78915 13.0098 5.36975 11.6231C5.95036 10.2365 6.80097 8.97915 7.87209 7.92435C8.9432 6.86954 10.2134 6.03831 11.6088 5.47904C13.0042 4.91977 14.4969 4.64362 16 4.66668C18.985 4.69905 21.8368 5.90756 23.9362 8.02983C26.0355 10.1521 27.2131 13.0168 27.2131 16.002C27.2131 18.9872 26.0355 21.8519 23.9362 23.9742C21.8368 26.0965 18.985 27.3036 16 27.336Z" fill="black" fill-opacity="0.87"/>
</svg>
