<svg width="32" height="32" viewBox="0 0 32 32" fill="none" xmlns="http://www.w3.org/2000/svg">
<path d="M16.016 3C16.9947 3.01067 17.9693 3.124 18.9253 3.33733C19.1287 3.38273 19.3128 3.49054 19.452 3.64568C19.5911 3.80082 19.6783 3.99556 19.7013 4.20267L19.928 6.23867C19.96 6.52571 20.0589 6.80124 20.2168 7.04308C20.3748 7.28491 20.5872 7.48631 20.8372 7.63105C21.0871 7.7758 21.3675 7.85986 21.6559 7.87647C21.9442 7.89307 22.2324 7.84176 22.4973 7.72667L24.364 6.90667C24.5537 6.82313 24.7646 6.80059 24.9676 6.84215C25.1706 6.88371 25.3557 6.98733 25.4973 7.13867C26.8468 8.58021 27.8519 10.3088 28.4373 12.1947C28.4985 12.393 28.4964 12.6054 28.4315 12.8025C28.3665 12.9996 28.2418 13.1716 28.0747 13.2947L26.42 14.516C26.1869 14.6869 25.9973 14.9103 25.8666 15.1681C25.7359 15.426 25.6678 15.7109 25.6678 16C25.6678 16.2891 25.7359 16.574 25.8666 16.8319C25.9973 17.0897 26.1869 17.3131 26.42 17.484L28.0773 18.704C28.2447 18.8271 28.3696 18.9994 28.4346 19.1967C28.4996 19.3941 28.5015 19.6068 28.44 19.8053C27.855 21.691 26.8503 23.4197 25.5013 24.8613C25.36 25.0126 25.1752 25.1163 24.9725 25.1581C24.7697 25.1999 24.559 25.1777 24.3693 25.0947L22.4947 24.272C22.2301 24.156 21.942 24.1039 21.6536 24.12C21.3652 24.136 21.0846 24.2197 20.8345 24.3644C20.5845 24.509 20.372 24.7105 20.2143 24.9525C20.0566 25.1945 19.958 25.4702 19.9267 25.7573L19.7 27.792C19.6774 27.9967 19.5921 28.1894 19.4558 28.3438C19.3196 28.4982 19.1389 28.6068 18.9387 28.6547C17.0075 29.115 14.9952 29.115 13.064 28.6547C12.8635 28.607 12.6826 28.4985 12.546 28.3441C12.4095 28.1897 12.3241 27.9969 12.3013 27.792L12.076 25.76C12.0433 25.4737 11.9439 25.1992 11.7858 24.9583C11.6277 24.7174 11.4153 24.517 11.1657 24.373C10.9161 24.2291 10.6363 24.1457 10.3486 24.1296C10.0609 24.1134 9.77347 24.1649 9.50933 24.28L7.63466 25.1013C7.44487 25.1847 7.23386 25.207 7.03082 25.1652C6.82778 25.1234 6.64275 25.0196 6.50133 24.868C5.15217 23.4247 4.14787 21.6941 3.564 19.8067C3.50253 19.6082 3.50442 19.3954 3.56941 19.1981C3.63441 19.0007 3.75928 18.8285 3.92666 18.7053L5.584 17.484C5.81713 17.3131 6.00672 17.0897 6.1374 16.8319C6.26808 16.574 6.33618 16.2891 6.33618 16C6.33618 15.7109 6.26808 15.426 6.1374 15.1681C6.00672 14.9103 5.81713 14.6869 5.584 14.516L3.92666 13.2973C3.75928 13.1742 3.63441 13.002 3.56941 12.8046C3.50442 12.6072 3.50253 12.3945 3.564 12.196C4.14939 10.3102 5.15456 8.58154 6.504 7.14C6.64558 6.98866 6.83068 6.88505 7.03371 6.84348C7.23674 6.80192 7.44767 6.82447 7.63733 6.908L9.504 7.728C9.76936 7.84303 10.058 7.89422 10.3467 7.87745C10.6355 7.86068 10.9162 7.77643 11.1665 7.63146C11.4168 7.48649 11.6295 7.28484 11.7877 7.04272C11.9459 6.8006 12.0451 6.52475 12.0773 6.23733L12.304 4.20267C12.3269 3.99514 12.4141 3.79998 12.5535 3.64455C12.6929 3.48913 12.8775 3.38123 13.0813 3.336C14.036 3.12444 15.0142 3.01244 16.016 3ZM16.016 5C15.4111 5.00643 14.8077 5.05857 14.2107 5.156L14.064 6.45867C13.9973 7.05774 13.7908 7.63276 13.4611 8.1374C13.1315 8.64203 12.6878 9.06216 12.166 9.36392C11.6443 9.66569 11.0589 9.84065 10.457 9.87471C9.85524 9.90877 9.25384 9.80097 8.70133 9.56L7.50266 9.03467C6.74072 9.95995 6.13415 11.0029 5.70666 12.1227L6.76933 12.9053C7.25528 13.2619 7.65045 13.7279 7.92287 14.2656C8.19529 14.8033 8.33731 15.3976 8.33744 16.0003C8.33757 16.6031 8.19581 17.1974 7.92362 17.7352C7.65142 18.273 7.25646 18.7392 6.77066 19.096L5.70533 19.88C6.132 21.0027 6.74 22.048 7.50266 22.976L8.70933 22.4467C9.26065 22.206 9.86079 22.098 10.4614 22.1316C11.0621 22.1652 11.6464 22.3394 12.1675 22.64C12.6885 22.9407 13.1317 23.3595 13.4613 23.8627C13.791 24.366 13.9979 24.9396 14.0653 25.5373L14.2107 26.8493C15.3973 27.0493 16.6093 27.0493 17.7947 26.8493L17.9413 25.5373C18.0074 24.9387 18.2134 24.3639 18.5427 23.8596C18.872 23.3552 19.3153 22.9354 19.8368 22.634C20.3583 22.3327 20.9433 22.1582 21.5447 22.1247C22.1461 22.0912 22.7469 22.1997 23.2987 22.4413L24.504 22.9693C25.2667 22.0433 25.8737 20.9995 26.3013 19.8787L25.2373 19.0947C24.7514 18.7381 24.3562 18.2721 24.0838 17.7344C23.8114 17.1967 23.6693 16.6024 23.6692 15.9997C23.6691 15.3969 23.8109 14.8026 24.083 14.2648C24.3552 13.727 24.7502 13.2608 25.236 12.904L26.2987 12.1213C25.8709 11.001 25.2639 9.95759 24.5013 9.032L23.3053 9.556C22.753 9.7978 22.1515 9.90633 21.5495 9.87282C20.9475 9.83931 20.3618 9.66471 19.8397 9.36311C19.3177 9.06151 18.8738 8.64137 18.544 8.1366C18.2143 7.63184 18.0078 7.0566 17.9413 6.45733L17.796 5.156C17.2078 5.0599 16.6119 5.00776 16.016 5ZM16 11C17.3261 11 18.5978 11.5268 19.5355 12.4645C20.4732 13.4021 21 14.6739 21 16C21 17.3261 20.4732 18.5979 19.5355 19.5355C18.5978 20.4732 17.3261 21 16 21C14.6739 21 13.4021 20.4732 12.4645 19.5355C11.5268 18.5979 11 17.3261 11 16C11 14.6739 11.5268 13.4021 12.4645 12.4645C13.4021 11.5268 14.6739 11 16 11ZM16 13C15.2043 13 14.4413 13.3161 13.8787 13.8787C13.3161 14.4413 13 15.2044 13 16C13 16.7956 13.3161 17.5587 13.8787 18.1213C14.4413 18.6839 15.2043 19 16 19C16.7956 19 17.5587 18.6839 18.1213 18.1213C18.6839 17.5587 19 16.7956 19 16C19 15.2044 18.6839 14.4413 18.1213 13.8787C17.5587 13.3161 16.7956 13 16 13Z" fill="black" fill-opacity="0.87"/>
</svg>
