<svg width="32" height="32" viewBox="0 0 32 32" fill="none" xmlns="http://www.w3.org/2000/svg">
<path d="M11.336 15.3333C11.6903 15.3333 12.0301 15.4741 12.2807 15.7247C12.5312 15.9752 12.672 16.315 12.672 16.6693C12.672 17.0237 12.5312 17.3635 12.2807 17.614C12.0301 17.8646 11.6903 18.0053 11.336 18.0053C10.9815 18.0053 10.6415 17.8645 10.3908 17.6138C10.1402 17.3632 9.99932 17.0232 9.99932 16.6687C9.99932 16.3142 10.1402 15.9742 10.3908 15.7235C10.6415 15.4728 10.9815 15.332 11.336 15.332M16 5.80401V14.6707H25.9227L23.6267 12.3733C23.4569 12.2039 23.3538 11.9792 23.3359 11.7401C23.318 11.501 23.3867 11.2634 23.5293 11.0707L23.6267 10.9587C23.7961 10.7895 24.0207 10.6868 24.2595 10.6692C24.4983 10.6516 24.7355 10.7202 24.928 10.8627L25.04 10.9587L29.036 14.956C29.2053 15.1253 29.3083 15.3498 29.3262 15.5886C29.344 15.8274 29.2756 16.0647 29.1333 16.2573L29.036 16.3693L25.0413 20.3733C24.8629 20.5511 24.6239 20.6549 24.3723 20.6641C24.1206 20.6733 23.8747 20.5872 23.6837 20.4231C23.4928 20.2589 23.3708 20.0287 23.3421 19.7784C23.3135 19.5282 23.3804 19.2764 23.5293 19.0733L23.6253 18.9613L25.9093 16.672H16.0013L16 25.6667C15.9999 25.8126 15.9678 25.9567 15.9061 26.0889C15.8443 26.2212 15.7544 26.3383 15.6426 26.432C15.5308 26.5258 15.3998 26.594 15.2588 26.6317C15.1179 26.6695 14.9704 26.676 14.8267 26.6507L3.49332 24.6493C3.26165 24.6086 3.05176 24.4874 2.90056 24.3072C2.74937 24.127 2.66655 23.8993 2.66666 23.664V7.66668C2.66666 7.42966 2.75085 7.20035 2.90421 7.01964C3.05757 6.83893 3.27013 6.71857 3.50399 6.68001L14.8373 4.81868C14.9805 4.79508 15.127 4.80291 15.2669 4.84163C15.4067 4.88035 15.5364 4.94903 15.647 5.0429C15.7576 5.13678 15.8465 5.2536 15.9075 5.38526C15.9684 5.51692 16 5.65893 16 5.80401ZM14 6.98268L4.66666 8.51601V22.8253L14 24.4733V6.98268ZM17.3333 24.6667H18.3533L18.4893 24.6573C18.729 24.6245 18.9485 24.5058 19.1074 24.3234C19.2663 24.141 19.3536 23.9072 19.3533 23.6653L19.344 17.9987H17.3333V24.6667ZM17.336 13.3333L17.3333 11.6333V6.66668H18.3267C18.5681 6.66664 18.8014 6.75397 18.9835 6.91253C19.1656 7.07109 19.2842 7.29018 19.3173 7.52934L19.3267 7.66401L19.336 13.3333H17.336Z" fill="black" fill-opacity="0.87"/>
</svg>
