<svg width="32" height="32" viewBox="0 0 32 32" fill="none" xmlns="http://www.w3.org/2000/svg">
<g clip-path="url(#clip0_10606_192)">
<path d="M14.388 4.204C14.5367 3.90288 14.7666 3.64935 15.0518 3.47208C15.3371 3.29481 15.6662 3.20087 16.002 3.20087C16.3378 3.20087 16.6669 3.29481 16.9522 3.47208C17.2374 3.64935 17.4673 3.90288 17.616 4.204L20.658 10.368L27.46 11.356C27.7925 11.404 28.105 11.544 28.3621 11.7603C28.6191 11.9767 28.8105 12.2606 28.9145 12.5801C29.0186 12.8995 29.0312 13.2417 28.9508 13.5679C28.8705 13.8942 28.7005 14.1914 28.46 14.426L23.536 19.226L24.698 26C24.7545 26.331 24.7173 26.6711 24.5906 26.982C24.4639 27.293 24.2527 27.5622 23.981 27.7595C23.7093 27.9567 23.3879 28.074 23.053 28.0981C22.7181 28.1222 22.3832 28.0522 22.086 27.896L16.002 24.7L9.918 27.9C9.62051 28.0566 9.2851 28.1267 8.94978 28.1025C8.61446 28.0782 8.29263 27.9606 8.02076 27.7628C7.74888 27.565 7.53783 27.2951 7.4115 26.9835C7.28518 26.672 7.24863 26.3313 7.306 26L8.468 19.226L3.546 14.428C3.30556 14.1935 3.13551 13.8964 3.05508 13.5704C2.97465 13.2443 2.98705 12.9022 3.09088 12.5828C3.19471 12.2634 3.38583 11.9795 3.64262 11.763C3.89941 11.5466 4.21164 11.4063 4.544 11.358L11.344 10.37L14.388 4.204ZM0.200004 4.4C0.359134 4.18782 0.596032 4.04755 0.858583 4.01005C1.12113 3.97254 1.38783 4.04087 1.6 4.2L5.6 7.2C5.81218 7.35913 5.95245 7.59602 5.98995 7.85857C6.02746 8.12112 5.95913 8.38782 5.8 8.6C5.64087 8.81217 5.40398 8.95244 5.14143 8.98994C4.87887 9.02745 4.61218 8.95913 4.4 8.8L0.400004 5.8C0.187831 5.64087 0.0475619 5.40397 0.0100546 5.14142C-0.0274527 4.87887 0.0408742 4.61217 0.200004 4.4ZM30.4 4.2C30.5051 4.1212 30.6246 4.06387 30.7518 4.03128C30.879 3.99869 31.0114 3.99147 31.1414 4.01005C31.2714 4.02862 31.3965 4.07261 31.5095 4.13952C31.6225 4.20643 31.7212 4.29494 31.8 4.4C31.8788 4.50505 31.9361 4.6246 31.9687 4.75181C32.0013 4.87903 32.0085 5.01141 31.99 5.14142C31.9714 5.27142 31.9274 5.39649 31.8605 5.50949C31.7936 5.62249 31.7051 5.7212 31.6 5.8L27.6 8.8C27.3878 8.95913 27.1211 9.02745 26.8586 8.98994C26.596 8.95244 26.3591 8.81217 26.2 8.6C26.0409 8.38782 25.9725 8.12112 26.0101 7.85857C26.0476 7.59602 26.1878 7.35913 26.4 7.2L30.4 4.2ZM0.200004 24.6C0.278797 24.7051 0.377511 24.7936 0.490511 24.8605C0.60351 24.9274 0.728581 24.9714 0.858583 24.9899C0.988585 25.0085 1.12097 25.0013 1.24819 24.9687C1.3754 24.9361 1.49495 24.8788 1.6 24.8L5.6 21.8C5.81218 21.6409 5.95245 21.404 5.98995 21.1414C6.02746 20.8789 5.95913 20.6122 5.8 20.4C5.64087 20.1878 5.40398 20.0476 5.14143 20.01C4.87887 19.9725 4.61218 20.0409 4.4 20.2L0.400004 23.2C0.187831 23.3591 0.0475619 23.596 0.0100546 23.8586C-0.0274527 24.1211 0.0408742 24.3878 0.200004 24.6ZM30.4 24.8C30.6122 24.9591 30.8789 25.0275 31.1414 24.9899C31.404 24.9524 31.6409 24.8122 31.8 24.6C31.9591 24.3878 32.0275 24.1211 31.99 23.8586C31.9524 23.596 31.8122 23.3591 31.6 23.2L27.6 20.2C27.3878 20.0409 27.1211 19.9725 26.8586 20.01C26.596 20.0476 26.3591 20.1878 26.2 20.4C26.0409 20.6122 25.9725 20.8789 26.0101 21.1414C26.0476 21.404 26.1878 21.6409 26.4 21.8L30.4 24.8Z" fill="black" fill-opacity="0.87"/>
</g>
<defs>
<clipPath id="clip0_10606_192">
<rect width="32" height="32" fill="white"/>
</clipPath>
</defs>
</svg>
