<svg width="32" height="32" viewBox="0 0 32 32" fill="none" xmlns="http://www.w3.org/2000/svg">
<path d="M14.388 4.20201C14.5366 3.90089 14.7666 3.64737 15.0518 3.4701C15.337 3.29283 15.6662 3.19888 16.002 3.19888C16.3378 3.19888 16.6669 3.29283 16.9521 3.4701C17.2374 3.64737 17.4673 3.90089 17.616 4.20201L20.658 10.366L27.46 11.356C27.7925 11.404 28.105 11.544 28.362 11.7604C28.6191 11.9767 28.8105 12.2606 28.9145 12.5801C29.0186 12.8995 29.0311 13.2417 28.9508 13.568C28.8705 13.8942 28.7005 14.1914 28.46 14.426L23.536 19.224L24.698 25.998C24.7549 26.3291 24.718 26.6696 24.5915 26.9808C24.465 27.292 24.2539 27.5617 23.9821 27.7591C23.7103 27.9566 23.3887 28.0741 23.0536 28.0983C22.7185 28.1225 22.3833 28.0524 22.086 27.896L16.002 24.696L9.91798 27.896C9.62064 28.0524 9.28546 28.1225 8.95037 28.0983C8.61527 28.0741 8.29363 27.9566 8.02184 27.7591C7.75005 27.5617 7.53896 27.292 7.41244 26.9808C7.28593 26.6696 7.24905 26.3291 7.30598 25.998L8.46598 19.224L3.54598 14.424C3.30612 14.1895 3.13658 13.8925 3.05649 13.5668C2.97641 13.241 2.98896 12.8993 3.09274 12.5803C3.19652 12.2612 3.38739 11.9775 3.64382 11.7612C3.90025 11.5449 4.21203 11.4046 4.54398 11.356L11.344 10.366L14.388 4.20201Z" fill="black" fill-opacity="0.87"/>
</svg>
