<svg width="32" height="32" viewBox="0 0 32 32" fill="none" xmlns="http://www.w3.org/2000/svg">
<path d="M16 1.5C24.0081 1.5 30.5 7.99186 30.5 16H27.5C27.5 9.64914 22.3509 4.5 16 4.5C9.64914 4.5 4.5 9.64914 4.5 16C4.5 22.3509 9.64914 27.5 16 27.5V30.5C7.99186 30.5 1.5 24.0081 1.5 16C1.5 7.99186 7.99186 1.5 16 1.5Z" fill="black" fill-opacity="0.87"/>
<path d="M16 2C23.5646 2 29.7269 7.9996 29.9902 15.5H27.9893C27.7271 9.10485 22.4595 4 16 4C9.373 4 4 9.373 4 16C4 22.4595 9.10487 27.7261 15.5 27.9883V29.9893C7.99961 29.7259 2 23.5646 2 16C2 8.268 8.268 2 16 2Z" stroke="black" stroke-opacity="0.87"/>
</svg>
