<svg width="32" height="32" viewBox="0 0 32 32" fill="none" xmlns="http://www.w3.org/2000/svg">
<path d="M16 4C13.6131 4 11.3239 4.94821 9.63604 6.63604C7.94821 8.32387 7 10.6131 7 13V17.803L5.071 22.629C5.01037 22.7808 4.98786 22.9451 5.00543 23.1075C5.023 23.27 5.08012 23.4257 5.17179 23.561C5.26346 23.6962 5.38688 23.807 5.53126 23.8835C5.67565 23.9601 5.83659 24.0001 6 24H12C12 26.217 13.783 28 16 28C18.217 28 20 26.217 20 24H26C26.1634 24.0001 26.3244 23.9601 26.4687 23.8835C26.6131 23.807 26.7365 23.6962 26.8282 23.561C26.9199 23.4257 26.977 23.27 26.9946 23.1075C27.0121 22.9451 26.9896 22.7808 26.929 22.629L25 17.803V13C25 10.6131 24.0518 8.32387 22.364 6.63604C20.6761 4.94821 18.3869 4 16 4ZM18 24C18 25.112 17.112 26 16 26C14.888 26 14 25.112 14 24H18ZM9 13C9 11.1435 9.7375 9.36301 11.0503 8.05025C12.363 6.7375 14.1435 6 16 6C17.8565 6 19.637 6.7375 20.9497 8.05025C22.2625 9.36301 23 11.1435 23 13V17.995C22.9999 18.1221 23.024 18.248 23.071 18.366L24.523 22H7.477L8.929 18.366C8.9759 18.2483 8.99999 18.1227 9 17.996V13Z" fill="black" fill-opacity="0.87"/>
</svg>
