<svg width="32" height="32" viewBox="0 0 32 32" fill="none" xmlns="http://www.w3.org/2000/svg">
<path d="M14.3107 26.3867C14.5041 26.5617 14.7582 26.6542 15.0188 26.6445C15.2795 26.6348 15.526 26.5236 15.7059 26.3347C15.8857 26.1458 15.9846 25.8941 15.9816 25.6333C15.9785 25.3725 15.8736 25.1232 15.6893 24.9387L7.35466 17H27C27.2652 17 27.5196 16.8946 27.7071 16.7071C27.8946 16.5196 28 16.2652 28 16C28 15.7348 27.8946 15.4804 27.7071 15.2929C27.5196 15.1054 27.2652 15 27 15H7.35466L15.6893 7.05999C15.8736 6.87541 15.9785 6.62613 15.9816 6.36532C15.9846 6.10452 15.8857 5.85283 15.7059 5.66393C15.526 5.47503 15.2795 5.36388 15.0188 5.35418C14.7582 5.34448 14.5041 5.43699 14.3107 5.61199L4.41733 15.0347C4.20122 15.2404 4.06037 15.5127 4.01733 15.808C3.99437 15.9355 3.99483 16.066 4.01866 16.1933C4.06199 16.4881 4.20281 16.7599 4.41866 16.9653L14.3107 26.3867Z" fill="black"/>
</svg>
