<svg viewBox="0 0 21 27" fill="none" xmlns="http://www.w3.org/2000/svg">
  <path d="M13.7187 0.291643L19.712 6.28364C19.8814 6.45296 19.9843 6.67743 20.0022 6.91624C20.0201 7.15506 19.9516 7.39235 19.8093 7.58498L19.7133 7.69831L13.72 13.7036C13.5416 13.8814 13.3026 13.9852 13.0509 13.9944C12.7993 14.0036 12.5534 13.9175 12.3624 13.7533C12.1714 13.5892 12.0494 13.359 12.0208 13.1087C11.9922 12.8585 12.059 12.6067 12.208 12.4036L12.304 12.2916L16.5933 7.99431H0.998667C0.757446 7.99402 0.524459 7.90655 0.342649 7.74802C0.160839 7.58949 0.0424608 7.37058 0.00933329 7.13164L0 6.99698C1.01905e-05 6.75533 0.0875238 6.52185 0.246356 6.33974C0.405189 6.15762 0.624595 6.03917 0.864 6.00631L1 5.99698L16.5973 5.99564L12.3067 1.70631C12.1373 1.53699 12.0343 1.31252 12.0165 1.07371C11.9986 0.834896 12.067 0.597604 12.2093 0.404977L12.3067 0.292977C12.476 0.12362 12.7005 0.0206488 12.9393 0.00278684C13.1781 -0.0150751 13.4154 0.0533581 13.608 0.195643L13.7187 0.291643ZM20.0093 19.5316L20.0187 19.665C20.019 19.9069 19.9316 20.1406 19.7727 20.323C19.6139 20.5054 19.3943 20.6241 19.1547 20.657L19.0187 20.6663L3.424 20.665L7.71867 24.9583C7.88802 25.1276 7.99099 25.3521 8.00886 25.5909C8.02672 25.8297 7.95828 26.067 7.816 26.2596L7.72 26.3716C7.5506 26.5413 7.32587 26.6445 7.08675 26.6624C6.84764 26.6803 6.61007 26.6116 6.41733 26.469L6.30533 26.373L0.305333 20.377C0.135977 20.2077 0.0330057 19.9832 0.0151437 19.7444C-0.00271825 19.5056 0.065715 19.2683 0.208 19.0756L0.305333 18.9636L6.30533 12.9583C6.484 12.781 6.72294 12.6776 6.97448 12.6688C7.22602 12.6599 7.47164 12.7463 7.66234 12.9105C7.85303 13.0748 7.97476 13.3049 8.00325 13.555C8.03173 13.8051 7.96487 14.0567 7.816 14.2596L7.72 14.3716L3.42933 18.665H19.0187C19.2607 18.6651 19.4945 18.753 19.6767 18.9123C19.8589 19.0717 19.9771 19.2918 20.0093 19.5316Z" fill="currentColor" fillOpacity="0.87"/>
</svg>