<svg width="32" height="32" viewBox="0 0 32 32" fill="none" xmlns="http://www.w3.org/2000/svg">
<path d="M19.7093 2.96L25.7027 8.952C25.872 9.12132 25.975 9.34579 25.9928 9.5846C26.0107 9.82341 25.9423 10.0607 25.8 10.2533L25.704 10.3667L19.7107 16.372C19.5322 16.5497 19.2933 16.6536 19.0416 16.6628C18.7899 16.672 18.544 16.5859 18.3531 16.4217C18.1621 16.2575 18.0401 16.0273 18.0115 15.7771C17.9829 15.5269 18.0497 15.2751 18.1987 15.072L18.2947 14.96L22.584 10.6627H6.98933C6.74811 10.6624 6.51512 10.5749 6.33331 10.4164C6.1515 10.2578 6.03312 10.0389 5.99999 9.8L5.99066 9.66533C5.99067 9.42368 6.07819 9.19021 6.23702 9.00809C6.39585 8.82597 6.61526 8.70753 6.85466 8.67467L6.99066 8.66533L22.588 8.664L18.2973 4.37467C18.128 4.20535 18.025 3.98088 18.0071 3.74207C17.9893 3.50325 18.0577 3.26596 18.2 3.07333L18.2973 2.96133C18.4666 2.79198 18.6911 2.68901 18.9299 2.67114C19.1687 2.65328 19.406 2.72172 19.5987 2.864L19.7093 2.96ZM26 22.2L26.0093 22.3333C26.0096 22.5752 25.9223 22.809 25.7634 22.9914C25.6045 23.1738 25.385 23.2924 25.1453 23.3253L25.0093 23.3347L9.41466 23.3333L13.7093 27.6267C13.8787 27.796 13.9817 28.0205 13.9995 28.2593C14.0174 28.4981 13.9489 28.7354 13.8067 28.928L13.7107 29.04C13.5413 29.2097 13.3165 29.3129 13.0774 29.3308C12.8383 29.3486 12.6007 29.28 12.408 29.1373L12.296 29.0413L6.296 23.0453C6.12664 22.876 6.02367 22.6515 6.00581 22.4127C5.98794 22.1739 6.05638 21.9366 6.19866 21.744L6.296 21.632L12.296 15.6267C12.4747 15.4494 12.7136 15.346 12.9651 15.3371C13.2167 15.3283 13.4623 15.4146 13.653 15.5789C13.8437 15.7431 13.9654 15.9733 13.9939 16.2234C14.0224 16.4734 13.9555 16.7251 13.8067 16.928L13.7107 17.04L9.41999 21.3333H25.0093C25.2514 21.3334 25.4852 21.4213 25.6674 21.5807C25.8495 21.7401 25.9677 21.9601 26 22.2Z" fill="black" fill-opacity="0.87"/>
</svg>
