<svg viewBox="0 0 24 24" fill="none" xmlns="http://www.w3.org/2000/svg">
  <path d="M10 5C10 4.46957 10.2107 3.96086 10.5858 3.58579C10.9609 3.21071 11.4696 3 12 3C12.5304 3 13.0391 3.21071 13.4142 3.58579C13.7893 3.96086 14 4.46957 14 5C15.0484 5.54303 15.9274 6.38833 16.5226 7.4293C17.1178 8.47028 17.4058 9.65754 17.35 10.85L17.73 17H6.27L6.65 10.85C6.59422 9.65754 6.88221 8.47028 7.47741 7.4293C8.0726 6.38833 8.95159 5.54303 10 5ZM8 19H16C16 19.5304 15.7893 20.0391 15.4142 20.4142C15.0391 20.7893 14.5304 21 14 21H10C9.46957 21 8.96086 20.7893 8.58579 20.4142C8.21071 20.0391 8 19.5304 8 19Z" fill="currentColor" fillOpacity="0.87"/>
</svg>