<svg width="32" height="32" viewBox="0 0 32 32" fill="none" xmlns="http://www.w3.org/2000/svg">
<path d="M7.20494 8.61961L3.31828 4.73161C3.22003 4.64006 3.14123 4.52966 3.08657 4.407C3.03191 4.28433 3.00252 4.15191 3.00016 4.01764C2.99779 3.88337 3.02249 3.75 3.07278 3.62548C3.12308 3.50096 3.19793 3.38785 3.29289 3.29289C3.38785 3.19793 3.50096 3.12308 3.62548 3.07278C3.75 3.02249 3.88337 2.99779 4.01764 3.00016C4.15191 3.00252 4.28433 3.03191 4.407 3.08657C4.52966 3.14123 4.64006 3.22003 4.73161 3.31828L29.3983 27.9849C29.5749 28.1745 29.6711 28.4252 29.6665 28.6843C29.6619 28.9434 29.557 29.1906 29.3738 29.3738C29.1906 29.557 28.9434 29.6619 28.6843 29.6665C28.4252 29.6711 28.1745 29.5749 27.9849 29.3983L25.3903 26.8049C24.9496 26.9498 24.4888 27.024 24.0249 27.0249H8.69161C7.54234 27.0249 6.44014 26.5684 5.62748 25.7557C4.81482 24.9431 4.35828 23.8409 4.35828 22.6916V12.0249C4.35828 11.8116 4.42494 11.6156 4.53828 11.4529C4.73209 10.806 5.074 10.2131 5.53688 9.72124C5.99977 9.22943 6.57089 8.85224 7.20494 8.61961ZM23.6116 25.0249L18.1223 19.5356C18.0017 19.6368 17.8491 19.6921 17.6916 19.6916H15.0249C14.8481 19.6916 14.6786 19.6214 14.5535 19.4963C14.4285 19.3713 14.3583 19.2018 14.3583 19.0249H8.69161C7.86479 19.0262 7.05495 18.7902 6.35828 18.3449V22.6916C6.35828 23.9796 7.40361 25.0249 8.69161 25.0249H23.6116ZM14.5156 15.9289L8.94494 10.3583H8.69161C8.07277 10.3583 7.47928 10.6041 7.0417 11.0417C6.60411 11.4793 6.35828 12.0728 6.35828 12.6916V14.6916C6.35828 15.9796 7.40361 17.0249 8.69161 17.0249H14.3583V16.3583C14.3583 16.1943 14.4169 16.0449 14.5143 15.9289M24.0249 17.0249H21.2676L23.2676 19.0249H24.0249C24.8836 19.0249 25.6849 18.7756 26.3583 18.3449V22.1156L28.1769 23.9356C28.2969 23.5392 28.3574 23.1245 28.3583 22.6916V12.0249C28.3583 11.8116 28.2916 11.6156 28.1783 11.4529C27.9115 10.5587 27.3632 9.77438 26.6148 9.2168C25.8665 8.65921 24.9582 8.3581 24.0249 8.35828H21.6916V6.02494C21.6916 5.22929 21.3755 4.46623 20.8129 3.90362C20.2503 3.34101 19.4873 3.02494 18.6916 3.02494H14.0249C13.2293 3.02494 12.4662 3.34101 11.9036 3.90362C11.341 4.46623 11.0249 5.22929 11.0249 6.02494V6.78228L14.6009 10.3583H24.0249C25.3129 10.3583 26.3583 11.4036 26.3583 12.6916V14.6916C26.3583 15.3104 26.1124 15.9039 25.6749 16.3415C25.2373 16.7791 24.6438 17.0249 24.0249 17.0249ZM13.0249 6.02494C13.0249 5.75973 13.1303 5.50537 13.3178 5.31784C13.5054 5.1303 13.7597 5.02494 14.0249 5.02494H18.6916C18.9568 5.02494 19.2112 5.1303 19.3987 5.31784C19.5863 5.50537 19.6916 5.75973 19.6916 6.02494V8.35828H13.0249V6.02494Z" fill="black" fill-opacity="0.87"/>
</svg>
