<svg width="32" height="32" viewBox="0 0 32 32" fill="none" xmlns="http://www.w3.org/2000/svg">
<path d="M26.6667 12.716V12.536C26.6619 11.2261 26.3973 9.93015 25.8884 8.72315C25.3794 7.51615 24.6361 6.42208 23.7015 5.50423C22.767 4.58639 21.6596 3.863 20.4436 3.37594C19.2276 2.88888 17.9271 2.6478 16.6173 2.66668C16.4502 2.67122 16.2915 2.74155 16.176 2.86239C16.0604 2.98323 15.9971 3.14481 16 3.31201V12.6667C16 12.8435 16.0702 13.0131 16.1953 13.1381C16.3203 13.2631 16.4899 13.3333 16.6667 13.3333H26.02C26.368 13.3333 26.6613 13.0653 26.6667 12.716ZM17.9987 4.76268C19.6475 5.02386 21.1714 5.80023 22.3519 6.98055C23.5325 8.16087 24.3091 9.68456 24.5707 11.3333H18L17.9987 4.76268ZM12 14V7.58534C10.9827 7.84886 10.0272 8.31018 9.18822 8.94294C8.3492 9.57571 7.64302 10.3675 7.11001 11.2732C6.57701 12.1789 6.2276 13.1807 6.08176 14.2214C5.93591 15.2621 5.99648 16.3214 6.26 17.3387C6.52351 18.356 6.98483 19.3114 7.61759 20.1505C8.25036 20.9895 9.04219 21.6957 9.94787 22.2287C10.8535 22.7617 11.8553 23.1111 12.8961 23.2569C13.9368 23.4028 14.996 23.3422 16.0133 23.0787C15.2445 23.6015 14.7127 24.4064 14.5333 25.3187C14.3556 25.3285 14.1778 25.3333 14 25.3333C11.4032 25.337 8.90676 24.3303 7.03889 22.5262C5.17103 20.7222 4.0782 18.2622 3.99159 15.6669C3.90499 13.0715 4.8314 10.5442 6.57485 8.61961C8.31829 6.69505 10.742 5.52417 13.3333 5.35468C13.7 5.33068 14 5.63201 14 6.00001V14C14 14.3536 14.1405 14.6928 14.3905 14.9428C14.6406 15.1929 14.9797 15.3333 15.3333 15.3333H23.3333C23.7013 15.3333 24.0027 15.6333 23.9787 16C23.9234 16.8405 23.7621 17.6706 23.4987 18.4707L23.3333 18.4667C22.3507 18.4667 21.4627 18.8667 20.8213 19.5147C21.2368 18.8376 21.5491 18.1024 21.748 17.3333H15.3333C14.4493 17.3333 13.6014 16.9822 12.9763 16.357C12.3512 15.7319 12 14.8841 12 14ZM26.6667 18C26.6667 17.4696 26.8774 16.9609 27.2524 16.5858C27.6275 16.2107 28.1362 16 28.6667 16C29.1971 16 29.7058 16.2107 30.0809 16.5858C30.4559 16.9609 30.6667 17.4696 30.6667 18V28.6667C30.6667 29.1971 30.4559 29.7058 30.0809 30.0809C29.7058 30.456 29.1971 30.6667 28.6667 30.6667C28.1362 30.6667 27.6275 30.456 27.2524 30.0809C26.8774 29.7058 26.6667 29.1971 26.6667 28.6667V18ZM23.3333 20C22.8029 20 22.2942 20.2107 21.9191 20.5858C21.544 20.9609 21.3333 21.4696 21.3333 22V28.6667C21.3333 29.1971 21.544 29.7058 21.9191 30.0809C22.2942 30.456 22.8029 30.6667 23.3333 30.6667C23.8638 30.6667 24.3725 30.456 24.7475 30.0809C25.1226 29.7058 25.3333 29.1971 25.3333 28.6667V22C25.3333 21.4696 25.1226 20.9609 24.7475 20.5858C24.3725 20.2107 23.8638 20 23.3333 20ZM18 24C17.4696 24 16.9609 24.2107 16.5858 24.5858C16.2107 24.9609 16 25.4696 16 26V28.6667C16 29.1971 16.2107 29.7058 16.5858 30.0809C16.9609 30.456 17.4696 30.6667 18 30.6667C18.5304 30.6667 19.0391 30.456 19.4142 30.0809C19.7893 29.7058 20 29.1971 20 28.6667V26C20 25.4696 19.7893 24.9609 19.4142 24.5858C19.0391 24.2107 18.5304 24 18 24Z" fill="black" fill-opacity="0.87"/>
</svg>
