<svg width="32" height="32" viewBox="0 0 32 32" fill="none" xmlns="http://www.w3.org/2000/svg">
<path d="M16 2.66666C23.364 2.66666 29.3333 8.63599 29.3333 16C29.3333 23.364 23.364 29.3333 16 29.3333C13.843 29.3362 11.7177 28.8136 9.808 27.8107L4.088 29.3C3.89688 29.3498 3.69606 29.3487 3.50546 29.297C3.31485 29.2453 3.14108 29.1446 3.00135 29.005C2.86163 28.8654 2.76081 28.6918 2.70889 28.5012C2.65697 28.3106 2.65574 28.1098 2.70534 27.9187L4.19334 22.2C3.18779 20.2882 2.66375 18.1601 2.66667 16C2.66667 8.63599 8.636 2.66666 16 2.66666ZM17.6693 17.3333H11.6667L11.5307 17.3427C11.2913 17.3756 11.072 17.4941 10.9132 17.6762C10.7544 17.8583 10.667 18.0917 10.667 18.3333C10.667 18.5749 10.7544 18.8084 10.9132 18.9905C11.072 19.1726 11.2913 19.2911 11.5307 19.324L11.6667 19.3333H17.6693L17.804 19.324C18.0434 19.2911 18.2627 19.1726 18.4215 18.9905C18.5802 18.8084 18.6677 18.5749 18.6677 18.3333C18.6677 18.0917 18.5802 17.8583 18.4215 17.6762C18.2627 17.4941 18.0434 17.3756 17.804 17.3427L17.6693 17.3333ZM20.3333 12.6667H11.6667L11.5307 12.676C11.2913 12.7089 11.072 12.8274 10.9132 13.0095C10.7544 13.1916 10.667 13.4251 10.667 13.6667C10.667 13.9083 10.7544 14.1417 10.9132 14.3238C11.072 14.5059 11.2913 14.6244 11.5307 14.6573L11.6667 14.6667H20.3333L20.4693 14.6573C20.7087 14.6244 20.928 14.5059 21.0868 14.3238C21.2456 14.1417 21.333 13.9083 21.333 13.6667C21.333 13.4251 21.2456 13.1916 21.0868 13.0095C20.928 12.8274 20.7087 12.7089 20.4693 12.676L20.3333 12.6667Z" fill="black" fill-opacity="0.87"/>
</svg>
