<svg width="32" height="32" viewBox="0 0 32 32" fill="none" xmlns="http://www.w3.org/2000/svg">
<path d="M17.6114 24.2883C17.7992 24.476 17.9047 24.7307 17.9047 24.9963C17.9047 25.2618 17.7992 25.5165 17.6114 25.7043C17.4236 25.892 17.169 25.9975 16.9034 25.9975C16.6378 25.9975 16.3832 25.892 16.1954 25.7043L7.1954 16.7043C7.10227 16.6114 7.02839 16.501 6.97797 16.3795C6.92756 16.258 6.90161 16.1278 6.90161 15.9963C6.90161 15.8647 6.92756 15.7345 6.97797 15.613C7.02839 15.4915 7.10227 15.3811 7.1954 15.2883L16.1954 6.28826C16.2884 6.19528 16.3988 6.12153 16.5202 6.07121C16.6417 6.02089 16.7719 5.995 16.9034 5.995C17.0349 5.995 17.1651 6.02089 17.2866 6.07121C17.408 6.12153 17.5184 6.19528 17.6114 6.28826C17.7044 6.38123 17.7781 6.49161 17.8284 6.61309C17.8788 6.73457 17.9047 6.86477 17.9047 6.99626C17.9047 7.12775 17.8788 7.25795 17.8284 7.37943C17.7781 7.5009 17.7044 7.61128 17.6114 7.70426L9.3174 15.9963L17.6114 24.2883ZM25.6114 24.2883C25.7992 24.476 25.9047 24.7307 25.9047 24.9963C25.9047 25.2618 25.7992 25.5165 25.6114 25.7043C25.4236 25.892 25.1689 25.9975 24.9034 25.9975C24.6378 25.9975 24.3832 25.892 24.1954 25.7043L15.1954 16.7043C15.1023 16.6114 15.0284 16.501 14.978 16.3795C14.9276 16.258 14.9016 16.1278 14.9016 15.9963C14.9016 15.8647 14.9276 15.7345 14.978 15.613C15.0284 15.4915 15.1023 15.3811 15.1954 15.2883L24.1954 6.28826C24.2884 6.19528 24.3988 6.12153 24.5202 6.07121C24.6417 6.02089 24.7719 5.995 24.9034 5.995C25.0349 5.995 25.1651 6.02089 25.2866 6.07121C25.408 6.12153 25.5184 6.19528 25.6114 6.28826C25.7044 6.38123 25.7781 6.49161 25.8284 6.61309C25.8788 6.73457 25.9047 6.86477 25.9047 6.99626C25.9047 7.12775 25.8788 7.25795 25.8284 7.37943C25.7781 7.5009 25.7044 7.61128 25.6114 7.70426L17.3174 15.9963L25.6114 24.2883Z" fill="black" fill-opacity="0.87"/>
</svg>
