<svg width="32" height="32" viewBox="0 0 32 32" fill="none" xmlns="http://www.w3.org/2000/svg">
<path d="M11.293 26.707C11.1056 26.5195 11.0002 26.2652 11.0002 26C11.0002 25.7348 11.1056 25.4805 11.293 25.293L20.586 16L11.293 6.707C11.1109 6.51839 11.0101 6.26579 11.0124 6.00359C11.0146 5.7414 11.1198 5.49058 11.3052 5.30518C11.4906 5.11977 11.7414 5.0146 12.0036 5.01232C12.2658 5.01004 12.5184 5.11084 12.707 5.293L22.707 15.293C22.8945 15.4805 22.9998 15.7348 22.9998 16C22.9998 16.2652 22.8945 16.5195 22.707 16.707L12.707 26.707C12.5195 26.8945 12.2652 26.9998 12 26.9998C11.7349 26.9998 11.4806 26.8945 11.293 26.707Z" fill="black" fill-opacity="0.87"/>
</svg>
