<svg width="32" height="32" viewBox="0 0 32 32" fill="none" xmlns="http://www.w3.org/2000/svg">
<path d="M14.3907 7.70401C14.2978 7.61104 14.224 7.50066 14.1737 7.37918C14.1234 7.2577 14.0975 7.1275 14.0975 6.99601C14.0975 6.86453 14.1234 6.73433 14.1737 6.61285C14.224 6.49137 14.2978 6.38099 14.3907 6.28801C14.4837 6.19504 14.5941 6.12129 14.7156 6.07097C14.837 6.02065 14.9672 5.99475 15.0987 5.99475C15.2302 5.99475 15.3604 6.02065 15.4819 6.07097C15.6034 6.12129 15.7138 6.19504 15.8067 6.28801L24.8067 15.288C24.8999 15.3809 24.9737 15.4913 25.0242 15.6127C25.0746 15.7342 25.1005 15.8645 25.1005 15.996C25.1005 16.1275 25.0746 16.2578 25.0242 16.3793C24.9737 16.5008 24.8999 16.6111 24.8067 16.704L15.8067 25.704C15.619 25.8918 15.3643 25.9973 15.0987 25.9973C14.8332 25.9973 14.5785 25.8918 14.3907 25.704C14.203 25.5162 14.0975 25.2616 14.0975 24.996C14.0975 24.7305 14.203 24.4758 14.3907 24.288L22.6847 15.996L14.3907 7.70401ZM6.39074 7.70401C6.29776 7.61104 6.22401 7.50066 6.17369 7.37918C6.12337 7.2577 6.09747 7.1275 6.09747 6.99601C6.09747 6.86453 6.12337 6.73433 6.17369 6.61285C6.22401 6.49137 6.29776 6.38099 6.39074 6.28801C6.48371 6.19504 6.59409 6.12129 6.71557 6.07097C6.83705 6.02065 6.96725 5.99475 7.09874 5.99475C7.23022 5.99475 7.36042 6.02065 7.4819 6.07097C7.60338 6.12129 7.71376 6.19504 7.80674 6.28801L16.8067 15.288C16.8999 15.3809 16.9737 15.4913 17.0242 15.6127C17.0746 15.7342 17.1005 15.8645 17.1005 15.996C17.1005 16.1275 17.0746 16.2578 17.0242 16.3793C16.9737 16.5008 16.8999 16.6111 16.8067 16.704L7.80674 25.704C7.71376 25.797 7.60338 25.8707 7.4819 25.9211C7.36042 25.9714 7.23022 25.9973 7.09874 25.9973C6.96725 25.9973 6.83705 25.9714 6.71557 25.9211C6.59409 25.8707 6.48371 25.797 6.39074 25.704C6.29776 25.611 6.22401 25.5007 6.17369 25.3792C6.12337 25.2577 6.09747 25.1275 6.09747 24.996C6.09747 24.8645 6.12337 24.7343 6.17369 24.6128C6.22401 24.4914 6.29776 24.381 6.39074 24.288L14.6847 15.996L6.39074 7.70401Z" fill="black" fill-opacity="0.87"/>
</svg>
