<svg width="32" height="32" viewBox="0 0 32 32" fill="none" xmlns="http://www.w3.org/2000/svg">
<path d="M5.66667 14.3333C5.66659 12.0741 6.34176 9.86635 7.6055 7.99359C8.86923 6.12083 10.6638 4.66851 12.759 3.82307C14.8541 2.97763 17.154 2.77767 19.3636 3.24885C21.5732 3.72003 23.5915 4.84085 25.1595 6.46742C26.7275 8.09398 27.7735 10.1521 28.1633 12.3774C28.5532 14.6028 28.269 16.8939 27.3473 18.9566C26.4256 21.0193 24.9084 22.7594 22.9906 23.9536C21.0727 25.1478 18.8417 25.7416 16.584 25.6587C16.3633 26.3412 16.0588 26.9938 15.6773 27.6013C16.1129 27.6458 16.5538 27.6676 17 27.6667C24.364 27.6667 30.3333 21.6973 30.3333 14.3333C30.3333 6.96933 24.364 1 17 1C9.636 1 3.66667 6.96933 3.66667 14.3333C3.66667 14.7787 3.688 15.2191 3.73067 15.6547C4.33862 15.2731 4.99162 14.9686 5.67467 14.748C5.66961 14.6098 5.66694 14.4716 5.66667 14.3333ZM16.9907 7.19733C16.9561 6.94633 16.8276 6.7178 16.6311 6.55791C16.4345 6.39802 16.1846 6.3187 15.9318 6.33597C15.6791 6.35323 15.4423 6.46581 15.2693 6.65094C15.0963 6.83608 15.0001 7.07997 15 7.33333V15.3333L15.0093 15.4693C15.0422 15.7087 15.1606 15.9281 15.3428 16.087C15.5249 16.2458 15.7584 16.3333 16 16.3333H21.3333L21.4693 16.324C21.7203 16.2895 21.9489 16.1609 22.1088 15.9644C22.2686 15.7679 22.348 15.5179 22.3307 15.2652C22.3134 15.0124 22.2009 14.7756 22.0157 14.6026C21.8306 14.4297 21.5867 14.3334 21.3333 14.3333H17V7.33333L16.9907 7.19733ZM15.6667 23C15.6667 23.963 15.477 24.9166 15.1085 25.8063C14.7399 26.6961 14.1997 27.5045 13.5188 28.1855C12.8378 28.8664 12.0294 29.4066 11.1397 29.7751C10.25 30.1437 9.29636 30.3333 8.33333 30.3333C7.37031 30.3333 6.41671 30.1437 5.52699 29.7751C4.63727 29.4066 3.82885 28.8664 3.14788 28.1855C2.46692 27.5045 1.92675 26.6961 1.55822 25.8063C1.18968 24.9166 1 23.963 1 23C1 21.0551 1.77262 19.1898 3.14788 17.8146C4.52315 16.4393 6.38841 15.6667 8.33333 15.6667C10.2783 15.6667 12.1435 16.4393 13.5188 17.8146C14.8941 19.1898 15.6667 21.0551 15.6667 23ZM8.33333 22.0573L6.13867 19.8613C6.01348 19.7362 5.8437 19.6658 5.66667 19.6658C5.48963 19.6658 5.31985 19.7362 5.19467 19.8613C5.06948 19.9865 4.99916 20.1563 4.99916 20.3333C4.99916 20.5104 5.06948 20.6802 5.19467 20.8053L7.39067 23L5.19467 25.1947C5.06948 25.3198 4.99916 25.4896 4.99916 25.6667C4.99916 25.8437 5.06948 26.0135 5.19467 26.1387C5.31985 26.2638 5.48963 26.3342 5.66667 26.3342C5.8437 26.3342 6.01348 26.2638 6.13867 26.1387L8.33333 23.9427L10.528 26.1387C10.6532 26.2638 10.823 26.3342 11 26.3342C11.177 26.3342 11.3468 26.2638 11.472 26.1387C11.5972 26.0135 11.6675 25.8437 11.6675 25.6667C11.6675 25.4896 11.5972 25.3198 11.472 25.1947L9.276 23L11.472 20.8053C11.5972 20.6802 11.6675 20.5104 11.6675 20.3333C11.6675 20.1563 11.5972 19.9865 11.472 19.8613C11.3468 19.7362 11.177 19.6658 11 19.6658C10.823 19.6658 10.6532 19.7362 10.528 19.8613L8.33333 22.0573Z" fill="black" fill-opacity="0.87"/>
</svg>
