<svg viewBox="0 0 20 20" fill="none" xmlns="http://www.w3.org/2000/svg">
  <path d="M0.1425 0.3457L0.233699 0.233699C0.366268 0.101419 0.541044 0.0198402 0.727578 0.00317497C0.914112 -0.0134903 1.10058 0.0358149 1.2545 0.1425L1.3665 0.233699L9.6001 8.4689L17.8337 0.233699C17.9663 0.101419 18.141 0.0198402 18.3276 0.00317497C18.5141 -0.0134903 18.7006 0.0358149 18.8545 0.1425L18.9665 0.233699C19.0988 0.366268 19.1804 0.541044 19.197 0.727578C19.2137 0.914112 19.1644 1.10058 19.0577 1.2545L18.9665 1.3665L10.7313 9.6001L18.9665 17.8337C19.0988 17.9663 19.1804 18.141 19.197 18.3276C19.2137 18.5141 19.1644 18.7006 19.0577 18.8545L18.9665 18.9665C18.8339 19.0988 18.6592 19.1804 18.4726 19.197C18.2861 19.2137 18.0996 19.1644 17.9457 19.0577L17.8337 18.9665L9.6001 10.7313L1.3665 18.9665C1.23393 19.0988 1.05915 19.1804 0.872621 19.197C0.686087 19.2137 0.499618 19.1644 0.3457 19.0577L0.233699 18.9665C0.101419 18.8339 0.0198402 18.6592 0.00317497 18.4726C-0.0134903 18.2861 0.0358149 18.0996 0.1425 17.9457L0.233699 17.8337L8.4689 9.6001L0.233699 1.3665C0.101419 1.23393 0.0198402 1.05915 0.00317497 0.872621C-0.0134903 0.686087 0.0358149 0.499618 0.1425 0.3457Z" fill="currentColor" fillOpacity="0.87"/>
</svg>