<svg width="32" height="32" viewBox="0 0 32 32" fill="none" xmlns="http://www.w3.org/2000/svg">
<path d="M16 2.66667C14.1047 2.66649 12.2708 3.33924 10.8252 4.56506C9.37965 5.79087 8.41624 7.49012 8.10666 9.36001C6.57162 9.50521 5.15139 10.2358 4.14064 11.4002C3.12989 12.5646 2.60621 14.0734 2.67825 15.6137C2.75029 17.1539 3.41251 18.6072 4.52753 19.6722C5.64255 20.7372 7.12477 21.332 8.66666 21.3333H17.5733L17.7507 20.6573C17.95 19.8928 18.3714 19.2044 18.9615 18.6791C19.5517 18.1537 20.2842 17.8149 21.0667 17.7053C21.3907 16.9453 21.8981 16.2774 22.5434 15.7614C23.1886 15.2454 23.9517 14.8973 24.7644 14.7484C25.5771 14.5994 26.4141 14.6541 27.2004 14.9077C27.9868 15.1612 28.6981 15.6057 29.2707 16.2013C29.3124 15.9169 29.3333 15.6276 29.3333 15.3333C29.3332 13.8391 28.7755 12.3986 27.7694 11.2938C26.7633 10.1891 25.3811 9.49947 23.8933 9.36001C23.5838 7.49012 22.6203 5.79087 21.1748 4.56506C19.7292 3.33924 17.8953 2.66649 16 2.66667ZM25.6667 18C26.1087 18 26.5326 18.1756 26.8452 18.4882C27.1577 18.8007 27.3333 19.2246 27.3333 19.6667C27.3333 20.1087 27.1577 20.5326 26.8452 20.8452C26.5326 21.1577 26.1087 21.3333 25.6667 21.3333C25.2246 21.3333 24.8007 21.1577 24.4882 20.8452C24.1756 20.5326 24 20.1087 24 19.6667C24 19.2246 24.1756 18.8007 24.4882 18.4882C24.8007 18.1756 25.2246 18 25.6667 18ZM21.6213 21H22.2493C22.5708 21.8245 23.1795 22.505 23.9633 22.916C24.747 23.327 25.6529 23.4408 26.514 23.2363C27.375 23.0319 28.1331 22.5231 28.6485 21.8037C29.1639 21.0843 29.4018 20.2029 29.3184 19.3218C29.235 18.4408 28.8359 17.6196 28.1947 17.0097C27.5534 16.3998 26.7133 16.0423 25.8292 16.0031C24.9451 15.9639 24.0767 16.2457 23.384 16.7964C22.6913 17.3472 22.221 18.1298 22.06 19H21.62C21.0303 19.0004 20.4573 19.1962 19.9907 19.5569C19.5241 19.9175 19.1902 20.4227 19.0413 20.9933L17.6907 26.168C17.6535 26.3108 17.5699 26.4373 17.4531 26.5275C17.3364 26.6178 17.1929 26.6667 17.0453 26.6667H15.9853C15.905 25.787 15.5097 24.9659 14.8722 24.3543C14.2348 23.7428 13.398 23.3819 12.5157 23.3381C11.6334 23.2943 10.765 23.5705 10.0701 24.1159C9.37519 24.6613 8.90054 25.4392 8.73342 26.3066C8.5663 27.174 8.71795 28.0726 9.16047 28.8371C9.603 29.6016 10.3067 30.1807 11.142 30.4678C11.9774 30.755 12.8884 30.7309 13.7075 30.3999C14.5265 30.069 15.1985 29.4535 15.6 28.6667H17.0453C17.6353 28.6666 18.2086 28.4709 18.6754 28.1102C19.1423 27.7495 19.4764 27.2442 19.6253 26.6733L20.976 21.4987C21.0132 21.3558 21.0967 21.2294 21.2135 21.1391C21.3303 21.0489 21.4737 21 21.6213 21ZM10.6667 27C10.6667 26.558 10.8423 26.1341 11.1548 25.8215C11.4674 25.5089 11.8913 25.3333 12.3333 25.3333C12.7754 25.3333 13.1993 25.5089 13.5118 25.8215C13.8244 26.1341 14 26.558 14 27C14 27.442 13.8244 27.866 13.5118 28.1785C13.1993 28.4911 12.7754 28.6667 12.3333 28.6667C11.8913 28.6667 11.4674 28.4911 11.1548 28.1785C10.8423 27.866 10.6667 27.442 10.6667 27Z" fill="black" fill-opacity="0.87"/>
</svg>
