<svg width="32" height="32" viewBox="0 0 32 32" fill="none" xmlns="http://www.w3.org/2000/svg">
<path d="M13.3333 6.66667H18.6666C18.6666 5.95942 18.3857 5.28115 17.8856 4.78105C17.3855 4.28095 16.7072 4 16 4C15.2927 4 14.6144 4.28095 14.1143 4.78105C13.6142 5.28115 13.3333 5.95942 13.3333 6.66667ZM11.3333 6.66667C11.3333 6.05383 11.454 5.447 11.6885 4.88081C11.923 4.31463 12.2668 3.80018 12.7001 3.36684C13.1335 2.9335 13.6479 2.58975 14.2141 2.35523C14.7803 2.12071 15.3871 2 16 2C16.6128 2 17.2196 2.12071 17.7858 2.35523C18.352 2.58975 18.8664 2.9335 19.2998 3.36684C19.7331 3.80018 20.0769 4.31463 20.3114 4.88081C20.5459 5.447 20.6666 6.05383 20.6666 6.66667H28.3333C28.5985 6.66667 28.8529 6.77202 29.0404 6.95956C29.2279 7.1471 29.3333 7.40145 29.3333 7.66667C29.3333 7.93188 29.2279 8.18624 29.0404 8.37377C28.8529 8.56131 28.5985 8.66667 28.3333 8.66667H26.5733L25.0133 24.8147C24.8936 26.052 24.3173 27.2003 23.3969 28.0358C22.4764 28.8712 21.2777 29.3338 20.0346 29.3333H11.9653C10.7224 29.3335 9.52409 28.8707 8.60389 28.0353C7.68369 27.1999 7.1076 26.0517 6.98796 24.8147L5.42663 8.66667H3.66663C3.40141 8.66667 3.14706 8.56131 2.95952 8.37377C2.77198 8.18624 2.66663 7.93188 2.66663 7.66667C2.66663 7.40145 2.77198 7.1471 2.95952 6.95956C3.14706 6.77202 3.40141 6.66667 3.66663 6.66667H11.3333ZM14 13C14 12.7348 13.8946 12.4804 13.7071 12.2929C13.5195 12.1054 13.2652 12 13 12C12.7347 12 12.4804 12.1054 12.2929 12.2929C12.1053 12.4804 12 12.7348 12 13V23C12 23.2652 12.1053 23.5196 12.2929 23.7071C12.4804 23.8946 12.7347 24 13 24C13.2652 24 13.5195 23.8946 13.7071 23.7071C13.8946 23.5196 14 23.2652 14 23V13ZM19 12C19.2652 12 19.5195 12.1054 19.7071 12.2929C19.8946 12.4804 20 12.7348 20 13V23C20 23.2652 19.8946 23.5196 19.7071 23.7071C19.5195 23.8946 19.2652 24 19 24C18.7347 24 18.4804 23.8946 18.2929 23.7071C18.1053 23.5196 18 23.2652 18 23V13C18 12.7348 18.1053 12.4804 18.2929 12.2929C18.4804 12.1054 18.7347 12 19 12ZM8.97863 24.6227C9.05054 25.3649 9.39629 26.0537 9.94845 26.5548C10.5006 27.056 11.2196 27.3335 11.9653 27.3333H20.0346C20.7803 27.3335 21.4993 27.056 22.0515 26.5548C22.6036 26.0537 22.9494 25.3649 23.0213 24.6227L24.5653 8.66667H7.43463L8.97863 24.6227Z" fill="black" fill-opacity="0.87"/>
</svg>
