<svg width="32" height="32" viewBox="0 0 32 32" fill="none" xmlns="http://www.w3.org/2000/svg">
<path d="M6.1425 6.3457L6.2337 6.2337C6.36627 6.10142 6.54104 6.01984 6.72758 6.00317C6.91411 5.98651 7.10058 6.03581 7.2545 6.1425L7.3665 6.2337L15.6001 14.4689L23.8337 6.2337C23.9663 6.10142 24.141 6.01984 24.3276 6.00317C24.5141 5.98651 24.7006 6.03581 24.8545 6.1425L24.9665 6.2337C25.0988 6.36627 25.1804 6.54104 25.197 6.72758C25.2137 6.91411 25.1644 7.10058 25.0577 7.2545L24.9665 7.3665L16.7313 15.6001L24.9665 23.8337C25.0988 23.9663 25.1804 24.141 25.197 24.3276C25.2137 24.5141 25.1644 24.7006 25.0577 24.8545L24.9665 24.9665C24.8339 25.0988 24.6592 25.1804 24.4726 25.197C24.2861 25.2137 24.0996 25.1644 23.9457 25.0577L23.8337 24.9665L15.6001 16.7313L7.3665 24.9665C7.23393 25.0988 7.05915 25.1804 6.87262 25.197C6.68609 25.2137 6.49962 25.1644 6.3457 25.0577L6.2337 24.9665C6.10142 24.8339 6.01984 24.6592 6.00317 24.4726C5.98651 24.2861 6.03581 24.0996 6.1425 23.9457L6.2337 23.8337L14.4689 15.6001L6.2337 7.3665C6.10142 7.23393 6.01984 7.05915 6.00317 6.87262C5.98651 6.68609 6.03581 6.49962 6.1425 6.3457Z" fill="black" fill-opacity="0.87"/>
</svg>
