<svg width="32" height="32" viewBox="0 0 32 32" fill="none" xmlns="http://www.w3.org/2000/svg">
<path d="M16.9888 16.4C16.4871 15.7917 15.9059 15.2535 15.2608 14.8H23C23.2122 14.8 23.4157 14.8843 23.5657 15.0343C23.7157 15.1843 23.8 15.3878 23.8 15.6C23.8 15.8122 23.7157 16.0157 23.5657 16.1657C23.4157 16.3157 23.2122 16.4 23 16.4H16.9888ZM18.04 18C18.3003 18.5077 18.5099 19.0411 18.6688 19.6H23C23.2122 19.6 23.4157 19.5157 23.5657 19.3657C23.7157 19.2157 23.8 19.0122 23.8 18.8C23.8 18.5878 23.7157 18.3843 23.5657 18.2343C23.4157 18.0843 23.2122 18 23 18H18.04ZM19 22C19 22.2688 18.9883 22.5355 18.9648 22.8H23C23.2122 22.8 23.4157 22.7157 23.5657 22.5657C23.7157 22.4157 23.8 22.2122 23.8 22C23.8 21.7878 23.7157 21.5843 23.5657 21.4343C23.4157 21.2843 23.2122 21.2 23 21.2H18.9648C18.9872 21.4645 18.9989 21.7312 19 22ZM9.4 5.2V13.2352C8.85867 13.2842 8.32305 13.3833 7.8 13.5312V5.2C7.8 4.35131 8.13714 3.53737 8.73726 2.93726C9.33737 2.33714 10.1513 2 11 2H18.3376C18.9739 2.00056 19.5839 2.25378 20.0336 2.704L26.2976 8.9664C26.7472 9.41632 26.9999 10.0263 27 10.6624V24.4C27 25.2487 26.6629 26.0626 26.0627 26.6627C25.4626 27.2629 24.6487 27.6 23.8 27.6H16.9888C17.3952 27.1072 17.7456 26.5739 18.04 26H23.8C24.2243 26 24.6313 25.8314 24.9314 25.5314C25.2314 25.2313 25.4 24.8243 25.4 24.4V11.6H19.8C19.1635 11.6 18.553 11.3471 18.1029 10.8971C17.6529 10.447 17.4 9.83652 17.4 9.2V3.6H11C10.5757 3.6 10.1687 3.76857 9.86863 4.06863C9.56857 4.36869 9.4 4.77565 9.4 5.2ZM19.8 10H25.0688L19 3.9312V9.2C19 9.41217 19.0843 9.61566 19.2343 9.76569C19.3843 9.91571 19.5878 10 19.8 10ZM10.2 29.2C12.1096 29.2 13.9409 28.4414 15.2912 27.0912C16.6414 25.7409 17.4 23.9096 17.4 22C17.4 20.0904 16.6414 18.2591 15.2912 16.9088C13.9409 15.5586 12.1096 14.8 10.2 14.8C8.29044 14.8 6.45909 15.5586 5.10883 16.9088C3.75857 18.2591 3 20.0904 3 22C3 23.9096 3.75857 25.7409 5.10883 27.0912C6.45909 28.4414 8.29044 29.2 10.2 29.2ZM9.4 18.8C9.4 18.5878 9.48429 18.3843 9.63432 18.2343C9.78434 18.0843 9.98783 18 10.2 18C10.4122 18 10.6157 18.0843 10.7657 18.2343C10.9157 18.3843 11 18.5878 11 18.8V21.2H12.6C12.8122 21.2 13.0157 21.2843 13.1657 21.4343C13.3157 21.5843 13.4 21.7878 13.4 22C13.4 22.2122 13.3157 22.4157 13.1657 22.5657C13.0157 22.7157 12.8122 22.8 12.6 22.8H10.2C9.98783 22.8 9.78434 22.7157 9.63432 22.5657C9.48429 22.4157 9.4 22.2122 9.4 22V18.8Z" fill="black" fill-opacity="0.87"/>
</svg>
