<svg width="32" height="32" viewBox="0 0 32 32" fill="none" xmlns="http://www.w3.org/2000/svg">
<path d="M7 5.25V26.75C7 27.44 7.56 28 8.25 28H23.75C24.44 28 25 27.44 25 26.75V13H19.25C18.388 13 17.5614 12.6576 16.9519 12.0481C16.3424 11.4386 16 10.612 16 9.75V4H8.25C7.56 4 7 4.56 7 5.25ZM24.586 11L18 4.414V9.75C18 10.44 18.56 11 19.25 11H24.586ZM27 26.75C27 27.612 26.6576 28.4386 26.0481 29.0481C25.4386 29.6576 24.612 30 23.75 30H8.25C7.38805 30 6.5614 29.6576 5.9519 29.0481C5.34241 28.4386 5 27.612 5 26.75V5.25C5 4.38805 5.34241 3.5614 5.9519 2.9519C6.5614 2.34241 7.38805 2 8.25 2H17.068C17.9299 2.00005 18.7565 2.34249 19.366 2.952L26.048 9.634C26.658 10.244 27 11.07 27 11.932V26.75Z" fill="black" fill-opacity="0.87"/>
</svg>
