<svg width="32" height="32" viewBox="0 0 32 32" fill="none" xmlns="http://www.w3.org/2000/svg">
<path d="M5 6.2C5 5.35131 5.33714 4.53737 5.93726 3.93726C6.53737 3.33714 7.35131 3 8.2 3H15.5376C16.1739 3.00056 16.7839 3.25378 17.2336 3.704L23.4976 9.9664L23.6048 10.08C23.3008 10.2698 23.0191 10.4931 22.7648 10.7456L20.9088 12.6H17C16.3635 12.6 15.753 12.3471 15.3029 11.8971C14.8529 11.447 14.6 10.8365 14.6 10.2V4.6H8.2C7.77565 4.6 7.36869 4.76857 7.06863 5.06863C6.76857 5.36869 6.6 5.77565 6.6 6.2V25.4C6.6 25.8243 6.76857 26.2313 7.06863 26.5314C7.36869 26.8314 7.77565 27 8.2 27H15.8544C15.9589 27.0053 16.0645 27.0053 16.1712 27H21C21.4243 27 21.8313 26.8314 22.1314 26.5314C22.4314 26.2313 22.6 25.8243 22.6 25.4V23.8992L24.2 22.2992V25.4C24.2 26.2487 23.8629 27.0626 23.2627 27.6627C22.6626 28.2629 21.8487 28.6 21 28.6H8.2C7.35131 28.6 6.53737 28.2629 5.93726 27.6627C5.33714 27.0626 5 26.2487 5 25.4V6.2ZM17 11H22.2688L16.2 4.9312V10.2C16.2 10.4122 16.2843 10.6157 16.4343 10.7657C16.5843 10.9157 16.7878 11 17 11ZM23.896 11.8768L16.168 19.6048C15.7178 20.0551 15.3982 20.6192 15.2432 21.2368L14.6432 23.6336C14.6296 23.6885 14.6189 23.744 14.6112 23.8H9C8.78783 23.8 8.58434 23.8843 8.43431 24.0343C8.28429 24.1843 8.2 24.3878 8.2 24.6C8.2 24.8122 8.28429 25.0157 8.43431 25.1657C8.58434 25.3157 8.78783 25.4 9 25.4H15.928C15.9877 25.4033 16.0475 25.4033 16.1072 25.4H16.2C16.3355 25.4 16.4592 25.3696 16.5712 25.3088L18.7664 24.76C19.384 24.605 19.9481 24.2854 20.3984 23.8352L28.1264 16.1072C28.6802 15.5445 28.9892 14.7857 28.986 13.9962C28.9828 13.2067 28.6677 12.4505 28.1093 11.8923C27.5509 11.3342 26.7945 11.0193 26.005 11.0164C25.2155 11.0135 24.4569 11.3228 23.8944 11.8768" fill="black" fill-opacity="0.87"/>
</svg>
