<svg width="32" height="32" viewBox="0 0 32 32" fill="none" xmlns="http://www.w3.org/2000/svg">
<path d="M26.3333 26C26.3333 26.1768 26.2631 26.3464 26.1381 26.4714C26.013 26.5964 25.8435 26.6667 25.6667 26.6667H18.024C17.6425 27.3984 17.1585 28.0718 16.5867 28.6667H25.6667C26.3739 28.6667 27.0522 28.3857 27.5523 27.8856C28.0524 27.3855 28.3333 26.7072 28.3333 26V12.4373C28.3332 11.7301 28.0521 11.052 27.552 10.552L19.78 2.78133L19.7147 2.728L19.6667 2.688C19.5751 2.60119 19.4776 2.52099 19.3747 2.448C19.34 2.42683 19.3044 2.40725 19.268 2.38933L19.204 2.35733L19.1373 2.31867C19.0653 2.27733 18.992 2.23467 18.916 2.20267C18.6503 2.09713 18.3694 2.03501 18.084 2.01867C18.0573 2.01689 18.0311 2.01378 18.0053 2.00933L17.896 2H9.66667C8.95942 2 8.28115 2.28095 7.78105 2.78105C7.28095 3.28115 7 3.95942 7 4.66667V14.664C7.64169 14.3969 8.31318 14.208 9 14.1013V4.66667C9 4.48986 9.07024 4.32029 9.19526 4.19526C9.32029 4.07024 9.48986 4 9.66667 4H17.6667V10C17.6667 10.7072 17.9476 11.3855 18.4477 11.8856C18.9478 12.3857 19.6261 12.6667 20.3333 12.6667H26.3333V26ZM19.6667 5.49467L24.8373 10.6667H20.3333C20.1565 10.6667 19.987 10.5964 19.8619 10.4714C19.7369 10.3464 19.6667 10.1768 19.6667 10V5.49467Z" fill="black" fill-opacity="0.87"/>
<path d="M17.6667 22.6667C17.6667 23.6297 17.477 24.5833 17.1085 25.473C16.7399 26.3627 16.1997 27.1712 15.5188 27.8521C14.8378 28.5331 14.0294 29.0732 13.1397 29.4418C12.25 29.8103 11.2964 30 10.3333 30C9.37031 30 8.41671 29.8103 7.52699 29.4418C6.63727 29.0732 5.82885 28.5331 5.14788 27.8521C4.46692 27.1712 3.92675 26.3627 3.55822 25.473C3.18968 24.5833 3 23.6297 3 22.6667C3 20.7217 3.77262 18.8565 5.14788 17.4812C6.52315 16.1059 8.38841 15.3333 10.3333 15.3333C12.2783 15.3333 14.1435 16.1059 15.5188 17.4812C16.8941 18.8565 17.6667 20.7217 17.6667 22.6667ZM14.8053 19.528C14.7434 19.4659 14.6698 19.4167 14.5888 19.3831C14.5079 19.3494 14.421 19.3321 14.3333 19.3321C14.2456 19.3321 14.1588 19.3494 14.0778 19.3831C13.9968 19.4167 13.9233 19.4659 13.8613 19.528L9 24.3907L6.80533 22.1947C6.68015 22.0695 6.51037 21.9992 6.33333 21.9992C6.1563 21.9992 5.98652 22.0695 5.86133 22.1947C5.73615 22.3198 5.66582 22.4896 5.66582 22.6667C5.66582 22.8437 5.73615 23.0135 5.86133 23.1387L8.528 25.8053C8.58993 25.8674 8.6635 25.9167 8.74449 25.9503C8.82548 25.9839 8.91231 26.0012 9 26.0012C9.08769 26.0012 9.17452 25.9839 9.25551 25.9503C9.33651 25.9167 9.41007 25.8674 9.472 25.8053L14.8053 20.472C14.8674 20.4101 14.9167 20.3365 14.9503 20.2555C14.9839 20.1745 15.0012 20.0877 15.0012 20C15.0012 19.9123 14.9839 19.8255 14.9503 19.7445C14.9167 19.6635 14.8674 19.5899 14.8053 19.528Z" fill="black" fill-opacity="0.87"/>
</svg>
