<svg width="32" height="32" viewBox="0 0 32 32" fill="none" xmlns="http://www.w3.org/2000/svg">
<path d="M25.9999 26C25.9999 26.1768 25.9297 26.3464 25.8047 26.4714C25.6797 26.5964 25.5101 26.6667 25.3333 26.6667H17.3333V28C17.3333 28.2284 17.3111 28.4507 17.2666 28.6667H25.3333C26.0405 28.6667 26.7188 28.3857 27.2189 27.8856C27.719 27.3855 27.9999 26.7072 27.9999 26V12.4373C27.9998 11.7301 27.7187 11.052 27.2186 10.552L19.4466 2.78133L19.3813 2.728L19.3333 2.688C19.2417 2.60119 19.1442 2.52099 19.0413 2.448C19.0066 2.42683 18.971 2.40725 18.9346 2.38933L18.8706 2.35733L18.8039 2.31867C18.7319 2.27733 18.6586 2.23467 18.5826 2.20267C18.3169 2.09713 18.036 2.03501 17.7506 2.01867C17.7239 2.01689 17.6977 2.01378 17.6719 2.00933L17.5626 2H9.33327C8.62603 2 7.94775 2.28095 7.44765 2.78105C6.94756 3.28115 6.66661 3.95942 6.66661 4.66667V14.7333C7.2202 14.1681 7.90843 13.7528 8.66661 13.5267V4.66667C8.66661 4.48986 8.73684 4.32029 8.86187 4.19526C8.98689 4.07024 9.15646 4 9.33327 4H17.3333V10C17.3333 10.7072 17.6142 11.3855 18.1143 11.8856C18.6144 12.3857 19.2927 12.6667 19.9999 12.6667H25.9999V26ZM19.3333 5.49467L24.5039 10.6667H19.9999C19.8231 10.6667 19.6536 10.5964 19.5285 10.4714C19.4035 10.3464 19.3333 10.1768 19.3333 10V5.49467ZM6.66661 19.3333H5.99994C5.46951 19.3333 4.9608 19.544 4.58573 19.9191C4.21065 20.2942 3.99994 20.8029 3.99994 21.3333V28C3.99994 28.5304 4.21065 29.0391 4.58573 29.4142C4.9608 29.7893 5.46951 30 5.99994 30H13.9999C14.5304 30 15.0391 29.7893 15.4142 29.4142C15.7892 29.0391 15.9999 28.5304 15.9999 28V21.3333C15.9999 20.8029 15.7892 20.2942 15.4142 19.9191C15.0391 19.544 14.5304 19.3333 13.9999 19.3333H13.3333V18C13.3333 17.1159 12.9821 16.2681 12.357 15.643C11.7318 15.0179 10.884 14.6667 9.99994 14.6667C9.11588 14.6667 8.26804 15.0179 7.64292 15.643C7.0178 16.2681 6.66661 17.1159 6.66661 18V19.3333ZM8.66661 18C8.66661 17.6464 8.80708 17.3072 9.05713 17.0572C9.30718 16.8071 9.64632 16.6667 9.99994 16.6667C10.3536 16.6667 10.6927 16.8071 10.9427 17.0572C11.1928 17.3072 11.3333 17.6464 11.3333 18V19.3333H8.66661V18ZM11.3333 24.6667C11.3333 25.0203 11.1928 25.3594 10.9427 25.6095C10.6927 25.8595 10.3536 26 9.99994 26C9.64632 26 9.30718 25.8595 9.05713 25.6095C8.80708 25.3594 8.66661 25.0203 8.66661 24.6667C8.66661 24.313 8.80708 23.9739 9.05713 23.7239C9.30718 23.4738 9.64632 23.3333 9.99994 23.3333C10.3536 23.3333 10.6927 23.4738 10.9427 23.7239C11.1928 23.9739 11.3333 24.313 11.3333 24.6667Z" fill="black" fill-opacity="0.87"/>
</svg>
