<svg width="32" height="32" viewBox="0 0 32 32" fill="none" xmlns="http://www.w3.org/2000/svg">
<path fill-rule="evenodd" clip-rule="evenodd" d="M17.3333 5.33333C17.3333 4.97971 17.1929 4.64057 16.9428 4.39052C16.6928 4.14048 16.3536 4 16 4C15.6464 4 15.3072 4.14048 15.0572 4.39052C14.8071 4.64057 14.6667 4.97971 14.6667 5.33333V6.66667C13.2522 6.66667 11.8956 7.22857 10.8954 8.22876C9.89523 9.22896 9.33333 10.5855 9.33333 12C9.33333 13.4145 9.89523 14.771 10.8954 15.7712C11.8956 16.7714 13.2522 17.3333 14.6667 17.3333V22.6667C14.1151 22.6669 13.577 22.4962 13.1265 22.1778C12.676 21.8595 12.3353 21.4094 12.1513 20.8893C12.029 20.5621 11.783 20.2959 11.4664 20.1481C11.1498 20.0003 10.7878 19.9827 10.4584 20.0991C10.1289 20.2155 9.85829 20.4565 9.70475 20.7704C9.5512 21.0842 9.52699 21.4458 9.63733 21.7773C10.0049 22.8174 10.686 23.7179 11.5868 24.3548C12.4875 24.9916 13.5635 25.3335 14.6667 25.3333V26.6667C14.6667 27.0203 14.8071 27.3594 15.0572 27.6095C15.3072 27.8595 15.6464 28 16 28C16.3536 28 16.6928 27.8595 16.9428 27.6095C17.1929 27.3594 17.3333 27.0203 17.3333 26.6667V25.3333C18.7478 25.3333 20.1044 24.7714 21.1046 23.7712C22.1048 22.771 22.6667 21.4145 22.6667 20C22.6667 18.5855 22.1048 17.229 21.1046 16.2288C20.1044 15.2286 18.7478 14.6667 17.3333 14.6667V9.33333C17.8849 9.33306 18.423 9.50384 18.8735 9.82215C19.324 10.1405 19.6647 10.5906 19.8487 11.1107C19.971 11.4379 20.217 11.7041 20.5336 11.8519C20.8502 11.9997 21.2122 12.0173 21.5416 11.9009C21.8711 11.7845 22.1417 11.5435 22.2952 11.2296C22.4488 10.9158 22.473 10.5542 22.3627 10.2227C21.995 9.18259 21.314 8.2821 20.4132 7.64524C19.5125 7.00838 18.4365 6.66649 17.3333 6.66667V5.33333ZM14.6667 9.33333C13.9594 9.33333 13.2811 9.61428 12.781 10.1144C12.2809 10.6145 12 11.2928 12 12C12 12.7072 12.2809 13.3855 12.781 13.8856C13.2811 14.3857 13.9594 14.6667 14.6667 14.6667V9.33333ZM17.3333 17.3333V22.6667C18.0406 22.6667 18.7188 22.3857 19.2189 21.8856C19.719 21.3855 20 20.7072 20 20C20 19.2928 19.719 18.6145 19.2189 18.1144C18.7188 17.6143 18.0406 17.3333 17.3333 17.3333Z" fill="black" fill-opacity="0.87"/>
</svg>
