<svg width="32" height="32" viewBox="0 0 32 32" fill="none" xmlns="http://www.w3.org/2000/svg">
<path d="M30.0365 7.35996C30.2954 7.36459 30.5423 7.46999 30.7254 7.65311C30.9086 7.83624 31.0139 8.08317 31.0186 8.3421C31.0232 8.60113 30.9266 8.85195 30.75 9.0415L16.0833 23.7082C15.8958 23.8954 15.6415 24.0013 15.3765 24.0013C15.1116 24.0012 14.8578 23.8954 14.6704 23.7082L12.8192 21.857L14.2321 20.444L15.3765 21.5884L29.337 7.62856C29.5266 7.45197 29.7774 7.35539 30.0365 7.35996Z" fill="black" fill-opacity="0.87"/>
<path d="M2.44362 16.2952C2.25406 16.1185 2.00333 16.0224 1.74426 16.0269C1.48519 16.0315 1.23801 16.1365 1.0548 16.3197C0.871578 16.5029 0.766629 16.7501 0.762058 17.0091C0.757487 17.2682 0.853651 17.5189 1.03029 17.7085L7.03029 23.7085C7.21779 23.8958 7.47196 24.001 7.73696 24.001C8.00196 24.001 8.25612 23.8958 8.44362 23.7085L23.1103 9.04184C23.2869 8.85227 23.3831 8.60154 23.3785 8.34247C23.374 8.0834 23.269 7.83622 23.0858 7.65301C22.9026 7.46979 22.6554 7.36484 22.3963 7.36027C22.1373 7.3557 21.8865 7.45186 21.697 7.6285L7.73696 21.5885L2.44362 16.2952Z" fill="black" fill-opacity="0.87"/>
</svg>
