<svg width="32" height="32" viewBox="0 0 32 32" fill="none" xmlns="http://www.w3.org/2000/svg">
<path d="M24.3333 27.3335C24.5986 27.3335 24.8529 27.4388 25.0404 27.6264C25.228 27.8139 25.3333 28.0683 25.3333 28.3335C25.3333 28.5987 25.228 28.853 25.0404 29.0406C24.8529 29.2281 24.5986 29.3335 24.3333 29.3335L7 29.3401C6.73478 29.3401 6.48043 29.2348 6.29289 29.0472C6.10536 28.8597 6 28.6054 6 28.3401C6 28.0749 6.10536 27.8206 6.29289 27.633C6.48043 27.4455 6.73478 27.3401 7 27.3401L24.3333 27.3335ZM15.5307 2.68547L15.6667 2.67614C15.9083 2.67615 16.1418 2.76366 16.3239 2.92249C16.506 3.08133 16.6245 3.30073 16.6573 3.54014L16.6667 3.67614L16.6653 21.9228L21.628 16.9628C21.7973 16.7934 22.0218 16.6905 22.2606 16.6726C22.4994 16.6548 22.7367 16.7232 22.9293 16.8655L23.0427 16.9628C23.2118 17.1323 23.3146 17.3568 23.3322 17.5957C23.3498 17.8345 23.2811 18.0717 23.1387 18.2641L23.0413 18.3761L16.3787 25.0388C16.2093 25.2082 15.9849 25.3111 15.7461 25.329C15.5073 25.3469 15.27 25.2784 15.0773 25.1361L14.964 25.0388L8.29333 18.3775C8.11395 18.1993 8.00873 17.9597 7.99887 17.707C7.98901 17.4544 8.07523 17.2074 8.24018 17.0157C8.40512 16.8241 8.63655 16.702 8.88787 16.6741C9.13918 16.6463 9.39173 16.7146 9.59467 16.8655L9.70667 16.9615L14.6653 21.9135L14.6667 3.6748C14.6667 3.43315 14.7542 3.19968 14.913 3.01756C15.0719 2.83545 15.2913 2.71834 15.5307 2.68547Z" fill="black" fill-opacity="0.87"/>
</svg>
