<svg width="32" height="32" viewBox="0 0 32 32" fill="none" xmlns="http://www.w3.org/2000/svg">
<path d="M16 2.66667C23.364 2.66667 29.3333 8.63734 29.3333 16C29.3333 23.3627 23.364 29.3333 16 29.3333C8.636 29.3333 2.66667 23.3627 2.66667 16C2.66667 8.63734 8.636 2.66667 16 2.66667ZM16 4.88934C9.87334 4.88934 4.88934 9.87334 4.88934 16C4.88934 22.1267 9.87334 27.1107 16 27.1107C22.1267 27.1107 27.1107 22.1267 27.1107 16C27.1107 9.87334 22.1267 4.88934 16 4.88934ZM15.9987 19.336C16.3519 19.336 16.6907 19.4763 16.9405 19.7261C17.1903 19.9759 17.3307 20.3147 17.3307 20.668C17.3307 21.0213 17.1903 21.3601 16.9405 21.6099C16.6907 21.8597 16.3519 22 15.9987 22C15.6454 22 15.3066 21.8597 15.0568 21.6099C14.807 21.3601 14.6667 21.0213 14.6667 20.668C14.6667 20.3147 14.807 19.9759 15.0568 19.7261C15.3066 19.4763 15.6454 19.336 15.9987 19.336ZM15.992 9.33334C16.2339 9.33303 16.4677 9.42039 16.6501 9.57926C16.8325 9.73812 16.9511 9.95771 16.984 10.1973L16.9933 10.332L16.9987 16.3347C16.9989 16.5882 16.9029 16.8323 16.7301 17.0177C16.5572 17.2031 16.3204 17.3159 16.0675 17.3333C15.8146 17.3508 15.5645 17.2715 15.3679 17.1116C15.1712 16.9517 15.0426 16.7231 15.008 16.472L14.9987 16.336L14.9933 10.3347C14.9932 10.2032 15.0189 10.0731 15.0691 9.95158C15.1193 9.8301 15.1929 9.7197 15.2858 9.6267C15.3786 9.5337 15.4889 9.45992 15.6103 9.40959C15.7318 9.35925 15.8606 9.33334 15.992 9.33334Z" fill="black" fill-opacity="0.87"/>
</svg>
