<svg width="32" height="32" viewBox="0 0 32 32" fill="none" xmlns="http://www.w3.org/2000/svg">
<path d="M2.96003 2.95999C2.79067 3.12931 2.6877 3.35378 2.66984 3.5926C2.65198 3.83141 2.72041 4.0687 2.8627 4.26133L2.96003 4.37333L8.3387 9.75333C5.71728 11.5927 3.84543 14.3141 3.06536 17.42C3.00534 17.6757 3.04835 17.9448 3.1851 18.1691C3.32186 18.3934 3.54138 18.5549 3.79621 18.6186C4.05105 18.6824 4.32074 18.6433 4.54699 18.5098C4.77325 18.3763 4.9379 18.1592 5.00536 17.9053C5.69844 15.1486 7.40216 12.7529 9.7787 11.1933L12.192 13.6067C11.228 14.614 10.6968 15.9588 10.7122 17.353C10.7276 18.7472 11.2883 20.0799 12.2743 21.0657C13.2603 22.0515 14.5931 22.612 15.9873 22.6272C17.3815 22.6423 18.7262 22.1108 19.7334 21.1467L27.6254 29.04C27.8038 29.2189 28.0434 29.3237 28.2959 29.3332C28.5484 29.3426 28.7951 29.2562 28.9865 29.0912C29.1779 28.9262 29.2997 28.6948 29.3274 28.4436C29.3551 28.1925 29.2868 27.9401 29.136 27.7373L29.0387 27.6253L20.888 19.4733L20.8894 19.4707L19.2894 17.8733L15.4627 14.0467H15.4654L11.6254 10.2107L11.6267 10.208L10.116 8.70133L4.37336 2.95999C4.18586 2.77273 3.9317 2.66754 3.6667 2.66754C3.4017 2.66754 3.14753 2.77273 2.96003 2.95999ZM13.6054 15.02L18.3187 19.7347C17.69 20.3419 16.848 20.6778 15.974 20.6702C15.1 20.6626 14.264 20.3121 13.646 19.6941C13.0279 19.076 12.6774 18.24 12.6698 17.366C12.6622 16.492 12.9982 15.6487 13.6054 15.02ZM16 7.33333C14.6667 7.33333 13.3734 7.53066 12.148 7.9L13.7974 9.54799C16.6501 8.98314 19.6108 9.53611 22.0673 11.0926C24.5239 12.649 26.2884 15.09 26.996 17.9107C27.0651 18.1626 27.23 18.3774 27.4555 18.5093C27.6809 18.6412 27.9491 18.6797 28.2025 18.6165C28.4559 18.5532 28.6746 18.3933 28.8117 18.171C28.9487 17.9487 28.9934 17.6815 28.936 17.4267C28.2136 14.5429 26.5482 11.9833 24.2044 10.1546C21.8606 8.32582 18.9729 7.33281 16 7.33333ZM16.26 12.0133L21.328 17.08C21.2625 15.7572 20.7074 14.506 19.7708 13.5696C18.8342 12.6332 17.5828 12.0785 16.26 12.0133Z" fill="black" fill-opacity="0.87"/>
</svg>
