<svg width="32" height="32" viewBox="0 0 32 32" fill="none" xmlns="http://www.w3.org/2000/svg">
<path d="M16 13.0068C17.4145 13.0068 18.771 13.5687 19.7712 14.5689C20.7714 15.5691 21.3333 16.9257 21.3333 18.3402C21.3333 19.7547 20.7714 21.1112 19.7712 22.1114C18.771 23.1116 17.4145 23.6735 16 23.6735C14.5855 23.6735 13.229 23.1116 12.2288 22.1114C11.2286 21.1112 10.6667 19.7547 10.6667 18.3402C10.6667 16.9257 11.2286 15.5691 12.2288 14.5689C13.229 13.5687 14.5855 13.0068 16 13.0068ZM16 8.3335C22.1507 8.3335 27.4613 12.5335 28.9347 18.4188C28.9992 18.6761 28.9589 18.9485 28.8226 19.176C28.6864 19.4035 28.4653 19.5676 28.208 19.6322C27.9507 19.6967 27.6784 19.6564 27.4508 19.5201C27.2233 19.3838 27.0592 19.1628 26.9947 18.9055C26.3773 16.4568 24.9602 14.2842 22.968 12.7323C20.9758 11.1804 18.5226 10.338 15.9973 10.3386C13.4719 10.3392 11.0191 11.1828 9.02764 12.7357C7.0362 14.2886 5.62014 16.4618 5.004 18.9108C4.97222 19.0383 4.91565 19.1583 4.83751 19.2639C4.75937 19.3695 4.66119 19.4587 4.54858 19.5263C4.43598 19.594 4.31115 19.6388 4.18122 19.6582C4.05129 19.6776 3.91881 19.6713 3.79134 19.6395C3.66387 19.6077 3.54391 19.5511 3.4383 19.473C3.3327 19.3949 3.24352 19.2967 3.17585 19.1841C3.10819 19.0715 3.06337 18.9466 3.04395 18.8167C3.02453 18.6868 3.03089 18.5543 3.06267 18.4268C3.78513 15.5429 5.45074 12.9831 7.79481 11.1543C10.1389 9.32556 13.0269 8.33268 16 8.3335Z" fill="black" fill-opacity="0.87"/>
</svg>
