<svg width="32" height="32" viewBox="0 0 32 32" fill="none" xmlns="http://www.w3.org/2000/svg">
<path d="M3 9.25C3 8.56 3.56 8 4.25 8H27.75C28.0815 8 28.3995 8.1317 28.6339 8.36612C28.8683 8.60054 29 8.91848 29 9.25C29 9.58152 28.8683 9.89946 28.6339 10.1339C28.3995 10.3683 28.0815 10.5 27.75 10.5H4.25C3.56 10.5 3 9.94 3 9.25ZM7 16.25C7 15.56 7.56 15 8.25 15H23.75C24.0815 15 24.3995 15.1317 24.6339 15.3661C24.8683 15.6005 25 15.9185 25 16.25C25 16.5815 24.8683 16.8995 24.6339 17.1339C24.3995 17.3683 24.0815 17.5 23.75 17.5H8.25C7.56 17.5 7 16.94 7 16.25ZM12.25 22C11.9185 22 11.6005 22.1317 11.3661 22.3661C11.1317 22.6005 11 22.9185 11 23.25C11 23.5815 11.1317 23.8995 11.3661 24.1339C11.6005 24.3683 11.9185 24.5 12.25 24.5H19.75C20.0815 24.5 20.3995 24.3683 20.6339 24.1339C20.8683 23.8995 21 23.5815 21 23.25C21 22.9185 20.8683 22.6005 20.6339 22.3661C20.3995 22.1317 20.0815 22 19.75 22H12.25Z" fill="black" fill-opacity="0.87"/>
</svg>
