<svg width="32" height="32" viewBox="0 0 32 32" fill="none" xmlns="http://www.w3.org/2000/svg">
<path d="M16.1552 4.99986C16.0355 4.99965 15.9174 5.02628 15.8094 5.07778C15.7014 5.12928 15.6063 5.20435 15.5312 5.29746L15.3888 5.40306C12.6288 4.54866 9.47998 5.17586 7.28798 7.28786C6.3698 8.1587 5.68676 9.2476 5.30239 10.4533C4.91803 11.659 4.84482 12.9423 5.08958 14.1839L5.00958 14.2575L3.76318 15.4575C3.52207 15.6862 3.33006 15.9616 3.19885 16.2669C3.06764 16.5723 2.99997 16.9011 2.99997 17.2335C2.99997 17.5658 3.06764 17.8947 3.19885 18.2C3.33006 18.5053 3.52207 18.7807 3.76318 19.0095C4.39998 19.6239 5.28318 19.8543 6.10398 19.7007C6.20478 20.1631 6.43998 20.6031 6.81278 20.9615C7.30398 21.4351 7.94238 21.6799 8.58558 21.6975C8.60318 22.3167 8.85758 22.9311 9.34878 23.4047C9.83998 23.8783 10.48 24.1247 11.1232 24.1407C11.1392 24.7599 11.3952 25.3759 11.8864 25.8495C12.3566 26.2957 12.9726 26.5565 13.6204 26.5836C14.2681 26.6107 14.9037 26.4022 15.4096 25.9967L16.1088 26.6687C17.1328 27.6559 18.7936 27.6559 19.8176 26.6687C20.3072 26.1983 20.5616 25.5871 20.584 24.9695C21.224 24.9503 21.856 24.7055 22.344 24.2351C22.832 23.7647 23.088 23.1519 23.1072 22.5343C23.7573 22.5107 24.3761 22.2494 24.8464 21.7999C25.2352 21.4271 25.4752 20.9647 25.568 20.4815C25.9798 20.5536 26.4028 20.528 26.803 20.4068C27.2031 20.2857 27.5693 20.0723 27.872 19.7839C28.1133 19.5551 28.3056 19.2796 28.4369 18.9741C28.5683 18.6686 28.636 18.3396 28.636 18.0071C28.636 17.6745 28.5683 17.3455 28.4369 17.04C28.3056 16.7345 28.1133 16.459 27.872 16.2303L26.72 15.1215L26.9552 14.2415C27.4293 12.4423 27.1884 10.5294 26.2832 8.90386C24.9456 6.49426 22.3504 5.00626 19.544 5.00626H17.576L17.3216 4.99986H16.1552ZM20.08 10.9455L23.928 14.6527L23.9328 14.6559L26.7184 17.3407C26.8089 17.4265 26.8809 17.5298 26.9302 17.6444C26.9794 17.759 27.0048 17.8824 27.0048 18.0071C27.0048 18.1318 26.9794 18.2552 26.9302 18.3697C26.8809 18.4843 26.8089 18.5877 26.7184 18.6735C26.5313 18.8501 26.2837 18.9485 26.0264 18.9485C25.7691 18.9485 25.5215 18.8501 25.3344 18.6735L23.2208 16.6383C23.0659 16.4896 22.8595 16.4066 22.6448 16.4066C22.4301 16.4066 22.2237 16.4896 22.0688 16.6383L22.0464 16.6575C21.9714 16.7292 21.9116 16.8153 21.8708 16.9108C21.83 17.0062 21.809 17.1089 21.809 17.2127C21.809 17.3164 21.83 17.4191 21.8708 17.5146C21.9116 17.61 21.9714 17.6962 22.0464 17.7679L23.6944 19.3551C24.0784 19.7231 24.0784 20.3215 23.6944 20.6911C23.5244 20.8521 23.3037 20.9489 23.0702 20.965C22.8366 20.9811 22.6048 20.9153 22.4144 20.7791C22.2555 20.6643 22.0614 20.6088 21.8659 20.6222C21.6703 20.6357 21.4857 20.7172 21.344 20.8527C21.2055 20.9851 21.1219 21.1647 21.1098 21.3559C21.0976 21.547 21.1578 21.7358 21.2784 21.8847C21.422 22.0646 21.4928 22.2919 21.4768 22.5215C21.4608 22.7512 21.3592 22.9664 21.192 23.1247C21.0196 23.2881 20.7951 23.3854 20.558 23.3995C20.3209 23.4135 20.0864 23.3434 19.896 23.2015C19.7379 23.0829 19.543 23.0239 19.3457 23.0351C19.1484 23.0462 18.9613 23.1267 18.8176 23.2623C18.6773 23.3945 18.5922 23.5748 18.5795 23.7671C18.5667 23.9595 18.6272 24.1495 18.7488 24.2991C18.8965 24.4811 18.9699 24.7122 18.9541 24.9461C18.9384 25.18 18.8347 25.3993 18.664 25.5599C18.4746 25.7396 18.2235 25.8398 17.9624 25.8398C17.7013 25.8398 17.4502 25.7396 17.2608 25.5599L16.568 24.8927L16.8208 24.6495C17.0621 24.4207 17.2544 24.1452 17.3857 23.8397C17.5171 23.5342 17.5848 23.2052 17.5848 22.8727C17.5848 22.5401 17.5171 22.2111 17.3857 21.9056C17.2544 21.6001 17.0621 21.3246 16.8208 21.0959C16.3423 20.6381 15.71 20.3756 15.048 20.3599C15.0282 19.7121 14.754 19.0981 14.2848 18.6511C13.8056 18.1935 13.1727 17.9316 12.5104 17.9167C12.4906 17.2689 12.2164 16.6549 11.7472 16.2079C11.4398 15.9153 11.0672 15.7002 10.6601 15.5802C10.253 15.4603 9.82328 15.4391 9.40638 15.5183C9.30063 15.0369 9.05387 14.598 8.69758 14.2575C8.4245 13.9963 8.09885 13.7964 7.74237 13.6712C7.38589 13.5459 7.00679 13.4981 6.63038 13.5311C6.50459 12.5935 6.60287 11.6395 6.91715 10.7472C7.23143 9.85502 7.75276 9.05001 8.43838 8.39826C9.13134 7.73607 9.96225 7.23544 10.8715 6.93225C11.7808 6.62907 12.7459 6.53086 13.6976 6.64466L11.3696 8.35666C11.0717 8.5731 10.8208 8.84765 10.632 9.16375C10.4432 9.47985 10.3204 9.83093 10.2711 10.1958C10.2217 10.5607 10.2468 10.9318 10.3449 11.2866C10.4429 11.6415 10.6119 11.9729 10.8416 12.2607C11.3063 12.8427 11.9774 13.2234 12.7155 13.3235C13.4535 13.4236 14.2018 13.2355 14.8048 12.7983L17.3264 10.9471L20.08 10.9455ZM12.3168 9.64466L16.464 6.59986H17.3216C17.4 6.59911 17.4785 6.60125 17.5568 6.60626H19.544C21.7904 6.60626 23.84 7.79826 24.8848 9.68146C25.592 10.9551 25.7776 12.4351 25.408 13.8319L25.4032 13.8479L20.9872 9.58066C20.8375 9.43053 20.6344 9.34593 20.4224 9.34546H17.0624C16.8926 9.34579 16.7273 9.40015 16.5904 9.50066L13.8576 11.5071C13.589 11.6989 13.2574 11.781 12.9303 11.7367C12.6033 11.6924 12.3054 11.525 12.0976 11.2687C12.0008 11.1495 11.9295 11.0117 11.888 10.8639C11.8464 10.7162 11.8356 10.5614 11.8562 10.4093C11.8767 10.2571 11.9282 10.1108 12.0074 9.97932C12.0866 9.84783 12.1919 9.73393 12.3168 9.64466ZM13.024 23.4207L13.04 23.4047L14.2848 22.2047L14.2992 22.1919C14.4873 22.0213 14.7329 21.928 14.9868 21.9307C15.2407 21.9334 15.4843 22.0318 15.6688 22.2063C15.7593 22.2921 15.8313 22.3954 15.8806 22.51C15.9298 22.6246 15.9552 22.748 15.9552 22.8727C15.9552 22.9974 15.9298 23.1208 15.8806 23.2353C15.8313 23.3499 15.7593 23.4533 15.6688 23.5391L14.4224 24.7391C14.2353 24.9157 13.9877 25.0141 13.7304 25.0141C13.4731 25.0141 13.2255 24.9157 13.0384 24.7391C12.9491 24.6545 12.8777 24.5529 12.8284 24.4403C12.7791 24.3276 12.7529 24.2062 12.7514 24.0833C12.7499 23.9603 12.7731 23.8383 12.8197 23.7245C12.8662 23.6107 12.9368 23.5073 13.024 23.4207ZM13.1456 21.0815L13.1296 21.0959L11.8848 22.2959L11.8688 22.3103C11.6805 22.4801 11.4352 22.5728 11.1816 22.5699C10.9281 22.5669 10.685 22.4685 10.5008 22.2943C10.4113 22.2094 10.3398 22.1073 10.2907 21.9942C10.2415 21.8811 10.2156 21.7592 10.2146 21.6358C10.2135 21.5125 10.2373 21.3902 10.2846 21.2763C10.3318 21.1623 10.4016 21.0591 10.4896 20.9727L10.5008 20.9615L11.7456 19.7615L11.7568 19.7503C11.9447 19.5784 12.1907 19.484 12.4454 19.486C12.7 19.4881 12.9445 19.5865 13.1296 19.7615C13.2191 19.846 13.2907 19.9477 13.3402 20.0605C13.3896 20.1733 13.4159 20.2949 13.4174 20.4181C13.4189 20.5412 13.3956 20.6634 13.3489 20.7774C13.3022 20.8913 13.233 20.9948 13.1456 21.0815ZM10.5936 18.6511L9.34718 19.8511L9.33598 19.8623C9.14806 20.0342 8.90205 20.1286 8.64738 20.1265C8.3927 20.1244 8.14826 20.026 7.96318 19.8511C7.87269 19.7653 7.80062 19.6619 7.75138 19.5473C7.70213 19.4328 7.67673 19.3094 7.67673 19.1847C7.67673 19.06 7.70213 18.9366 7.75138 18.822C7.80062 18.7074 7.87269 18.6041 7.96318 18.5183L9.20798 17.3183C9.39516 17.1411 9.64308 17.0424 9.90078 17.0424C10.1585 17.0424 10.4064 17.1411 10.5936 17.3183C10.6833 17.4032 10.755 17.5053 10.8043 17.6186C10.8536 17.7319 10.8796 17.8539 10.8806 17.9775C10.8817 18.101 10.8578 18.2235 10.8104 18.3376C10.763 18.4517 10.693 18.555 10.6048 18.6415L10.5936 18.6511ZM7.54398 16.7007L6.29918 17.9007C6.11199 18.0778 5.86408 18.1765 5.60638 18.1765C5.34868 18.1765 5.10076 18.0778 4.91358 17.9007C4.82284 17.8148 4.75056 17.7114 4.70116 17.5967C4.65177 17.482 4.62629 17.3584 4.62629 17.2335C4.62629 17.1086 4.65177 16.985 4.70116 16.8703C4.75056 16.7555 4.82284 16.6521 4.91358 16.5663L6.15998 15.3663C6.34708 15.1896 6.59466 15.0912 6.85198 15.0912C7.1093 15.0912 7.35687 15.1896 7.54398 15.3663C7.63472 15.4521 7.70699 15.5555 7.75639 15.6703C7.80579 15.785 7.83126 15.9086 7.83126 16.0335C7.83126 16.1584 7.80579 16.282 7.75639 16.3967C7.70699 16.5114 7.63472 16.6148 7.54398 16.7007Z" fill="black" fill-opacity="0.87"/>
</svg>
