<svg width="32" height="32" viewBox="0 0 32 32" fill="none" xmlns="http://www.w3.org/2000/svg">
<path d="M13.212 4.93333C14.0444 4.4008 15.0119 4.1178 16 4.1178C16.9881 4.1178 17.9556 4.4008 18.788 4.93333L29.54 11.8267C29.6804 11.9168 29.7961 12.0407 29.8764 12.187C29.9566 12.3333 29.9991 12.4973 29.9997 12.6642C30.0004 12.8311 29.9593 12.9954 29.8801 13.1424C29.801 13.2893 29.6864 13.4141 29.5467 13.5053L25.3333 16.2587V23.668C25.3333 23.8844 25.2632 24.0949 25.1333 24.268L25.132 24.2693L25.1307 24.272L25.1267 24.2773L25.1147 24.2907C25.0684 24.3523 25.0194 24.4119 24.968 24.4693C24.8335 24.6224 24.692 24.7692 24.544 24.9093C24.1747 25.2653 23.624 25.728 22.8773 26.1867C21.3827 27.1067 19.1187 28 16 28C12.8813 28 10.6187 27.1067 9.12133 26.1867C8.52199 25.8218 7.96327 25.3941 7.45467 24.9107C7.30759 24.7705 7.167 24.6237 7.03333 24.4707C6.97607 24.4058 6.92093 24.3391 6.868 24.2707L6.86667 24.2667C6.73685 24.0936 6.66667 23.883 6.66667 23.6667V16.256L4 14.5147V21.6667C4 21.9319 3.89464 22.1862 3.70711 22.3738C3.51957 22.5613 3.26522 22.6667 3 22.6667C2.73478 22.6667 2.48043 22.5613 2.29289 22.3738C2.10536 22.1862 2 21.9319 2 21.6667V12.6667C1.99986 12.4955 2.04368 12.3271 2.12726 12.1777C2.21084 12.0283 2.33138 11.9028 2.47733 11.8133L13.212 4.93333ZM18.8253 20.5093C17.9849 21.0573 17.0033 21.349 16 21.349C14.9967 21.349 14.0151 21.0573 13.1747 20.5093L8.66667 17.5653V23.2933C8.71556 23.3449 8.77333 23.4027 8.84 23.4667C9.12133 23.7373 9.56 24.108 10.1693 24.4827C11.3813 25.2293 13.2853 26.0013 16 26.0013C18.7147 26.0013 20.6187 25.228 21.8307 24.4827C22.3774 24.1479 22.8819 23.7486 23.3333 23.2933V17.5653L18.8253 20.5093ZM17.7093 6.61733C16.668 5.95066 15.332 5.95066 14.2907 6.61733L4.84 12.676L14.268 18.836C15.3213 19.5227 16.68 19.5227 17.732 18.836L27.1587 12.676L17.7093 6.61733Z" fill="black" fill-opacity="0.87"/>
</svg>
