<svg width="32" height="32" viewBox="0 0 32 32" fill="none" xmlns="http://www.w3.org/2000/svg">
<path d="M11.9333 11.4667C11.9347 9.15088 12.8553 6.93034 14.4928 5.29283C16.1303 3.65532 18.3509 2.73475 20.6667 2.73334C25.4613 2.73334 29.4 6.492 29.4 11.3333C29.3986 13.6491 28.478 15.8697 26.8405 17.5072C25.203 19.1447 22.9825 20.0653 20.6667 20.0667C19.9682 20.0638 19.2728 19.9724 18.5973 19.7947C18.5815 20.2255 18.3993 20.6335 18.089 20.9328C17.7787 21.2321 17.3645 21.3996 16.9333 21.4H14.6V23.7333C14.6 24.6533 13.8533 25.4 12.9333 25.4H10.6V27.0667C10.6 27.6855 10.3542 28.279 9.91658 28.7166C9.479 29.1542 8.8855 29.4 8.26666 29.4H4.93333C4.31449 29.4 3.721 29.1542 3.28342 28.7166C2.84583 28.279 2.6 27.6855 2.6 27.0667V24.1707C2.6 23.1973 2.98667 22.2653 3.67467 21.5787L11.9867 13.264C12.0267 13.221 12.0561 13.1691 12.0723 13.1125C12.0885 13.056 12.0912 12.9964 12.08 12.9387C11.9886 12.4532 11.9395 11.9607 11.9333 11.4667ZM24.3333 9.33334C24.3333 8.89131 24.1577 8.46739 23.8452 8.15483C23.5326 7.84227 23.1087 7.66667 22.6667 7.66667C22.2246 7.66667 21.8007 7.84227 21.4882 8.15483C21.1756 8.46739 21 8.89131 21 9.33334C21 9.77536 21.1756 10.1993 21.4882 10.5118C21.8007 10.8244 22.2246 11 22.6667 11C23.1087 11 23.5326 10.8244 23.8452 10.5118C24.1577 10.1993 24.3333 9.77536 24.3333 9.33334Z" fill="black" fill-opacity="0.87"/>
</svg>
