<svg width="32" height="32" viewBox="0 0 32 32" fill="none" xmlns="http://www.w3.org/2000/svg">
<path d="M24.3334 9.33334C24.3334 9.77536 24.1578 10.1993 23.8452 10.5118C23.5326 10.8244 23.1087 11 22.6667 11C22.2247 11 21.8007 10.8244 21.4882 10.5118C21.1756 10.1993 21 9.77536 21 9.33334C21 8.89131 21.1756 8.46739 21.4882 8.15483C21.8007 7.84227 22.2247 7.66667 22.6667 7.66667C23.1087 7.66667 23.5326 7.84227 23.8452 8.15483C24.1578 8.46739 24.3334 8.89131 24.3334 9.33334ZM20.6667 2.73334C18.3509 2.73475 16.1304 3.65532 14.4929 5.29283C12.8553 6.93034 11.9348 9.15088 11.9334 11.4667C11.9334 11.9827 12 12.48 12.08 12.9387C12.0912 12.9964 12.0886 13.056 12.0723 13.1125C12.0561 13.1691 12.0268 13.221 11.9867 13.264L3.67336 21.5787C2.98564 22.266 2.59908 23.1984 2.59869 24.1707V27.0667C2.59869 28.3547 3.64403 29.4 4.93203 29.4H8.26536C8.8842 29.4 9.47769 29.1542 9.91528 28.7166C10.3529 28.279 10.5987 27.6855 10.5987 27.0667V25.4H12.9334C13.8534 25.4 14.6 24.6533 14.6 23.7333V21.4H16.9334C17.365 21.4003 17.7798 21.2331 18.0907 20.9337C18.4016 20.6343 18.5841 20.226 18.6 19.7947C19.2614 19.9653 19.96 20.0667 20.6667 20.0667C22.9825 20.0653 25.203 19.1447 26.8405 17.5072C28.478 15.8697 29.3986 13.6491 29.4 11.3333C29.4 6.492 25.4627 2.73334 20.6667 2.73334ZM13.9334 11.4667C13.9348 9.68131 14.6446 7.96948 15.9071 6.70704C17.1695 5.44461 18.8813 4.73475 20.6667 4.73334C24.4027 4.73334 27.4 7.64134 27.4 11.3333C27.3986 13.1187 26.6888 14.8305 25.4263 16.093C24.1639 17.3554 22.452 18.0653 20.6667 18.0667C19.76 18.0667 18.8267 17.8387 17.9934 17.48C17.8412 17.4146 17.6751 17.3881 17.5101 17.4028C17.3451 17.4174 17.1863 17.4729 17.048 17.5641C16.9098 17.6553 16.7963 17.7794 16.7179 17.9253C16.6395 18.0712 16.5985 18.2344 16.5987 18.4V19.4H14.2667C13.3467 19.4 12.6 20.1467 12.6 21.0667V23.4H10.2667C9.34669 23.4 8.60003 24.1467 8.60003 25.0667V27.0667C8.60003 27.1551 8.56491 27.2399 8.5024 27.3024C8.43988 27.3649 8.3551 27.4 8.26669 27.4H4.93336C4.84495 27.4 4.76017 27.3649 4.69766 27.3024C4.63515 27.2399 4.60003 27.1551 4.60003 27.0667V24.1707C4.60003 23.7293 4.77603 23.304 5.08803 22.992L13.4027 14.6787C13.6707 14.409 13.8696 14.0785 13.9824 13.7155C14.0952 13.3524 14.1186 12.9674 14.0507 12.5933C13.9797 12.2218 13.9404 11.8449 13.9334 11.4667Z" fill="black" fill-opacity="0.87"/>
</svg>
