<svg width="32" height="32" viewBox="0 0 32 32" fill="none" xmlns="http://www.w3.org/2000/svg">
<path d="M15.3267 4.72933C15.4776 4.67475 15.6395 4.65732 15.7987 4.67851C15.9578 4.69971 16.1095 4.7589 16.2409 4.8511C16.3724 4.9433 16.4797 5.06578 16.5538 5.2082C16.6279 5.35062 16.6666 5.50879 16.6667 5.66933V6.62933L18.6667 5.90533V5.66933C18.6668 5.18743 18.5507 4.7126 18.3285 4.28502C18.1062 3.85745 17.7842 3.48971 17.3897 3.21294C16.9952 2.93616 16.5398 2.75849 16.0621 2.69497C15.5844 2.63145 15.0984 2.68394 14.6453 2.848L5.52533 6.148C4.68786 6.45109 3.96412 7.00486 3.45261 7.73395C2.9411 8.46304 2.66667 9.33204 2.66666 10.2227V18.332C2.66673 18.8119 2.78193 19.2848 3.00259 19.711C3.22325 20.1371 3.54293 20.5041 3.93479 20.7812C4.32665 21.0582 4.77926 21.2372 5.25461 21.3031C5.72997 21.3691 6.2142 21.32 6.66666 21.16V19.0333L6.00666 19.2733C5.85558 19.328 5.69356 19.3454 5.53432 19.3241C5.37507 19.3028 5.2233 19.2435 5.09184 19.1512C4.96038 19.0588 4.8531 18.9362 4.77909 18.7936C4.70508 18.651 4.66652 18.4927 4.66666 18.332V10.2227C4.66687 9.74313 4.81481 9.27531 5.09037 8.88285C5.36592 8.4904 5.7557 8.19237 6.20666 8.02933L15.3267 4.72933ZM20.66 8.72933C20.811 8.67475 20.9729 8.65732 21.132 8.67851C21.2912 8.69971 21.4429 8.7589 21.5743 8.8511C21.7057 8.9433 21.813 9.06578 21.8871 9.2082C21.9612 9.35062 21.9999 9.50879 22 9.66933V10.6293L24 9.90533V9.66933C24.0001 9.18743 23.8841 8.7126 23.6618 8.28502C23.4395 7.85744 23.1175 7.48971 22.723 7.21293C22.3285 6.93616 21.8731 6.75849 21.3955 6.69497C20.9178 6.63145 20.4318 6.68394 19.9787 6.848L10.4187 10.308C9.71004 10.5645 9.09767 11.0331 8.66489 11.6501C8.23211 12.267 7.99995 13.0024 8 13.756V22.332C7.99985 22.812 8.11489 23.2851 8.33546 23.7114C8.55603 24.1377 8.87569 24.5049 9.26758 24.7821C9.65947 25.0593 10.1122 25.2384 10.5876 25.3044C11.0631 25.3704 11.5474 25.3213 12 25.1613V23.0333L11.34 23.2733C11.1889 23.328 11.0269 23.3454 10.8676 23.3241C10.7084 23.3028 10.5566 23.2435 10.4252 23.1512C10.2937 23.0588 10.1864 22.9362 10.1124 22.7936C10.0384 22.651 9.99985 22.4927 10 22.332V13.756C10 13.0533 10.44 12.4267 11.1 12.188L20.66 8.72933ZM27.3333 13.6693C27.3333 13.5088 27.2945 13.3506 27.2204 13.2082C27.1463 13.0658 27.039 12.9433 26.9076 12.8511C26.7762 12.7589 26.6245 12.6997 26.4654 12.6785C26.3062 12.6573 26.1443 12.6747 25.9933 12.7293L15.9933 16.348C15.8001 16.4179 15.633 16.5456 15.5149 16.7138C15.3968 16.882 15.3334 17.0825 15.3333 17.288V26.332C15.3334 26.4925 15.3721 26.6507 15.4462 26.7931C15.5203 26.9355 15.6276 27.058 15.759 27.1502C15.8905 27.2424 16.0422 27.3016 16.2013 27.3228C16.3604 27.344 16.5224 27.3266 16.6733 27.272L17.36 27.024C17.4293 27.6827 17.6267 28.3307 17.9667 28.9307L17.3533 29.1533C16.9003 29.3171 16.4145 29.3694 15.9369 29.3058C15.4594 29.2421 15.0043 29.0644 14.6099 28.7876C14.2156 28.5109 13.8937 28.1433 13.6715 27.7158C13.4493 27.2884 13.3333 26.8137 13.3333 26.332V17.288C13.3332 16.6714 13.5231 16.0697 13.8772 15.5649C14.2312 15.0601 14.7322 14.6766 15.312 14.4667L25.312 10.848C25.7651 10.6839 26.2511 10.6314 26.7288 10.695C27.2065 10.7585 27.6618 10.9362 28.0563 11.2129C28.4508 11.4897 28.7729 11.8574 28.9951 12.285C29.2174 12.7126 29.3334 13.1874 29.3333 13.6693V19.3333C29.3333 17.7467 28.5427 16.3467 27.3333 15.5027V13.6693ZM28 19.3333C28 20.2174 27.6488 21.0652 27.0237 21.6904C26.3986 22.3155 25.5507 22.6667 24.6667 22.6667C23.7826 22.6667 22.9348 22.3155 22.3096 21.6904C21.6845 21.0652 21.3333 20.2174 21.3333 19.3333C21.3333 18.4493 21.6845 17.6014 22.3096 16.9763C22.9348 16.3512 23.7826 16 24.6667 16C25.5507 16 26.3986 16.3512 27.0237 16.9763C27.6488 17.6014 28 18.4493 28 19.3333ZM30.6667 26.5C30.6667 28.5747 28.952 30.6667 24.6667 30.6667C20.3813 30.6667 18.6667 28.5827 18.6667 26.5V26.3627C18.6667 25.056 19.7253 24 21.0307 24H28.3027C29.6093 24 30.6667 25.0573 30.6667 26.3627V26.5Z" fill="black" fill-opacity="0.87"/>
</svg>
