<svg width="32" height="32" viewBox="0 0 32 32" fill="none" xmlns="http://www.w3.org/2000/svg">
<path d="M21.3334 7.99984V9.33317H22.3334C23.4826 9.33317 24.5848 9.78972 25.3975 10.6024C26.2102 11.415 26.6667 12.5172 26.6667 13.6665V23.6665C26.6667 24.8158 26.2102 25.918 25.3975 26.7306C24.5848 27.5433 23.4826 27.9998 22.3334 27.9998H9.66671C8.51744 27.9998 7.41524 27.5433 6.60258 26.7306C5.78992 25.918 5.33337 24.8158 5.33337 23.6665V13.6665C5.33337 12.5172 5.78992 11.415 6.60258 10.6024C7.41524 9.78972 8.51744 9.33317 9.66671 9.33317H10.6667V7.99984C10.6667 6.58535 11.2286 5.2288 12.2288 4.2286C13.229 3.22841 14.5856 2.6665 16 2.6665C17.4145 2.6665 18.7711 3.22841 19.7713 4.2286C20.7715 5.2288 21.3334 6.58535 21.3334 7.99984ZM12.6667 7.99984V9.33317H19.3334V7.99984C19.3334 7.11578 18.9822 6.26794 18.3571 5.64281C17.7319 5.01769 16.8841 4.6665 16 4.6665C15.116 4.6665 14.2681 5.01769 13.643 5.64281C13.0179 6.26794 12.6667 7.11578 12.6667 7.99984ZM16 20.6665C16.5305 20.6665 17.0392 20.4558 17.4143 20.0807C17.7893 19.7056 18 19.1969 18 18.6665C18 18.1361 17.7893 17.6274 17.4143 17.2523C17.0392 16.8772 16.5305 16.6665 16 16.6665C15.4696 16.6665 14.9609 16.8772 14.5858 17.2523C14.2108 17.6274 14 18.1361 14 18.6665C14 19.1969 14.2108 19.7056 14.5858 20.0807C14.9609 20.4558 15.4696 20.6665 16 20.6665Z" fill="black" fill-opacity="0.87"/>
</svg>
