<svg width="32" height="32" viewBox="0 0 32 32" fill="none" xmlns="http://www.w3.org/2000/svg">
<path d="M7.00002 5.33334H25C26.1069 5.33327 27.1718 5.75675 27.9763 6.51691C28.7809 7.27706 29.264 8.31627 29.3267 9.42134L29.3334 9.66668V22.3333C29.3334 23.4402 28.9099 24.5051 28.1498 25.3097C27.3896 26.1142 26.3504 26.5973 25.2454 26.66L25 26.6667H7.00002C5.89317 26.6667 4.82825 26.2433 4.02371 25.4831C3.21918 24.723 2.73602 23.6838 2.67335 22.5787L2.66669 22.3333V9.66668C2.66661 8.55983 3.09009 7.49491 3.85025 6.69037C4.61041 5.88583 5.64961 5.40268 6.75469 5.34001L7.00002 5.33334ZM27.3334 12.4973L16.4667 18.2173C16.344 18.2822 16.2091 18.3207 16.0707 18.3306C15.9323 18.3405 15.7933 18.3214 15.6627 18.2747L15.5347 18.2187L4.66669 12.4987V22.3333C4.66671 22.9189 4.88691 23.4831 5.28359 23.9139C5.68027 24.3446 6.22442 24.6105 6.80802 24.6587L7.00002 24.6667H25C25.5858 24.6666 26.1502 24.4462 26.581 24.0493C27.0118 23.6523 27.2775 23.1078 27.3254 22.524L27.3334 22.3333V12.4973ZM25 7.33334H7.00002C6.41443 7.33337 5.85026 7.55357 5.4195 7.95025C4.98873 8.34693 4.72287 8.89108 4.67469 9.47468L4.66669 9.66668V10.2387L16 16.204L27.3334 10.2373V9.66668C27.3333 9.08088 27.1129 8.51653 26.716 8.08573C26.319 7.65494 25.7745 7.38921 25.1907 7.34134L25 7.33334Z" fill="black" fill-opacity="0.87"/>
</svg>
