<svg width="32" height="32" viewBox="0 0 32 32" fill="none" xmlns="http://www.w3.org/2000/svg">
<path d="M4.5664 3.4336C4.49202 3.35922 4.40372 3.30022 4.30653 3.25996C4.20935 3.21971 4.10519 3.19899 4 3.19899C3.89481 3.19899 3.79065 3.21971 3.69347 3.25996C3.59628 3.30022 3.50798 3.35922 3.4336 3.4336C3.35922 3.50798 3.30022 3.59628 3.25996 3.69347C3.21971 3.79065 3.19899 3.89481 3.19899 4C3.19899 4.10519 3.21971 4.20935 3.25996 4.30653C3.30022 4.40372 3.35922 4.49202 3.4336 4.5664L5.2896 6.4208C4.71185 6.49616 4.18124 6.77911 3.79675 7.21689C3.41226 7.65466 3.20016 8.21735 3.2 8.8V20C3.2 20.6365 3.45286 21.247 3.90294 21.6971C4.35303 22.1471 4.96348 22.4 5.6 22.4H21.2688L22.8688 24H6.536C6.70151 24.4681 7.00813 24.8734 7.41362 25.16C7.8191 25.4465 8.30348 25.6003 8.8 25.6H23.2C23.5947 25.6 23.9781 25.5605 24.3504 25.4816L27.4336 28.5664C27.5838 28.7166 27.7876 28.801 28 28.801C28.2124 28.801 28.4162 28.7166 28.5664 28.5664C28.7166 28.4162 28.801 28.2124 28.801 28C28.801 27.7876 28.7166 27.5838 28.5664 27.4336L4.5664 3.4336ZM19.2 20.3312V20.8H9.6V19.2C9.6 18.3513 9.26286 17.5374 8.66274 16.9373C8.06263 16.3371 7.24869 16 6.4 16H4.8V12.8H6.4C7.07776 12.8003 7.73812 12.5854 8.28591 12.1863C8.83369 11.7872 9.24061 11.2245 9.448 10.5792L11.6432 12.7744C11.2811 13.3857 11.1328 14.1002 11.2217 14.8051C11.3105 15.51 11.6314 16.1654 12.1338 16.6678C12.6362 17.1702 13.2916 17.4911 13.9965 17.5799C14.7014 17.6688 15.4159 17.5205 16.0272 17.1584L19.2 20.3312ZM6.8688 8L8 9.1312V9.6C8 10.0243 7.83143 10.4313 7.53137 10.7314C7.23131 11.0314 6.82435 11.2 6.4 11.2H4.8V8.8C4.8 8.58783 4.88429 8.38434 5.03432 8.23432C5.18434 8.08429 5.38783 8 5.6 8H6.8688ZM12.8528 13.9856L14.816 15.9456C14.5446 16.0184 14.2589 16.0185 13.9875 15.9458C13.7161 15.8732 13.4686 15.7303 13.27 15.5316C13.0713 15.333 12.9284 15.0855 12.8558 14.8141C12.7831 14.5427 12.7832 14.257 12.856 13.9856M5.6 20.8C5.38783 20.8 5.18434 20.7157 5.03432 20.5657C4.88429 20.4157 4.8 20.2122 4.8 20V17.6H6.4C6.82435 17.6 7.23131 17.7686 7.53137 18.0686C7.83143 18.3687 8 18.7757 8 19.2V20.8H5.6ZM22.4 16C21.5632 16 20.8032 16.32 20.2336 16.8448L21.3664 17.9792C21.6552 17.7345 22.0215 17.6002 22.4 17.6H24V20C23.9999 20.1664 23.9478 20.3286 23.8512 20.464L24.9872 21.6C25.368 21.176 25.6 20.6144 25.6 20V8.8C25.6 8.16348 25.3471 7.55303 24.8971 7.10294C24.447 6.65286 23.8365 6.4 23.2 6.4H9.7872L11.3872 8H19.2V9.6C19.2 10.4487 19.5371 11.2626 20.1373 11.8627C20.7374 12.4629 21.5513 12.8 22.4 12.8H24V16H22.4ZM23.2 8C23.4122 8 23.6157 8.08429 23.7657 8.23432C23.9157 8.38434 24 8.58783 24 8.8V11.2H22.4C21.9757 11.2 21.5687 11.0314 21.2686 10.7314C20.9686 10.4313 20.8 10.0243 20.8 9.6V8H23.2ZM26.1216 22.7328L27.2528 23.8656C28.2128 22.8592 28.8 21.4976 28.8 20V12C28.8003 11.5035 28.6465 11.0191 28.36 10.6136C28.0734 10.2081 27.6681 9.90151 27.2 9.736V20C27.2 21.056 26.7904 22.0176 26.1216 22.7328Z" fill="black" fill-opacity="0.87"/>
</svg>
