<svg width="32" height="32" viewBox="0 0 32 32" fill="none" xmlns="http://www.w3.org/2000/svg">
<path d="M7.33332 9.33333C7.33332 8.44928 7.68451 7.60143 8.30963 6.97631C8.93475 6.35119 9.7826 6 10.6667 6C11.5507 6 12.3986 6.35119 13.0237 6.97631C13.6488 7.60143 14 8.44928 14 9.33333C14 10.2174 13.6488 11.0652 13.0237 11.6904C12.3986 12.3155 11.5507 12.6667 10.6667 12.6667C9.7826 12.6667 8.93475 12.3155 8.30963 11.6904C7.68451 11.0652 7.33332 10.2174 7.33332 9.33333ZM10.6667 4C9.25217 4 7.89561 4.5619 6.89542 5.5621C5.89523 6.56229 5.33332 7.91885 5.33332 9.33333C5.33332 10.7478 5.89523 12.1044 6.89542 13.1046C7.89561 14.1048 9.25217 14.6667 10.6667 14.6667C12.0811 14.6667 13.4377 14.1048 14.4379 13.1046C15.4381 12.1044 16 10.7478 16 9.33333C16 7.91885 15.4381 6.56229 14.4379 5.5621C13.4377 4.5619 12.0811 4 10.6667 4ZM20.6667 10.6667C20.6667 10.1362 20.8774 9.62753 21.2524 9.25245C21.6275 8.87738 22.1362 8.66667 22.6667 8.66667C23.1971 8.66667 23.7058 8.87738 24.0809 9.25245C24.4559 9.62753 24.6667 10.1362 24.6667 10.6667C24.6667 11.1971 24.4559 11.7058 24.0809 12.0809C23.7058 12.456 23.1971 12.6667 22.6667 12.6667C22.1362 12.6667 21.6275 12.456 21.2524 12.0809C20.8774 11.7058 20.6667 11.1971 20.6667 10.6667ZM22.6667 6.66667C21.6058 6.66667 20.5884 7.08809 19.8382 7.83824C19.0881 8.58839 18.6667 9.6058 18.6667 10.6667C18.6667 11.7275 19.0881 12.7449 19.8382 13.4951C20.5884 14.2452 21.6058 14.6667 22.6667 14.6667C23.7275 14.6667 24.7449 14.2452 25.4951 13.4951C26.2452 12.7449 26.6667 11.7275 26.6667 10.6667C26.6667 9.6058 26.2452 8.58839 25.4951 7.83824C24.7449 7.08809 23.7275 6.66667 22.6667 6.66667ZM5.66666 17.3333C4.87101 17.3333 4.10795 17.6494 3.54534 18.212C2.98273 18.7746 2.66666 19.5377 2.66666 20.3333V20.704C2.66805 20.7967 2.67428 20.8893 2.68532 20.9813C2.79615 21.9733 3.15269 22.9219 3.72266 23.7413C4.81332 25.2987 6.89599 26.6667 10.6667 26.6667C12.492 26.6667 13.9213 26.3467 15.0347 25.84C14.8323 25.1681 14.7123 24.4741 14.6773 23.7733C13.8173 24.28 12.5507 24.6667 10.6667 24.6667C7.43732 24.6667 6.01866 23.5333 5.35999 22.5933C4.987 22.0545 4.75211 21.4322 4.67599 20.7813L4.66666 20.676V20.3333C4.66666 20.0681 4.77201 19.8138 4.95955 19.6262C5.14709 19.4387 5.40144 19.3333 5.66666 19.3333H15.6427C15.9747 18.6973 16.3827 18.108 16.8547 17.5773C16.48 17.4141 16.0753 17.331 15.6667 17.3333H5.66666ZM19.036 18.6347C19.1355 18.9794 19.1644 19.3406 19.121 19.6968C19.0776 20.053 18.9627 20.3967 18.7833 20.7074C18.6039 21.0181 18.3637 21.2895 18.077 21.5052C17.7902 21.7208 17.4629 21.8765 17.1147 21.9627L16.336 22.156C16.2105 22.9544 16.2132 23.7678 16.344 24.5653L17.064 24.7387C17.4154 24.8233 17.746 24.9785 18.0356 25.1949C18.3252 25.4113 18.5678 25.6842 18.7486 25.9973C18.9294 26.3103 19.0447 26.6568 19.0875 27.0157C19.1302 27.3747 19.0996 27.7386 18.9973 28.0853L18.748 28.9267C19.3347 29.4413 20.0013 29.86 20.728 30.156L21.3853 29.464C21.6344 29.202 21.9342 28.9933 22.2665 28.8508C22.5987 28.7082 22.9565 28.6347 23.318 28.6347C23.6795 28.6347 24.0373 28.7082 24.3695 28.8508C24.7018 28.9933 25.0016 29.202 25.2507 29.464L25.916 30.1653C26.6372 29.8712 27.3049 29.4599 27.892 28.948L27.628 28.0333C27.5285 27.6885 27.4997 27.3272 27.5432 26.971C27.5867 26.6147 27.7016 26.2709 27.8811 25.9602C28.0607 25.6495 28.3011 25.3781 28.5879 25.1625C28.8748 24.9469 29.2023 24.7914 29.5507 24.7053L30.328 24.512C30.4534 23.7136 30.4507 22.9002 30.32 22.1027L29.6 21.9293C29.2487 21.8445 28.9183 21.6892 28.6288 21.4728C28.3394 21.2563 28.0969 20.9833 27.9162 20.6703C27.7356 20.3573 27.6204 20.0109 27.5777 19.652C27.535 19.2931 27.5657 18.9293 27.668 18.5827L27.916 17.7413C27.329 17.2249 26.6603 16.8095 25.9373 16.512L25.28 17.2027C25.0309 17.4649 24.731 17.6737 24.3986 17.8164C24.0663 17.9591 23.7084 18.0327 23.3467 18.0327C22.985 18.0327 22.627 17.9591 22.2947 17.8164C21.9623 17.6737 21.6624 17.4649 21.4133 17.2027L20.7493 16.5027C20.024 16.796 19.3573 17.2093 18.772 17.72L19.036 18.6347ZM23.3333 25.3333C22.2667 25.3333 21.4 24.4387 21.4 23.3333C21.4 22.2293 22.2667 21.3333 23.3333 21.3333C24.4 21.3333 25.2667 22.2293 25.2667 23.3333C25.2667 24.4387 24.4 25.3333 23.3333 25.3333Z" fill="black" fill-opacity="0.87"/>
</svg>
