<svg width="32" height="32" viewBox="0 0 32 32" fill="none" xmlns="http://www.w3.org/2000/svg">
<path d="M16 11C17.0609 11 18.0783 10.5786 18.8284 9.82843C19.5786 9.07828 20 8.06087 20 7C20 5.93913 19.5786 4.92172 18.8284 4.17157C18.0783 3.42143 17.0609 3 16 3C14.9391 3 13.9217 3.42143 13.1716 4.17157C12.4214 4.92172 12 5.93913 12 7C12 8.06087 12.4214 9.07828 13.1716 9.82843C13.9217 10.5786 14.9391 11 16 11ZM10 7.5C10 7.95963 9.90947 8.41475 9.73358 8.83939C9.55769 9.26403 9.29988 9.64987 8.97487 9.97487C8.64987 10.2999 8.26403 10.5577 7.83939 10.7336C7.41475 10.9095 6.95963 11 6.5 11C6.04037 11 5.58525 10.9095 5.16061 10.7336C4.73597 10.5577 4.35013 10.2999 4.02513 9.97487C3.70012 9.64987 3.44231 9.26403 3.26642 8.83939C3.09053 8.41475 3 7.95963 3 7.5C3 6.57174 3.36875 5.6815 4.02513 5.02513C4.6815 4.36875 5.57174 4 6.5 4C7.42826 4 8.3185 4.36875 8.97487 5.02513C9.63125 5.6815 10 6.57174 10 7.5ZM29 7.5C29 7.95963 28.9095 8.41475 28.7336 8.83939C28.5577 9.26403 28.2999 9.64987 27.9749 9.97487C27.6499 10.2999 27.264 10.5577 26.8394 10.7336C26.4148 10.9095 25.9596 11 25.5 11C25.0404 11 24.5852 10.9095 24.1606 10.7336C23.736 10.5577 23.3501 10.2999 23.0251 9.97487C22.7001 9.64987 22.4423 9.26403 22.2664 8.83939C22.0905 8.41475 22 7.95963 22 7.5C22 6.57174 22.3687 5.6815 23.0251 5.02513C23.6815 4.36875 24.5717 4 25.5 4C26.4283 4 27.3185 4.36875 27.9749 5.02513C28.6313 5.6815 29 6.57174 29 7.5ZM9.377 13C8.80774 13.7087 8.49825 14.591 8.5 15.5V23C8.5 24.235 8.798 25.4 9.327 26.427C8.56487 26.8277 7.71216 27.0249 6.85148 26.9993C5.99079 26.9737 5.15129 26.7263 4.41431 26.281C3.67732 25.8357 3.06782 25.2076 2.64484 24.4576C2.22186 23.7076 1.99974 22.8611 2 22V15.5C2 14.837 2.26339 14.2011 2.73223 13.7322C3.20107 13.2634 3.83696 13 4.5 13H9.377ZM22.673 26.427C23.217 25.3666 23.5005 24.1918 23.5 23V15.5C23.5 14.554 23.172 13.685 22.623 13H27.5C28.163 13 28.7989 13.2634 29.2678 13.7322C29.7366 14.2011 30 14.837 30 15.5V22C30.0003 22.8611 29.7781 23.7076 29.3552 24.4576C28.9322 25.2076 28.3227 25.8357 27.5857 26.281C26.8487 26.7263 26.0092 26.9737 25.1485 26.9993C24.2878 27.0249 23.4351 26.8277 22.673 26.427ZM12.5 13C11.837 13 11.2011 13.2634 10.7322 13.7322C10.2634 14.2011 10 14.837 10 15.5V23C10 24.5913 10.6321 26.1174 11.7574 27.2426C12.8826 28.3679 14.4087 29 16 29C17.5913 29 19.1174 28.3679 20.2426 27.2426C21.3679 26.1174 22 24.5913 22 23V15.5C22 14.837 21.7366 14.2011 21.2678 13.7322C20.7989 13.2634 20.163 13 19.5 13H12.5Z" fill="black" fill-opacity="0.87"/>
</svg>
