<svg width="32" height="32" viewBox="0 0 32 32" fill="none" xmlns="http://www.w3.org/2000/svg">
<path d="M23.3334 16C25.2783 16 27.1435 16.7726 28.5188 18.1479C29.8941 19.5231 30.6667 21.3884 30.6667 23.3333C30.6667 25.2783 29.8941 27.1435 28.5188 28.5188C27.1435 29.894 25.2783 30.6667 23.3334 30.6667C21.3884 30.6667 19.5232 29.894 18.1479 28.5188C16.7726 27.1435 16 25.2783 16 23.3333C16 21.3884 16.7726 19.5231 18.1479 18.1479C19.5232 16.7726 21.3884 16 23.3334 16ZM19.0054 13.3333C19.5332 13.3334 20.0516 13.4728 20.5084 13.7373C20.9651 14.0019 21.344 14.3822 21.6067 14.84C20.9063 14.9806 20.2263 15.2086 19.5827 15.5187C19.4145 15.3978 19.2125 15.333 19.0054 15.3333H13.0027C12.7375 15.3333 12.4831 15.4387 12.2956 15.6262C12.108 15.8138 12.0027 16.0681 12.0027 16.3333V21.9987C12.0027 23.8787 13.3014 25.4573 15.0507 25.8853C15.279 26.6322 15.6087 27.3442 16.0307 28.0013L16.004 28C15.2159 28.0002 14.4354 27.8451 13.7072 27.5435C12.979 27.242 12.3174 26.7999 11.76 26.2426C11.2027 25.6853 10.7607 25.0237 10.4592 24.2955C10.1576 23.5673 10.0025 22.7868 10.0027 21.9987V16.3333C10.0027 15.5377 10.3188 14.7746 10.8814 14.212C11.444 13.6494 12.207 13.3333 13.0027 13.3333H19.0054ZM20.124 19.9547L20.0307 20.032L19.9547 20.1253C19.8779 20.2367 19.8367 20.3687 19.8367 20.504C19.8367 20.6393 19.8779 20.7713 19.9547 20.8827L20.032 20.976L22.392 23.3347L20.0347 25.6893L19.9587 25.7827C19.8819 25.894 19.8407 26.0261 19.8407 26.1613C19.8407 26.2966 19.8819 26.4287 19.9587 26.54L20.0347 26.6333L20.128 26.7093C20.2394 26.7862 20.3714 26.8273 20.5067 26.8273C20.642 26.8273 20.774 26.7862 20.8854 26.7093L20.9787 26.6333L23.3334 24.2773L25.6934 26.636L25.7854 26.7133C25.8967 26.7902 26.0288 26.8313 26.164 26.8313C26.2993 26.8313 26.4314 26.7902 26.5427 26.7133L26.636 26.636L26.712 26.5427C26.7889 26.4313 26.83 26.2993 26.83 26.164C26.83 26.0287 26.7889 25.8967 26.712 25.7853L26.636 25.692L24.276 23.3347L26.6387 20.9747L26.716 20.8827C26.7931 20.7712 26.8345 20.6389 26.8345 20.5033C26.8345 20.3678 26.7931 20.2355 26.716 20.124L26.6387 20.032L26.5467 19.9547C26.4352 19.8775 26.3029 19.8362 26.1674 19.8362C26.0318 19.8362 25.8995 19.8775 25.788 19.9547L25.696 20.032L23.3334 22.392L20.9734 20.032L20.8827 19.9547C20.7875 19.8889 20.6769 19.849 20.5616 19.839C20.4464 19.8289 20.3305 19.849 20.2254 19.8973L20.124 19.9547ZM9.87469 13.3333C9.33922 13.8906 8.96304 14.5812 8.78535 15.3333H5.66669C5.40147 15.3333 5.14712 15.4387 4.95958 15.6262C4.77204 15.8138 4.66669 16.0681 4.66669 16.3333V19.9987C4.66635 20.5026 4.78027 21 4.99988 21.4536C5.2195 21.9072 5.53909 22.305 5.93462 22.6173C6.33016 22.9295 6.79134 23.148 7.28349 23.2563C7.77563 23.3647 8.28594 23.36 8.77602 23.2427C8.88935 23.9147 9.09602 24.556 9.38002 25.152C8.93913 25.272 8.47913 25.3324 8.00002 25.3333C7.29952 25.3333 6.60589 25.1953 5.95873 24.9272C5.31158 24.6591 4.72358 24.2662 4.22831 23.7708C3.73305 23.2754 3.34023 22.6873 3.07228 22.0401C2.80433 21.3928 2.66651 20.6992 2.66669 19.9987V16.3333C2.66659 15.5732 2.95508 14.8413 3.47385 14.2857C3.99261 13.73 4.70297 13.392 5.46135 13.34L5.66669 13.3333H9.87469ZM26.3334 13.3333C27.129 13.3333 27.8921 13.6494 28.4547 14.212C29.0173 14.7746 29.3334 15.5377 29.3334 16.3333V17.08C27.7212 15.5292 25.5704 14.664 23.3334 14.6667L23.0067 14.6733C22.8026 14.1756 22.5063 13.721 22.1334 13.3333H26.3334ZM24.6667 5.33333C25.5507 5.33333 26.3986 5.68452 27.0237 6.30964C27.6488 6.93477 28 7.78261 28 8.66667C28 9.55072 27.6488 10.3986 27.0237 11.0237C26.3986 11.6488 25.5507 12 24.6667 12C23.7826 12 22.9348 11.6488 22.3097 11.0237C21.6845 10.3986 21.3334 9.55072 21.3334 8.66667C21.3334 7.78261 21.6845 6.93477 22.3097 6.30964C22.9348 5.68452 23.7826 5.33333 24.6667 5.33333ZM16 4C17.0609 4 18.0783 4.42143 18.8284 5.17157C19.5786 5.92172 20 6.93913 20 8C20 9.06087 19.5786 10.0783 18.8284 10.8284C18.0783 11.5786 17.0609 12 16 12C14.9392 12 13.9217 11.5786 13.1716 10.8284C12.4214 10.0783 12 9.06087 12 8C12 6.93913 12.4214 5.92172 13.1716 5.17157C13.9217 4.42143 14.9392 4 16 4ZM7.33335 5.33333C8.21741 5.33333 9.06526 5.68452 9.69038 6.30964C10.3155 6.93477 10.6667 7.78261 10.6667 8.66667C10.6667 9.55072 10.3155 10.3986 9.69038 11.0237C9.06526 11.6488 8.21741 12 7.33335 12C6.4493 12 5.60145 11.6488 4.97633 11.0237C4.35121 10.3986 4.00002 9.55072 4.00002 8.66667C4.00002 7.78261 4.35121 6.93477 4.97633 6.30964C5.60145 5.68452 6.4493 5.33333 7.33335 5.33333ZM24.6667 7.33333C24.3131 7.33333 23.9739 7.47381 23.7239 7.72386C23.4738 7.97391 23.3334 8.31304 23.3334 8.66667C23.3334 9.02029 23.4738 9.35943 23.7239 9.60948C23.9739 9.85952 24.3131 10 24.6667 10C25.0203 10 25.3594 9.85952 25.6095 9.60948C25.8595 9.35943 26 9.02029 26 8.66667C26 8.31304 25.8595 7.97391 25.6095 7.72386C25.3594 7.47381 25.0203 7.33333 24.6667 7.33333ZM16 6C15.4696 6 14.9609 6.21071 14.5858 6.58579C14.2107 6.96086 14 7.46957 14 8C14 8.53043 14.2107 9.03914 14.5858 9.41421C14.9609 9.78929 15.4696 10 16 10C16.5305 10 17.0392 9.78929 17.4142 9.41421C17.7893 9.03914 18 8.53043 18 8C18 7.46957 17.7893 6.96086 17.4142 6.58579C17.0392 6.21071 16.5305 6 16 6ZM7.33335 7.33333C6.97973 7.33333 6.64059 7.47381 6.39055 7.72386C6.1405 7.97391 6.00002 8.31304 6.00002 8.66667C6.00002 9.02029 6.1405 9.35943 6.39055 9.60948C6.64059 9.85952 6.97973 10 7.33335 10C7.68698 10 8.02611 9.85952 8.27616 9.60948C8.52621 9.35943 8.66669 9.02029 8.66669 8.66667C8.66669 8.31304 8.52621 7.97391 8.27616 7.72386C8.02611 7.47381 7.68698 7.33333 7.33335 7.33333Z" fill="black" fill-opacity="0.87"/>
</svg>
