<svg width="32" height="32" viewBox="0 0 32 32" fill="none" xmlns="http://www.w3.org/2000/svg">
<path d="M13.328 16.004C15.0963 16.0038 16.7921 15.3012 18.0423 14.0507C19.2926 12.8002 19.9948 11.1043 19.9947 9.33601C19.9945 7.56772 19.2919 5.87193 18.0414 4.62169C16.7909 3.37144 15.0949 2.66917 13.3267 2.66934C12.4511 2.66943 11.5841 2.84197 10.7752 3.17712C9.96634 3.51226 9.23139 4.00345 8.61234 4.62263C7.36209 5.87312 6.65981 7.56906 6.65999 9.33734C6.66017 11.1056 7.36279 12.8014 8.61328 14.0517C9.86377 15.3019 11.5597 16.0042 13.328 16.004ZM13.328 4.67201C14.5657 4.67201 15.7527 5.16367 16.6278 6.03884C17.503 6.91401 17.9947 8.101 17.9947 9.33868C17.9947 10.5764 17.503 11.7633 16.6278 12.6385C15.7527 13.5137 14.5657 14.0053 13.328 14.0053C12.0903 14.0053 10.9033 13.5137 10.0282 12.6385C9.15299 11.7633 8.66132 10.5764 8.66132 9.33868C8.66132 8.101 9.15299 6.91401 10.0282 6.03884C10.9033 5.16367 12.0903 4.67201 13.328 4.67201ZM5.66532 20.6653H17.8307L20.184 18.6653H5.66532C4.87014 18.6657 4.10762 18.9817 3.54534 19.544C2.98305 20.1063 2.66701 20.8688 2.66666 21.664V22.4347C2.66666 23.6253 3.09199 24.776 3.86399 25.6813C5.95199 28.1267 9.13332 29.3333 13.328 29.3333C14.272 29.3333 15.1587 29.2627 16 29.14V27.1213C15.1787 27.2587 14.292 27.3333 13.328 27.3333C9.67732 27.3333 7.05599 26.3387 5.38399 24.3813C4.9202 23.8382 4.66537 23.1475 4.66532 22.4333V21.6627C4.66532 21.1107 5.11199 20.664 5.66399 20.664L5.66532 20.6653ZM22.3613 18.564C22.6325 18.3336 22.9768 18.207 23.3327 18.207C23.6885 18.207 24.0328 18.3336 24.304 18.564L28.804 22.3893C29.1387 22.6747 29.332 23.092 29.332 23.532V29.5133C29.332 29.8192 29.2105 30.1126 28.9942 30.3289C28.7779 30.5452 28.4845 30.6667 28.1787 30.6667H26.4867C26.1808 30.6667 25.8874 30.5452 25.6711 30.3289C25.4548 30.1126 25.3333 29.8192 25.3333 29.5133V26.2573C25.3337 26.1364 25.3102 26.0166 25.2642 25.9048C25.2182 25.7929 25.1506 25.6912 25.0653 25.6055C24.98 25.5199 24.8786 25.4518 24.7669 25.4053C24.6553 25.3589 24.5356 25.3348 24.4147 25.3347H22.2533C22.1324 25.3348 22.0127 25.3589 21.901 25.4053C21.7894 25.4518 21.688 25.5199 21.6027 25.6055C21.5174 25.6912 21.4498 25.7929 21.4038 25.9048C21.3578 26.0166 21.3343 26.1364 21.3347 26.2573V29.5133C21.3347 29.8192 21.2131 30.1126 20.9969 30.3289C20.7806 30.5452 20.4872 30.6667 20.1813 30.6667H18.4893C18.1834 30.6667 17.8901 30.5452 17.6738 30.3289C17.4575 30.1126 17.336 29.8192 17.336 29.5133V23.532C17.336 23.092 17.5293 22.6747 17.864 22.3893L22.364 18.564H22.3613Z" fill="black" fill-opacity="0.87"/>
</svg>
