<svg width="32" height="32" viewBox="0 0 32 32" fill="none" xmlns="http://www.w3.org/2000/svg">
<path d="M14.4133 19.9933C14.6413 19.2891 14.9585 18.617 15.3573 17.9933H4.99733C4.20215 17.994 3.43977 18.3104 2.87774 18.873C2.3157 19.4355 2 20.1981 2 20.9933V21.7627C2 22.952 2.424 24.104 3.19733 25.0093C5.28533 27.4547 8.46667 28.6627 12.6613 28.6627C13.904 28.6627 15.0564 28.556 16.1187 28.3427C15.637 27.7896 15.2275 27.1776 14.9 26.5213C14.1576 26.6158 13.4098 26.6622 12.6613 26.66C9.01067 26.66 6.38933 25.6667 4.71867 23.7093C4.2544 23.1664 3.99909 22.4757 3.99867 21.7613V20.9907C3.99902 20.7257 4.10453 20.4717 4.29203 20.2844C4.47953 20.0972 4.73368 19.992 4.99867 19.992L14.4133 19.9933ZM12.6613 2C13.5368 2 14.4037 2.17244 15.2126 2.50747C16.0214 2.8425 16.7563 3.33356 17.3754 3.95262C17.9944 4.57168 18.4855 5.30661 18.8205 6.11544C19.1556 6.92428 19.328 7.79119 19.328 8.66667C19.328 9.54215 19.1556 10.4091 18.8205 11.2179C18.4855 12.0267 17.9944 12.7617 17.3754 13.3807C16.7563 13.9998 16.0214 14.4908 15.2126 14.8259C14.4037 15.1609 13.5368 15.3333 12.6613 15.3333C10.8932 15.3333 9.19753 14.631 7.94729 13.3807C6.69705 12.1305 5.99467 10.4348 5.99467 8.66667C5.99467 6.89856 6.69705 5.20286 7.94729 3.95262C9.19753 2.70238 10.8932 2 12.6613 2ZM12.6613 4C12.0485 4 11.4417 4.12071 10.8755 4.35523C10.3093 4.58975 9.79484 4.93349 9.3615 5.36683C8.92816 5.80017 8.58442 6.31462 8.3499 6.88081C8.11537 7.447 7.99467 8.05383 7.99467 8.66667C7.99467 9.2795 8.11537 9.88634 8.3499 10.4525C8.58442 11.0187 8.92816 11.5332 9.3615 11.9665C9.79484 12.3998 10.3093 12.7436 10.8755 12.9781C11.4417 13.2126 12.0485 13.3333 12.6613 13.3333C13.899 13.3333 15.086 12.8417 15.9612 11.9665C16.8363 11.0913 17.328 9.90434 17.328 8.66667C17.328 7.42899 16.8363 6.242 15.9612 5.36683C15.086 4.49166 13.899 4 12.6613 4ZM29.9947 22.66C29.9947 24.6049 29.222 26.4702 27.8468 27.8454C26.4715 29.2207 24.6063 29.9933 22.6613 29.9933C20.7164 29.9933 18.8511 29.2207 17.4759 27.8454C16.1006 26.4702 15.328 24.6049 15.328 22.66C15.328 20.7151 16.1006 18.8498 17.4759 17.4746C18.8511 16.0993 20.7164 15.3267 22.6613 15.3267C24.6063 15.3267 26.4715 16.0993 27.8468 17.4746C29.222 18.8498 29.9947 20.7151 29.9947 22.66ZM23.8 18.856C23.6743 18.7346 23.5059 18.6674 23.3311 18.6689C23.1563 18.6704 22.9891 18.7405 22.8655 18.8641C22.7418 18.9877 22.6717 19.1549 22.6702 19.3297C22.6687 19.5045 22.7359 19.6729 22.8573 19.7987L25.052 21.9933H19.328C19.1512 21.9933 18.9816 22.0636 18.8566 22.1886C18.7316 22.3136 18.6613 22.4832 18.6613 22.66C18.6613 22.8368 18.7316 23.0064 18.8566 23.1314C18.9816 23.2564 19.1512 23.3267 19.328 23.3267H25.052L22.8573 25.5227C22.7359 25.6484 22.6687 25.8168 22.6702 25.9916C22.6717 26.1664 22.7418 26.3336 22.8655 26.4572C22.9891 26.5808 23.1563 26.6509 23.3311 26.6525C23.5059 26.654 23.6743 26.5868 23.8 26.4653L27.1333 23.132C27.2551 23.01 27.3248 22.8456 27.328 22.6733V22.66C27.328 22.5713 27.3103 22.4836 27.276 22.4019C27.2416 22.3201 27.1913 22.2461 27.128 22.184L23.8 18.856Z" fill="black" fill-opacity="0.87"/>
</svg>
