<svg width="32" height="32" viewBox="0 0 32 32" fill="none" xmlns="http://www.w3.org/2000/svg">
<path d="M21 9C21 10.8565 20.2625 12.637 18.9497 13.9497C17.637 15.2625 15.8565 16 14 16C12.1435 16 10.363 15.2625 9.05025 13.9497C7.7375 12.637 7 10.8565 7 9C7 7.14348 7.7375 5.36301 9.05025 4.05025C10.363 2.7375 12.1435 2 14 2C15.8565 2 17.637 2.7375 18.9497 4.05025C20.2625 5.36301 21 7.14348 21 9ZM19 9C19 7.67392 18.4732 6.40215 17.5355 5.46447C16.5979 4.52678 15.3261 4 14 4C12.6739 4 11.4021 4.52678 10.4645 5.46447C9.52678 6.40215 9 7.67392 9 9C9 10.3261 9.52678 11.5979 10.4645 12.5355C11.4021 13.4732 12.6739 14 14 14C15.3261 14 16.5979 13.4732 17.5355 12.5355C18.4732 11.5979 19 10.3261 19 9ZM5.5 18C4.57174 18 3.6815 18.3687 3.02513 19.0251C2.36875 19.6815 2 20.5717 2 21.5V22C2 24.393 3.523 26.417 5.685 27.793C7.859 29.177 10.802 30 14 30C14.7453 29.9993 15.4737 29.956 16.185 29.87C15.5415 29.3255 14.9776 28.6934 14.51 27.992C14.3407 27.9973 14.1707 28 14 28C11.123 28 8.566 27.256 6.759 26.106C4.939 24.95 4 23.472 4 22V21.5C4 21.1022 4.15804 20.7206 4.43934 20.4393C4.72064 20.158 5.10218 20 5.5 20H13.512C13.7622 19.2942 14.0994 18.6223 14.516 18H5.5ZM22 30.5C23.9891 30.5 25.8968 29.7098 27.3033 28.3033C28.7098 26.8968 29.5 24.9891 29.5 23C29.5 21.0109 28.7098 19.1032 27.3033 17.6967C25.8968 16.2902 23.9891 15.5 22 15.5C20.0109 15.5 18.1032 16.2902 16.6967 17.6967C15.2902 19.1032 14.5 21.0109 14.5 23C14.5 24.9891 15.2902 26.8968 16.6967 28.3033C18.1032 29.7098 20.0109 30.5 22 30.5ZM20.78 20.28L19.56 21.5H22.25C23.3772 21.5 24.4582 21.9478 25.2552 22.7448C26.0522 23.5418 26.5 24.6228 26.5 25.75V26.25C26.5 26.4489 26.421 26.6397 26.2803 26.7803C26.1397 26.921 25.9489 27 25.75 27C25.5511 27 25.3603 26.921 25.2197 26.7803C25.079 26.6397 25 26.4489 25 26.25V25.75C25 25.3889 24.9289 25.0313 24.7907 24.6976C24.6525 24.364 24.4499 24.0608 24.1945 23.8055C23.9392 23.5501 23.636 23.3475 23.3024 23.2093C22.9687 23.0711 22.6111 23 22.25 23H19.56L20.78 24.22C20.8537 24.2887 20.9128 24.3715 20.9538 24.4635C20.9948 24.5555 21.0168 24.6548 21.0186 24.7555C21.0204 24.8562 21.0018 24.9562 20.9641 25.0496C20.9264 25.143 20.8703 25.2278 20.799 25.299C20.7278 25.3703 20.643 25.4264 20.5496 25.4641C20.4562 25.5018 20.3562 25.5204 20.2555 25.5186C20.1548 25.5168 20.0555 25.4948 19.9635 25.4538C19.8715 25.4128 19.7887 25.3537 19.72 25.28L17.22 22.78C17.0795 22.6394 17.0007 22.4488 17.0007 22.25C17.0007 22.0512 17.0795 21.8606 17.22 21.72L19.72 19.22C19.7887 19.1463 19.8715 19.0872 19.9635 19.0462C20.0555 19.0052 20.1548 18.9832 20.2555 18.9814C20.3562 18.9796 20.4562 18.9982 20.5496 19.0359C20.643 19.0736 20.7278 19.1297 20.799 19.201C20.8703 19.2722 20.9264 19.357 20.9641 19.4504C21.0018 19.5438 21.0204 19.6438 21.0186 19.7445C21.0168 19.8452 20.9948 19.9445 20.9538 20.0365C20.9128 20.1285 20.8537 20.2113 20.78 20.28Z" fill="black" fill-opacity="0.87"/>
</svg>
