<svg width="32" height="32" viewBox="0 0 32 32" fill="none" xmlns="http://www.w3.org/2000/svg">
<path d="M13.328 16.004C15.0963 16.0038 16.7921 15.3012 18.0423 14.0507C19.2926 12.8002 19.9948 11.1043 19.9947 9.33601C19.9945 7.56772 19.2919 5.87193 18.0414 4.62169C16.7909 3.37144 15.0949 2.66917 13.3267 2.66934C11.5585 2.66952 9.86292 3.37207 8.61281 4.62243C7.36269 5.8728 6.66048 7.56857 6.66066 9.33668C6.66083 11.1048 7.36338 12.8004 8.61375 14.0505C9.86412 15.3006 11.5599 16.0029 13.328 16.0027M5.66532 18.664C4.8699 18.6644 4.10719 18.9806 3.54486 19.5432C2.98254 20.1057 2.66666 20.8686 2.66666 21.664V22.4347C2.66666 23.6253 3.09199 24.776 3.86399 25.6813C5.95199 28.1267 9.13332 29.3333 13.328 29.3333C14.272 29.3333 15.1587 29.2627 16 29.14V23.5307C16 22.6973 16.364 21.9107 16.9987 21.3707L20.184 18.664H5.66532ZM22.3613 18.5627C22.6325 18.3322 22.9768 18.2057 23.3327 18.2057C23.6885 18.2057 24.0328 18.3322 24.304 18.5627L28.804 22.388C29.1387 22.6733 29.332 23.0907 29.332 23.5307V29.512C29.332 29.8179 29.2105 30.1112 28.9942 30.3275C28.7779 30.5438 28.4845 30.6653 28.1787 30.6653H26.4867C26.1808 30.6653 25.8874 30.5438 25.6711 30.3275C25.4548 30.1112 25.3333 29.8179 25.3333 29.512V26.256C25.3337 26.1351 25.3102 26.0153 25.2642 25.9034C25.2182 25.7916 25.1506 25.6899 25.0653 25.6042C24.98 25.5185 24.8786 25.4505 24.7669 25.404C24.6553 25.3575 24.5356 25.3335 24.4147 25.3333H22.2533C22.1324 25.3335 22.0127 25.3575 21.901 25.404C21.7894 25.4505 21.688 25.5185 21.6027 25.6042C21.5174 25.6899 21.4498 25.7916 21.4038 25.9034C21.3578 26.0153 21.3343 26.1351 21.3347 26.256V29.512C21.3347 29.8179 21.2131 30.1112 20.9969 30.3275C20.7806 30.5438 20.4872 30.6653 20.1813 30.6653H18.4893C18.1834 30.6653 17.8901 30.5438 17.6738 30.3275C17.4575 30.1112 17.336 29.8179 17.336 29.512V23.5307C17.336 23.0907 17.5293 22.6733 17.864 22.388L22.364 18.5613L22.3613 18.5627Z" fill="black" fill-opacity="0.87"/>
</svg>
