<svg width="32" height="32" viewBox="0 0 32 32" fill="none" xmlns="http://www.w3.org/2000/svg">
<path d="M23.6613 15.3267C25.6063 15.3267 27.4715 16.0993 28.8468 17.4746C30.222 18.8498 30.9947 20.7151 30.9947 22.66C30.9947 24.6049 30.222 26.4702 28.8468 27.8454C27.4715 29.2207 25.6063 29.9933 23.6613 29.9933C21.7164 29.9933 19.8511 29.2207 18.4759 27.8454C17.1006 26.4702 16.328 24.6049 16.328 22.66C16.328 20.7151 17.1006 18.8498 18.4759 17.4746C19.8511 16.0993 21.7164 15.3267 23.6613 15.3267ZM16.3587 17.9933C15.9594 18.6169 15.6417 19.289 15.4133 19.9933H6C5.73478 19.9933 5.48043 20.0987 5.29289 20.2862C5.10536 20.4738 5 20.7281 5 20.9933V22.2027C5 23.0773 5.38133 23.9093 6.044 24.4787C7.72133 25.92 10.2493 26.66 13.6613 26.66C14.4613 26.66 15.2116 26.62 15.912 26.54C16.2453 27.2067 16.6627 27.824 17.152 28.38C16.0809 28.5667 14.9173 28.66 13.6613 28.66C9.808 28.66 6.824 27.7853 4.74133 25.9933C4.19511 25.524 3.75673 24.9421 3.45619 24.2877C3.15565 23.6332 3.00003 22.9215 3 22.2013V20.992C3.00035 20.1966 3.31658 19.4339 3.87915 18.8715C4.44172 18.3092 5.20458 17.9933 6 17.9933H16.3587ZM20.452 19.2813L20.36 19.3587L20.2827 19.452C20.2058 19.5633 20.1647 19.6954 20.1647 19.8307C20.1647 19.9659 20.2058 20.098 20.2827 20.2093L20.36 20.3027L22.72 22.6613L20.364 25.0173L20.2867 25.1093C20.2095 25.2208 20.1682 25.3531 20.1682 25.4887C20.1682 25.6242 20.2095 25.7565 20.2867 25.868L20.364 25.96L20.456 26.0373C20.5675 26.1145 20.6998 26.1558 20.8353 26.1558C20.9709 26.1558 21.1032 26.1145 21.2147 26.0373L21.3067 25.96L23.6627 23.604L26.0213 25.964L26.1133 26.04C26.2248 26.1171 26.3571 26.1584 26.4927 26.1584C26.6282 26.1584 26.7605 26.1171 26.872 26.04L26.964 25.9627L27.0413 25.8693C27.1182 25.758 27.1593 25.6259 27.1593 25.4907C27.1593 25.3554 27.1182 25.2233 27.0413 25.112L26.964 25.02L24.604 22.66L26.968 20.3027L27.0453 20.2093C27.1222 20.098 27.1633 19.9659 27.1633 19.8307C27.1633 19.6954 27.1222 19.5633 27.0453 19.452L26.968 19.3587L26.8747 19.2827C26.7633 19.2058 26.6313 19.1647 26.496 19.1647C26.3607 19.1647 26.2287 19.2058 26.1173 19.2827L26.024 19.3587L23.6627 21.7187L21.3027 19.3587L21.2107 19.2827C21.1158 19.2169 21.0054 19.177 20.8904 19.1667C20.7754 19.1564 20.6597 19.1761 20.5547 19.224L20.452 19.2813ZM13.6613 2C14.5368 2 15.4037 2.17244 16.2126 2.50747C17.0214 2.8425 17.7563 3.33356 18.3754 3.95262C18.9944 4.57168 19.4855 5.30661 19.8205 6.11544C20.1556 6.92428 20.328 7.79119 20.328 8.66667C20.328 9.54215 20.1556 10.4091 19.8205 11.2179C19.4855 12.0267 18.9944 12.7617 18.3754 13.3807C17.7563 13.9998 17.0214 14.4908 16.2126 14.8259C15.4037 15.1609 14.5368 15.3333 13.6613 15.3333C11.8932 15.3333 10.1975 14.631 8.94729 13.3807C7.69705 12.1305 6.99467 10.4348 6.99467 8.66667C6.99467 6.89856 7.69705 5.20286 8.94729 3.95262C10.1975 2.70238 11.8932 2 13.6613 2ZM13.6613 4C13.0485 4 12.4417 4.12071 11.8755 4.35523C11.3093 4.58975 10.7948 4.93349 10.3615 5.36683C9.92816 5.80017 9.58442 6.31462 9.3499 6.88081C9.11537 7.447 8.99467 8.05383 8.99467 8.66667C8.99467 9.2795 9.11537 9.88634 9.3499 10.4525C9.58442 11.0187 9.92816 11.5332 10.3615 11.9665C10.7948 12.3998 11.3093 12.7436 11.8755 12.9781C12.4417 13.2126 13.0485 13.3333 13.6613 13.3333C14.899 13.3333 16.086 12.8417 16.9612 11.9665C17.8363 11.0913 18.328 9.90434 18.328 8.66667C18.328 7.42899 17.8363 6.242 16.9612 5.36683C16.086 4.49166 14.899 4 13.6613 4Z" fill="black" fill-opacity="0.87"/>
</svg>
