<svg width="32" height="32" viewBox="0 0 32 32" fill="none" xmlns="http://www.w3.org/2000/svg">
<path d="M16.0293 18.6667C15.6301 19.2902 15.3124 19.9624 15.084 20.6667H5.67066C5.40568 20.6667 5.15153 20.7718 4.96403 20.9591C4.77653 21.1463 4.67102 21.4004 4.67066 21.6653V22.436C4.67066 23.1493 4.92666 23.84 5.39066 24.3827C7.06133 26.34 9.684 27.3347 13.3333 27.3347C14.128 27.3347 14.8742 27.2876 15.572 27.1933C15.9013 27.8533 16.3107 28.4653 16.7907 29.0173C15.7276 29.228 14.5751 29.3333 13.3333 29.3333C9.14 29.3333 5.95733 28.1267 3.86933 25.68C3.09681 24.7751 2.67227 23.6245 2.672 22.4347V21.664C2.672 20.8686 2.98788 20.1057 3.55021 19.5432C4.11253 18.9806 4.87525 18.6644 5.67066 18.664L16.0293 18.6667ZM20 9.34001C20 7.5719 19.2976 5.8762 18.0474 4.62596C16.7971 3.37572 15.1014 2.67334 13.3333 2.67334C11.5652 2.67334 9.86953 3.37572 8.61929 4.62596C7.36904 5.8762 6.66666 7.5719 6.66666 9.34001C6.66666 11.1081 7.36904 12.8038 8.61929 14.0541C9.86953 15.3043 11.5652 16.0067 13.3333 16.0067C15.1014 16.0067 16.7971 15.3043 18.0474 14.0541C19.2976 12.8038 20 11.1081 20 9.34001ZM8.66666 9.34001C8.66666 8.72717 8.78737 8.12034 9.02189 7.55415C9.25642 6.98796 9.60016 6.47351 10.0335 6.04017C10.4668 5.60683 10.9813 5.26309 11.5475 5.02857C12.1137 4.79405 12.7205 4.67334 13.3333 4.67334C13.9462 4.67334 14.553 4.79405 15.1192 5.02857C15.6854 5.26309 16.1998 5.60683 16.6332 6.04017C17.0665 6.47351 17.4102 6.98796 17.6448 7.55415C17.8793 8.12034 18 8.72717 18 9.34001C18 10.5777 17.5083 11.7647 16.6332 12.6398C15.758 13.515 14.571 14.0067 13.3333 14.0067C12.0957 14.0067 10.9087 13.515 10.0335 12.6398C9.15833 11.7647 8.66666 10.5777 8.66666 9.34001ZM30.6667 23.3333C30.6667 21.3884 29.894 19.5232 28.5188 18.1479C27.1435 16.7726 25.2783 16 23.3333 16C21.3884 16 19.5231 16.7726 18.1479 18.1479C16.7726 19.5232 16 21.3884 16 23.3333C16 25.2783 16.7726 27.1435 18.1479 28.5188C19.5231 29.8941 21.3884 30.6667 23.3333 30.6667C25.2783 30.6667 27.1435 29.8941 28.5188 28.5188C29.894 27.1435 30.6667 25.2783 30.6667 23.3333ZM23.3333 18.6667C23.5101 18.6667 23.6797 18.7369 23.8047 18.8619C23.9298 18.987 24 19.1565 24 19.3333V22.6667H26.6667C26.8435 22.6667 27.013 22.7369 27.1381 22.8619C27.2631 22.987 27.3333 23.1565 27.3333 23.3333C27.3333 23.5102 27.2631 23.6797 27.1381 23.8047C27.013 23.9298 26.8435 24 26.6667 24H23.3333C23.1565 24 22.9869 23.9298 22.8619 23.8047C22.7369 23.6797 22.6667 23.5102 22.6667 23.3333V19.3333C22.6667 19.1565 22.7369 18.987 22.8619 18.8619C22.9869 18.7369 23.1565 18.6667 23.3333 18.6667Z" fill="black" fill-opacity="0.87"/>
</svg>
