<svg width="32" height="32" viewBox="0 0 32 32" fill="none" xmlns="http://www.w3.org/2000/svg">
<path d="M16 2.66533C23.3653 2.66533 29.336 8.636 29.336 16.0013C29.336 23.3653 23.3653 29.336 16 29.336C8.63467 29.336 2.664 23.3653 2.664 16.0013C2.664 8.636 8.63467 2.66533 16 2.66533ZM16 4.66533C14.5011 4.64907 13.0138 4.93026 11.6243 5.49262C10.2348 6.05499 8.97058 6.88735 7.90488 7.94155C6.83919 8.99575 5.99316 10.2508 5.41576 11.6342C4.83836 13.0175 4.54106 14.5017 4.54106 16.0007C4.54106 17.4997 4.83836 18.9838 5.41576 20.3671C5.99316 21.7505 6.83919 23.0056 7.90488 24.0598C8.97058 25.114 10.2348 25.9463 11.6243 26.5087C13.0138 27.0711 14.5011 27.3523 16 27.336C18.976 27.2903 21.8147 26.0761 23.9031 23.9554C25.9916 21.8347 27.1621 18.9777 27.1621 16.0013C27.1621 13.0249 25.9916 10.168 23.9031 8.04727C21.8147 5.92658 18.976 4.71098 16 4.66533ZM15.9947 8C18.1157 8 20.1498 8.84257 21.6496 10.3424C23.1494 11.8422 23.992 13.8763 23.992 15.9973C23.992 18.1184 23.1494 20.1525 21.6496 21.6523C20.1498 23.1521 18.1157 23.9947 15.9947 23.9947C13.8736 23.9947 11.8395 23.1521 10.3397 21.6523C8.83991 20.1525 7.99733 18.1184 7.99733 15.9973C7.99733 13.8763 8.83991 11.8422 10.3397 10.3424C11.8395 8.84257 13.8736 8 15.9947 8Z" fill="black" fill-opacity="0.87"/>
</svg>
