<svg width="32" height="32" viewBox="0 0 32 32" fill="none" xmlns="http://www.w3.org/2000/svg">
<path d="M21.04 21.454C18.8647 23.2654 16.0748 24.1685 13.2507 23.9754C10.4266 23.7823 7.78555 22.5079 5.87705 20.4172C3.96855 18.3266 2.93948 15.5807 3.00389 12.7507C3.0683 9.92068 4.22123 7.22444 6.22287 5.2228C8.2245 3.22117 10.9207 2.06824 13.7508 2.00383C16.5808 1.93942 19.3267 2.96849 21.4173 4.87699C23.5079 6.78549 24.7823 9.42649 24.9754 12.2506C25.1685 15.0748 24.2654 17.8647 22.454 20.04L28.708 26.292C28.8958 26.4797 29.0013 26.7344 29.0013 27C29.0013 27.2655 28.8958 27.5202 28.708 27.708C28.5202 27.8957 28.2656 28.0012 28 28.0012C27.7345 28.0012 27.4798 27.8957 27.292 27.708L21.04 21.454ZM23 13C23 11.8181 22.7672 10.6477 22.3149 9.55581C21.8626 8.46387 21.1997 7.47172 20.364 6.63599C19.5282 5.80027 18.5361 5.13733 17.4442 4.68504C16.3522 4.23275 15.1819 3.99996 14 3.99996C12.8181 3.99996 11.6478 4.23275 10.5559 4.68504C9.46394 5.13733 8.47178 5.80027 7.63606 6.63599C6.80033 7.47172 6.13739 8.46387 5.6851 9.55581C5.23281 10.6477 5.00002 11.8181 5.00002 13C5.00002 15.3869 5.94823 17.6761 7.63606 19.3639C9.32388 21.0517 11.6131 22 14 22C16.387 22 18.6762 21.0517 20.364 19.3639C22.0518 17.6761 23 15.3869 23 13Z" fill="black" fill-opacity="0.87"/>
</svg>
