<svg width="32" height="32" viewBox="0 0 32 32" fill="none" xmlns="http://www.w3.org/2000/svg">
<path d="M12.5784 6.55444C13.3757 4.22111 16.5997 4.15044 17.545 6.34244L17.625 6.55577L18.701 9.70244C18.9476 10.4241 19.3461 11.0845 19.8696 11.639C20.3931 12.1936 21.0294 12.6294 21.7357 12.9171L22.025 13.0251L25.1717 14.0998C27.505 14.8971 27.5757 18.1211 25.385 19.0664L25.1717 19.1464L22.025 20.2224C21.3031 20.4689 20.6425 20.8673 20.0877 21.3908C19.5329 21.9143 19.0969 22.5507 18.809 23.2571L18.701 23.5451L17.6264 26.6931C16.829 29.0264 13.605 29.0971 12.661 26.9064L12.5784 26.6931L11.5037 23.5464C11.2573 22.8246 10.8588 22.1639 10.3353 21.6091C9.81183 21.0543 9.17541 20.6183 8.46902 20.3304L8.18102 20.2224L5.03435 19.1478C2.69969 18.3504 2.62902 15.1264 4.82102 14.1824L5.03435 14.0998L8.18102 13.0251C8.90266 12.7785 9.56303 12.38 10.1176 11.8565C10.6721 11.333 11.108 10.6967 11.3957 9.99044L11.5037 9.70244L12.5784 6.55444ZM25.769 1.95711C26.0185 1.95711 26.2629 2.02708 26.4746 2.15907C26.6862 2.29106 26.8566 2.47978 26.9664 2.70377L27.0304 2.85977L27.497 4.22777L28.8664 4.69444C29.1163 4.77937 29.3355 4.93659 29.496 5.14619C29.6565 5.35579 29.7512 5.60833 29.7681 5.8718C29.7849 6.13527 29.7232 6.39782 29.5906 6.62616C29.4581 6.8545 29.2608 7.03836 29.0237 7.15444L28.8664 7.21844L27.4984 7.68511L27.0317 9.05444C26.9466 9.30435 26.7893 9.52337 26.5796 9.68376C26.3699 9.84416 26.1173 9.9387 25.8539 9.9554C25.5904 9.97211 25.3279 9.91023 25.0997 9.77761C24.8714 9.64499 24.6877 9.4476 24.5717 9.21044L24.5077 9.05444L24.041 7.68644L22.6717 7.21977C22.4217 7.13485 22.2026 6.97762 22.042 6.76802C21.8815 6.55842 21.7868 6.30588 21.77 6.04241C21.7531 5.77894 21.8149 5.5164 21.9474 5.28806C22.0799 5.05972 22.2772 4.87586 22.5144 4.75977L22.6717 4.69577L24.0397 4.22911L24.5064 2.85977C24.5963 2.59634 24.7664 2.36765 24.9928 2.20577C25.2192 2.04389 25.4907 1.95694 25.769 1.95711Z" fill="black" fill-opacity="0.87"/>
</svg>
