<svg width="32" height="32" viewBox="0 0 32 32" fill="none" xmlns="http://www.w3.org/2000/svg">
<path d="M20.257 12.34L26.431 13.243L21.955 17.633C21.7247 17.8592 21.5526 18.1378 21.4533 18.445C21.354 18.7522 21.3306 19.0788 21.385 19.397L22.438 25.58L16.936 22.67C16.6479 22.5176 16.3269 22.438 16.001 22.438C15.6751 22.438 15.3541 22.5176 15.066 22.67L9.56401 25.58L10.618 19.397C10.6724 19.0788 10.649 18.7522 10.5497 18.445C10.4505 18.1378 10.2783 17.8592 10.048 17.633L5.57101 13.243L11.745 12.34C12.0665 12.2931 12.3717 12.1687 12.6343 11.9774C12.8969 11.7861 13.1089 11.5337 13.252 11.242L16.002 5.635L18.751 11.242C18.894 11.5335 19.1059 11.7858 19.3683 11.9771C19.6307 12.1685 19.9357 12.293 20.257 12.34ZM17.348 3.84C16.799 2.72 15.204 2.72 14.655 3.84L11.455 10.36L4.28501 11.41C3.05701 11.589 2.56501 13.096 3.45101 13.965L8.64701 19.061L7.42201 26.244C7.21301 27.471 8.50201 28.404 9.60201 27.822L16.002 24.437L22.4 27.822C23.5 28.404 24.79 27.471 24.58 26.244L23.356 19.061L28.551 13.965C29.437 13.095 28.945 11.589 27.718 11.409L20.547 10.361L17.348 3.84Z" fill="black" fill-opacity="0.87"/>
</svg>
