<svg width="32" height="32" viewBox="0 0 32 32" fill="none" xmlns="http://www.w3.org/2000/svg">
<path d="M17.616 4.20201C17.4674 3.90089 17.2374 3.64737 16.9522 3.4701C16.667 3.29283 16.3378 3.19888 16.002 3.19888C15.6662 3.19888 15.3371 3.29283 15.0519 3.4701C14.7666 3.64737 14.5367 3.90089 14.388 4.20201L11.346 10.366L4.54402 11.356C4.21065 11.4026 3.89707 11.5418 3.63903 11.758C3.381 11.9741 3.1889 12.2585 3.08465 12.5785C2.9804 12.8986 2.96819 13.2415 3.04941 13.5681C3.13063 13.8948 3.30202 14.1921 3.54402 14.426L8.46802 19.224L7.30602 25.998C7.2483 26.3293 7.28464 26.6701 7.41091 26.9818C7.53719 27.2935 7.74835 27.5635 8.0204 27.7612C8.29244 27.9589 8.61448 28.0763 8.94992 28.1001C9.28536 28.124 9.62076 28.0532 9.91802 27.896L16 24.696L22.084 27.896C22.3814 28.0524 22.7165 28.1225 23.0516 28.0983C23.3867 28.0741 23.7084 27.9566 23.9802 27.7591C24.252 27.5617 24.463 27.292 24.5896 26.9808C24.7161 26.6696 24.7529 26.3291 24.696 25.998L23.534 19.224L28.456 14.424C28.6959 14.1895 28.8654 13.8925 28.9455 13.5668C29.0256 13.241 29.013 12.8993 28.9093 12.5803C28.8055 12.2612 28.6146 11.9775 28.3582 11.7612C28.1018 11.5449 27.79 11.4046 27.458 11.356L20.658 10.366L17.616 4.20201ZM12 24.542V12.272C12.2357 12.2006 12.4542 12.0815 12.6421 11.9223C12.8299 11.763 12.983 11.5669 13.092 11.346L16.002 5.45201L18.912 11.346C19.0411 11.6074 19.2318 11.8336 19.4677 12.005C19.7035 12.1764 19.9775 12.2879 20.266 12.33L26.772 13.276L22.064 17.864C21.8552 18.068 21.6991 18.3196 21.6093 18.5973C21.5194 18.875 21.4984 19.1704 21.548 19.458L22.658 25.938L16.838 22.878C16.5799 22.7424 16.2926 22.6716 16.001 22.6716C15.7094 22.6716 15.4222 22.7424 15.164 22.878L12 24.542Z" fill="black" fill-opacity="0.87"/>
</svg>
