<svg width="32" height="32" viewBox="0 0 32 32" fill="none" xmlns="http://www.w3.org/2000/svg">
<path d="M24.3333 4C25.3058 4 26.2384 4.38631 26.9261 5.07394C27.6137 5.76158 28 6.69421 28 7.66667V16.0293C27.3765 15.6301 26.7043 15.3124 26 15.084V7.66667C26 6.74667 25.2533 6 24.3333 6H7.66667C6.74667 6 6 6.74667 6 7.66667V24.3333C6 25.2533 6.74667 26 7.66667 26H15.084C15.3147 26.712 15.6333 27.3827 16.0293 28H7.66667C6.69421 28 5.76158 27.6137 5.07394 26.9261C4.38631 26.2384 4 25.3058 4 24.3333V7.66667C4 6.69421 4.38631 5.76158 5.07394 5.07394C5.76158 4.38631 6.69421 4 7.66667 4H24.3333ZM19 15.3333C19.216 15.3333 19.4173 15.4027 19.58 15.52C18.6448 15.9699 17.798 16.5841 17.08 17.3333H9C8.74664 17.3333 8.50275 17.237 8.31761 17.064C8.13248 16.8911 8.0199 16.6543 8.00263 16.4015C7.98536 16.1487 8.06469 15.8988 8.22458 15.7023C8.38447 15.5057 8.613 15.3772 8.864 15.3427L9 15.3333H19ZM9 20.6667H15.084C14.8787 21.304 14.744 21.9733 14.692 22.6667H9C8.74664 22.6666 8.50275 22.5703 8.31761 22.3974C8.13248 22.2244 8.0199 21.9876 8.00263 21.7348C7.98536 21.4821 8.06469 21.2321 8.22458 21.0356C8.38447 20.8391 8.613 20.7105 8.864 20.676L9 20.6667ZM23 10H9L8.864 10.0093C8.613 10.0439 8.38447 10.1724 8.22458 10.3689C8.06469 10.5655 7.98536 10.8154 8.00263 11.0682C8.0199 11.3209 8.13248 11.5577 8.31761 11.7307C8.50275 11.9037 8.74664 11.9999 9 12H23L23.136 11.9907C23.387 11.9561 23.6155 11.8276 23.7754 11.6311C23.9353 11.4345 24.0146 11.1846 23.9974 10.9318C23.9801 10.6791 23.8675 10.4423 23.6824 10.2693C23.4973 10.0963 23.2534 10.0001 23 10ZM16.6667 20.8387L17.2627 21.412C17.5212 21.6608 17.7268 21.9592 17.8673 22.2893C18.0077 22.6195 18.0801 22.9746 18.0801 23.3333C18.0801 23.6921 18.0077 24.0472 17.8673 24.3773C17.7268 24.7075 17.5212 25.0059 17.2627 25.2547L16.6667 25.828C16.9333 26.5933 17.32 27.2987 17.804 27.9213L18.6067 27.684C18.9534 27.5818 19.3173 27.5511 19.6763 27.5939C20.0352 27.6366 20.3817 27.7519 20.6947 27.9327C21.0078 28.1136 21.2807 28.3561 21.4971 28.6457C21.7135 28.9353 21.8687 29.2659 21.9533 29.6173L22.1853 30.5707C22.9453 30.6983 23.7213 30.6983 24.4813 30.5707L24.712 29.616C24.7968 29.2645 24.9522 28.934 25.1687 28.6444C25.3852 28.3549 25.6583 28.1124 25.9715 27.9317C26.2846 27.751 26.6313 27.6358 26.9903 27.5932C27.3493 27.5507 27.7133 27.5815 28.06 27.684L28.8627 27.9213C29.3453 27.2987 29.732 26.5933 30 25.828L29.404 25.2547C29.1455 25.0059 28.9399 24.7075 28.7994 24.3773C28.6589 24.0472 28.5865 23.6921 28.5865 23.3333C28.5865 22.9746 28.6589 22.6195 28.7994 22.2893C28.9399 21.9592 29.1455 21.6608 29.404 21.412L30 20.8387C29.7375 20.0836 29.3533 19.3765 28.8627 18.7453L28.06 18.9827C27.7133 19.0849 27.3494 19.1156 26.9904 19.0728C26.6315 19.03 26.2849 18.9147 25.9719 18.7339C25.6589 18.5531 25.3859 18.3105 25.1696 18.0209C24.9532 17.7313 24.798 17.4008 24.7133 17.0493L24.4813 16.096C23.7209 15.9682 22.9445 15.9682 22.184 16.096L21.9547 17.0507C21.8699 17.4021 21.7145 17.7327 21.498 18.0222C21.2815 18.3118 21.0083 18.5543 20.6952 18.735C20.382 18.9157 20.0354 19.0309 19.6764 19.0734C19.3173 19.116 18.9534 19.0851 18.6067 18.9827L17.804 18.7453C17.3133 19.3765 16.9291 20.0836 16.6667 20.8387ZM23.3333 25.3333C22.2667 25.3333 21.4 24.4373 21.4 23.3333C21.4 22.2293 22.2667 21.3333 23.3333 21.3333C24.4 21.3333 25.2667 22.2293 25.2667 23.3333C25.2667 24.4373 24.4 25.3333 23.3333 25.3333Z" fill="black" fill-opacity="0.87"/>
</svg>
