<svg width="87" height="24" viewBox="0 0 87 24" fill="none" xmlns="http://www.w3.org/2000/svg">
<path fill-rule="evenodd" clip-rule="evenodd" d="M27.5101 10.1081L31.8419 0H33.2138L37.5458 10.1081H35.5101L34.5567 7.87021H30.4992L29.5457 10.1081H27.5101ZM31.2354 6.13726H33.8061L32.5207 3.14808L31.2354 6.13726ZM43.1057 10.1081C42.8603 10.1946 42.297 10.2529 41.9361 10.2529C40.8096 10.2529 39.9867 9.87773 39.5101 9.2421C39.1489 8.76536 38.9901 8.14477 38.9901 7.14807V4.69297H37.0409V3.10482H38.9901V1.1556H40.8669V3.10482H44.1448V1.1556H46.0216V3.10482H48.3319V4.69297H46.0216V7.36433C46.0216 7.79781 46.094 8.05733 46.2528 8.24539C46.4409 8.46165 46.7436 8.59236 47.2063 8.59236C47.4809 8.59236 47.842 8.5491 47.9717 8.51995L48.2604 10.1081C48.0148 10.1946 47.4517 10.2529 47.0906 10.2529C45.9641 10.2529 45.1414 9.87773 44.6648 9.2421C44.3037 8.76536 44.1448 8.14477 44.1448 7.14807V4.69297H40.8669V7.36433C40.8669 7.79781 40.9392 8.05733 41.0981 8.24539C41.2862 8.46165 41.5891 8.59236 42.0516 8.59236C42.3262 8.59236 42.6873 8.5491 42.817 8.51995L43.1057 10.1081ZM52.7804 2.96001C54.9026 2.96001 56.5057 4.59141 56.5057 6.61303C56.5057 8.63466 54.9026 10.252 52.7804 10.252C50.6582 10.252 49.0548 8.63466 49.0548 6.61303C49.0548 4.59141 50.6582 2.96001 52.7804 2.96001ZM52.7804 8.519C53.8776 8.519 54.6289 7.6671 54.6289 6.61303C54.6289 5.55897 53.8776 4.69297 52.7804 4.69297C51.6831 4.69297 50.9316 5.55897 50.9316 6.61303C50.9316 7.6671 51.6831 8.519 52.7804 8.519ZM61.3867 4.69297C61.6613 4.69297 61.9359 4.72212 62.0656 4.76537L62.0667 4.76441L62.2829 3.01737C62.2555 3.01354 62.2288 3.0097 62.2028 3.00591C62.0355 2.98178 61.8846 2.96001 61.6472 2.96001C60.7953 2.96001 60.0299 3.29193 59.6115 3.8119V3.10482H57.8061V10.1081H59.6829V5.70378C59.9144 5.28534 60.564 4.69297 61.3867 4.69297ZM63.4366 10.1081V3.10482H65.2419V3.66805C65.7761 3.23457 66.4408 2.96094 67.2203 2.96094C68.1879 2.96094 69.069 3.39442 69.6463 4.08742C70.1079 4.63654 70.3683 5.34364 70.3683 6.54252V10.109H68.4915V6.39771C68.4915 5.70471 68.3327 5.34364 68.0731 5.08412C67.8277 4.83871 67.4527 4.6939 67.0192 4.6939C66.2246 4.6939 65.5747 5.19885 65.3154 5.55992V10.1081H63.4366ZM75.1912 10.2529C76.2743 10.2529 77.3857 9.80533 78.0648 8.99667L76.9965 7.92849C76.6637 8.28956 76.0289 8.73715 75.2345 8.73715C74.2377 8.73715 73.4431 8.05826 73.3427 7.0766H78.1945C78.2237 6.9177 78.2376 6.73057 78.2376 6.54252C78.2376 4.59235 76.8657 2.96094 74.9307 2.96094C72.8517 2.96094 71.5231 4.66475 71.5231 6.61397C71.5231 8.80862 73.0973 10.2529 75.1912 10.2529ZM74.9316 4.47764C75.697 4.47764 76.2604 5.08412 76.3177 5.70471H73.4301C73.5166 5.07002 74.1662 4.47764 74.9316 4.47764ZM79.7252 13.574L81.6605 9.40102L78.5273 3.10484H80.5922L82.643 7.30699L84.5348 3.10484H86.5132L81.6904 13.574H79.7252ZM31.308 22.2661C30.3835 22.2661 29.5026 21.7903 28.9251 21.1546L28.9233 21.1556L27.653 22.4842C28.692 23.4366 29.9482 24 31.3059 24C33.1254 24 34.7285 22.7578 34.7285 20.9675C34.7285 18.9535 33.0994 18.3062 31.7668 17.7768C30.8448 17.4105 30.0648 17.1006 30.0648 16.4334C30.0648 15.6539 30.8884 15.3361 31.6248 15.3361C32.2886 15.3361 32.9675 15.6248 33.3717 16L34.3827 14.5557C33.4302 13.8476 32.4767 13.6022 31.4518 13.6022C29.777 13.6022 28.1166 14.6413 28.1166 16.4466C28.1166 17.5872 28.7511 18.2811 29.5457 18.7428C29.9651 18.9882 30.4339 19.173 30.8818 19.3494C31.8839 19.7443 32.7803 20.0976 32.7803 20.9957C32.7803 21.732 32.1738 22.2661 31.308 22.2661ZM37.8343 23.855H35.9575V13.6022H37.8343V17.3568C38.3543 16.9525 39.0181 16.7071 39.7404 16.7071C40.708 16.7071 41.5891 17.1406 42.1664 17.8335C42.628 18.3827 42.8884 19.0898 42.8884 20.2886V23.855H41.0116V20.1438C41.0116 19.4508 40.8527 19.0898 40.5932 18.8303C40.3478 18.5848 39.9728 18.44 39.5393 18.44C38.7447 18.44 38.0948 18.945 37.8353 19.306V23.8541L37.8343 23.855ZM49.6248 23.855H51.4302L51.4311 23.8541V16.8509H49.6257V17.4142C49.0765 16.9666 48.3693 16.7071 47.575 16.7071C45.6689 16.7071 44.1382 18.2952 44.1382 20.3601C44.1382 21.3135 44.4842 22.1796 45.0332 22.8152C45.6539 23.5373 46.6356 23.9991 47.6754 23.9991C48.3826 23.9991 49.0473 23.7827 49.6248 23.2919V23.855ZM47.8203 18.441C48.5424 18.441 49.163 18.787 49.5534 19.307V21.401C49.1922 21.92 48.5707 22.267 47.8635 22.267C46.8096 22.267 46.015 21.4584 46.015 20.361C46.015 19.3502 46.7231 18.441 47.8203 18.441ZM57.4733 18.5124C57.3436 18.4692 57.069 18.44 56.7944 18.44C55.9718 18.44 55.3219 19.0324 55.0907 19.4508V23.855H53.2138V16.8519H55.0192V17.559C55.4376 17.039 56.203 16.7071 57.0549 16.7071C57.2923 16.7071 57.4432 16.7289 57.6103 16.753C57.6365 16.7568 57.6632 16.7606 57.6906 16.7644L57.4742 18.5115L57.4733 18.5124ZM61.7186 24C62.802 24 63.9134 23.5524 64.5923 22.7437L63.524 21.6756C63.1912 22.0367 62.5566 22.4842 61.762 22.4842C60.7654 22.4842 59.9708 21.8053 59.8701 20.8237H64.7219C64.7511 20.6648 64.7653 20.4776 64.7653 20.2896C64.7653 18.3394 63.3934 16.708 61.4582 16.708C59.3793 16.708 58.0506 18.4118 58.0506 20.361C58.0506 22.5557 59.6247 24 61.7186 24ZM61.4593 18.2247C62.2247 18.2247 62.7878 18.8312 62.8451 19.4518H59.9575C60.044 18.8171 60.6937 18.2247 61.4593 18.2247Z" fill="#002E69"/>
<path fill-rule="evenodd" clip-rule="evenodd" d="M8.09024 23.855H11.4217V18.3112C11.4217 14.708 9.58626 13.5863 7.37656 13.5863C5.16689 13.5863 3.33144 13.1105 3.33144 9.54111V0H0V9.65677C0 13.26 1.80159 13.7357 4.04512 13.7357C6.49269 13.7357 8.09024 14.8575 8.09024 18.4607V23.855ZM14.7879 23.855H18.1194V16.6008C18.1194 12.9976 16.2839 11.8758 14.0743 11.8758C11.8646 11.8758 10.0291 11.4001 10.0291 7.83072V0H6.69768V7.85236C6.69768 11.4555 8.49927 11.9313 10.7428 11.9313C13.1904 11.9313 14.7879 13.0531 14.7879 16.6563V23.855ZM24.7898 23.855H21.4583V14.9816C21.4583 11.3785 19.8608 10.2567 17.4132 10.2567C15.1697 10.2567 13.3681 9.78088 13.3681 6.17771V0H16.6995V6.15607C16.6995 9.72541 18.535 10.2012 20.7447 10.2012C22.9543 10.2012 24.7898 11.323 24.7898 14.9262V23.855Z" fill="#05DF9D"/>
</svg>
